<mxfile host="65bd71144e">
    <diagram id="ZMpE8pVW6pU3zJQCRuFg" name="Page-1">
        <mxGraphModel dx="1006" dy="579" grid="1" gridSize="10" guides="1" tooltips="1" connect="1" arrows="1" fold="1" page="1" pageScale="1" pageWidth="850" pageHeight="1100" math="0" shadow="0">
            <root>
                <mxCell id="0"/>
                <mxCell id="1" parent="0"/>
                <mxCell id="2" value="http://ics2o.mths.ca" style="swimlane;whiteSpace=wrap;html=1;fillColor=#647687;strokeColor=#314354;fontColor=#ffffff;" vertex="1" parent="1">
                    <mxGeometry x="40" y="70" width="760" height="500" as="geometry"/>
                </mxCell>
                <mxCell id="3" value="&lt;font style=&quot;font-size: 20px;&quot;&gt;Word Spinner&lt;/font&gt;" style="text;html=1;align=center;verticalAlign=middle;resizable=0;points=[];autosize=1;strokeColor=none;fillColor=none;" vertex="1" parent="2">
                    <mxGeometry x="320" y="50" width="150" height="40" as="geometry"/>
                </mxCell>
                <mxCell id="4" value="XX,XXX,XXX" style="whiteSpace=wrap;html=1;align=left;" vertex="1" parent="2">
                    <mxGeometry x="250" y="100" width="290" height="40" as="geometry"/>
                </mxCell>
                <mxCell id="5" value="" style="shape=image;verticalLabelPosition=bottom;labelBackgroundColor=default;verticalAlign=top;aspect=fixed;imageAspect=0;image=data:image/png,iVBORw0KGgoAAAANSUhEUgAAAa8AAAGTCAYAAACf053XAAAAAXNSR0IArs4c6QAAIABJREFUeF7svfeTJel1JXbS5zPlutqNxxjMYBrAGAwAAtiBGxgSXHGJpVtRpKggtRGUtKEfpAj9vv+AFEJIq13pJ4ZiVyHtBrnSYhc0IAlguLCDwfieHt/dY9p3l3kmfSrOvd/3Xr7XVW2qe6anpzMjKl7Vq7Q3M7/z3XvPPdep6/qfol1aC7QWaC3QWqC1wHVkAacFr+vobrWn2lqgtUBrgdYCYoEWvNoHobVAa4HWAq0FrjsLtOB13d2y9oRbC7QWaC3QWqAFr/YZaC3QWqC1QGuB684CLXhdd7esPeHWAq0FWgu0FmjBq30GWgu0Fmgt0FrgurNAC17X3S1rT7i1QGuB1gKtBVrwap+B1gKtBVoLtBa47izQgtd1d8vaE24t0FqgtUBrgRa82megtUBrgdYCrQWuOwu04HXd3bL2hFsLtBZoLdBaoAWv9hloLdBaoLVAa4HrzgIteF13t6w94dYCrQVaC7QWaMGrfQZaC7QWaC3QWuC6s0ALXtfdLWtPuLVAa4HWAq0FWvBqn4HWAq0FWgu0FrjuLNCC13V3y9oTbi3QWqC1QGuBFrzaZ6C1QGuB1gKtBa47C7Tgdd3dsvaEWwu0Fmgt0FqgBa/2GbjhLFBVFaqikOvWzwr8DlWFIsmQJSMkg81ouLbeHQ03F7LhaDFL0oUiz7t1VUVVVcZ1XceAE9ZVFZiO5B5qeHBld4Dj1I6DrK6rGo5TuXAzx0XmuG7quW7q+H7iBeEw7nQ3wyjc7C4sbnaWl8adfj8Pu124fgjXdQHX3frzhrtr7QW3Fpi1QAte7RPxgbUAgalIEgEjfvJnsLbWWTtzciVLshWvrvcV42S1ytPFunb6eZbFURSHvu+6yShFGPpwHE/RqHIApwJqVz4deDN/2+/nP+u57Wb+L3uu4foeyrJEVhYIggBljbpGnfu+P06yZLPbWzjn+P4pLwxOdLqd9f7qnrX+wkLqhzH8ePojYNcurQVuEAu04HWD3OgP+mXSc0rW1pBsrOH020d3H3vzrduKPN8dBcFKXdarruOsRFEYpKMxfN9HVZZAWaDMCwShh8CPUNX8u0Jdl/C8QMAry9Qzcwla4lLNfpaOgtl24HWh7x0AHhz4rqeen+sIiNWOh7Ku4HmefJdXJdIsg+N7cF0PjuOg2+0iL4qyTPK1KI7Ppllyxu9239p3x+1vLu3fv9FdXIZPD64FtA/6o3/DXl8LXjfsrb8OL5zhPon1adhvdPYsjr548La1UycOlHn14SJPFztxL3DcGoHrIU0T0IcJPVc8p7LMEfi+fNa1A99nWM4R4CiKQsCips9T1wg8X76zgz8Bg4tbWyesFmeM29f6ry0X7mu7xakBp6AXx9OsEUYRsiwT7ysrFUTh6DnRO+P5jdIEURQhz0sBvsgL5Dy5XdSJUXGfvocRv3CcdTfw31i9ef8Lt9534Gh31y64vq/X0YLadfgCtKfctEALXu3z8L61gIBKlqAYjJAMN70z77y5Z/PkmQNVlt+dFvm+Ksu9UMJ6EAAACBQCBeY7gTq4ddNj4irqKRF8KhcotwAfAstWS9Pvsv/fbt1LM6yeo5z9zHnMHmm6ll1b/39eoFA8RLlquT4BPteFDwG/Gp57KujELy7cdPMLKzftOx12+zU9ND8ML+1027VaC7xPLNCC1/vkRrSnoRYQj2ptDRvH3oyPvvb6AVTFxxe6vZtPvn0s7IYRfLioyxwus070OqpyC9M1h/q5YZ/AZRb+VrmugBcBiODR/LzYPSFMXAlwKVhV6sFtsdDLmy5b5bPOhzQ9n8a6whfxxEuj96gepCugVjoO4tWVdDMdH+71+r+45a67Xuvt21eG3X7rmV3s5rf/v+YWaMHrmt+C9gToYY3OnsYbzz5981tvHn4sjqLb4zAO6jxDPk7QjTuoswIePYjaQZmnChoSsvNmPJZZIGh6NbMDvQUqO9DvBLx45y4UMrzYnd0KvJqA1QTGeZCchbIpysn1N06KvzJEahf5tXYFxNTz9OH5PjY3h+gvLsALw2Iw2Dy676abH7/zEw8fYe6MjMd2aS3wfrNAC17vtzvyAT8fCQUK82+E9eMnoqMvHXxkNNj4BBysMtfDpA0H6nQ8xmK/B4988yQVT6vKC4RBAEe8iVqIDI7royJporFo8LCaAZa64XGJv+No/soliX2bEKFd50KfV3K7LHhZbNkKrOyVnQdeJvfGbatt3D8BaONlqY8niC+nbHN4SVah1+uhhoPxeISKZJBeD1mRa1DSwYnO4sJP7/rI/c92llZK0vj9mCHGFtCu5N632165BVrwunIbtnu4BAtkgwEGp0/ixOHX9509efKRvCw/7lWIOw7gew7yPBfiAQfVfr+P0WiENCVdPUSWJTLA8m/mbxjyImNQyRXnx9ya4b/5U2v6Xzbst13obz6MuFVYcTvguwSTnLfKVtHD+f03z7V0KxTM2c3hiN1mBgwZMmyAtM2YeX6I9fV1LC6viJ3dIESSpkIKSfIcnW4XG4NNdBf6KKqqWOovHgr73R/fcvd97/T37pZ6tHZpLXAtLNCC17Ww+g1yTHpZG8ffweGnn7p7Y33ty4Hv3+zWcFh3FfoBUFZAlqGuKqF+c9Ck9zUcDhH3uuoduLWAWhzHSDL1wJjnIvOO+9c6rPOXCwGSXVvYftt4XZcSDuS2E6CYo4tY2silfF7K47AVSDJXV3j0vGap+q5yMjV/V9NLVeCaMCbNAVmDVtLncjxkeS6ANR6P0e33ZPLAe5IWmlOs6hqdTgdpoZOMTrdXl0VxpLtr19/d9eDDr3d3727zZJdyI9t1rpoFWvC6aqZsdyTKFVmGbDTC0YPP7z780sGvRmF8XxwE8Mj4qwoMNwfod3vkwiklnUW5ZYkkSdBfXMR4rADGAVLqsapK/i/7Ro0oCOWT4MXvt1u2CrPpuk03xZIlzic+XO7d3LoKbL4qbP5vG7KcntNW5I1ZDuXsmam3dn79mV3LglcTjOdtQ3vT86WNhZno+xgMBgJmJMVwIbgR/Ow9c2oXeV3CiTpC63d979X9d97+nVvuu/+cFE6Tkt/myi73MWrXvwwLtOB1GcZqV93aAkWWYXT6NE6++cbSiaNvf6mq8gNFlof9TgfjwRCL3Q5Gw014jovFfhejwXAS+mMxblGxIDeQ7ywocfCjF8BPC2YcWDmAcqC14UOSNprLVp7UPGtvso7DvNiVA5ccv9b6KV0qoeNLLmrehTMHl3oxZqQMZV8/zwehWvJOU89K/jYLd+Vt4z3a66qNfSTEOrd/2pJF2rSlrfuibelhlZna2E4QXFevT71dRyYXQRxhnBYIujGG4xR+GKBAlfT7i0/tvf3WH+257Y5BvLw8qS1r35/WAlfTAi14XU1r3kD7UuLFCCdfeSU6/tKhR4uy/JRTVxEHSZnBmzCVjNWUU9q+VtdYbTv+nP7bhrysiZvFv/OFwJYSPtnGFArretNzE8ypClIaJseYbqO0crtvWzPVPL5cI7etPdRViKp2VKUDBWokAhZlOX/hCmz0XMQ03FYo+q6sv53slP2en03KO4upRf3DgHBtkNoelQXbFp75G4kZvBlS+ibHb4ChKcSemQw0bNC084RyzyJvx4VTlRKC5EKgc6kO4rsjx/OfuPW++3+87977UlsgfQO9Ju2lvosWaMHrXTTuB3HXIsO0sYYXf/jDWzfWz/1aWBR7hXtmQkT8vx3k5gFHwGKOldAcPJv2soPvVsDUXM9toOJ2gEZvhYfV81HPQQZZ4dNpVsoxyhpyjs3fRWS3RlGRHEIBX4JzqbkkrldSPoqJJ8pLqd5h5eSAm5pjmZxcA2AmYT4Bjq2LvOw5ng8YFszNfk3klOxL60ERwCQX6Op3Cv5kyDdrvfRmqAfboNLPAP35k4b5iURBcHYd2Ptgb4dQ9B0gyQq4cYxRkhy7+/6P/tntDz58mmHFVuHjgzg6vLfX1ILXe2vv6/JoClgbDA06rz/zzMPpePh5AMsew3z0shwlBTQH/q2AaycX3/R+ttqeuTT6MBPvwqCe1jfpebEWjA7JTAhNAEpBiOE6DroWeC148f+UHBSSuQzwFRxJShmAlrCjFv26VTAR8SUNAk4Bz6k17CYgZX8UNKb0/q3DlluB1/z1i3qGeH9mMfdAKgfkGE3wcuF4GnZt/jTlr+b/Z+/nzKSiAeylhCJVYoshYVkE5PUm0GRxp4eN8RDwAymKDuJo4Lj+D+576OGnFvbsKf241V/cyXvRbsM5ZV3/09YQrQW2s8Dg9Gkcee6pWzfPnP1qMhzdETG8VZWIgghFkcMVB0C9mabHYgfCC2n7XYrVLzSIS4SM+n9cTG6HnpTmd2b3TmadBSeG9oQIUtOjohCurivnKuKAOgA79awXaUOhE2+PTEitKJPw24R96FRKUJkocLgCYDLQy8HU59MV6LldQP9wLpTXtCf3oKCh4Gqvu3kf9O7QCXMEvKm0Qfy1n8roVECznpv9nIYnZz0wew60Hx+AacG3glcTBMdJJuzFcZHJJCLNM0RxB1G3gzIvD+655Za/ue2Bh86yfqxdWgtcjgVa8Loca91A6zI0+PPv/tWDTll/rUjGPeQlVhYWMCZbMI6QpYUAFzM8TYZcM2R4Ma/Jzs6bZp3PjbEgebul5glQYcPkcWQ9mfnT29FPej7cBwGrLrVvF8N/OtBzIA8EVAhUgiUTH049OgtU1Ee0eGhBjbqIKUkPdD7M/y2Auea8CS56TbI3afnVBC+XIcbJMS3UNK74QoQSenTGu1TvbrpMQV+Fgx2ClyL0jAKkvXdNT7n5O8kyFthIprGkGQt6Ofu3NMB/Ykfj4THnF0Ss1SNodYWQQzUPN/Al70ZG4+ZwsLbrllu/feCLX3ydIcV2aS1wKRZowetSrHQDrKMiuBmStbN49kc//AyK6ktuVUZlmiGi2npZwUeNThRjPBwqE40Dp9QZ7dxA25DxJjtUNQ09wMwAKzjliOdD8KpsCLAohYRBAkFNYDVNJpmfkn1MmAokTtBr4FVp5mu6TCkOTYULgmFzPV53QdsQYJxMQEo0BGtS4JWdx3PR49K/El/JfJqjOfQc54SDG3/P5Lw09jllH8r+pzk8K/s0vQ4NE+o+trlJRiZqEuprqOBLWNIwPJuemf1djuNPwU2PO/VW9W9XgEvq+IYjKTrnLZHavV5XWr0Q3DZHY3hRuL68Z/9/uPORR16JFxdbseCdv1Y3xJYteN0Qt/nCF8m6rOOvHuq+9fLLX8yS9NOLvT4219YRR6FoCRZFJkOf5zlSj8UByFLVLzUsuFWRrTD4zJi6fV2WgpYdeiVHxQG7IjSxgDlT2SNDpCBIVQQMCf/pwG4Bi1JTTRCUgZ01SqSpT0zE8J7qtcsnPTmCmxW0NZ8TIOWx6D052ZSgQeAieYOQYaODFjQbVHfxGCd/20oxOkcEtOnfUySfVQ/WfTf0G+upioYFrPNzj7Oe7MT+jfBkcxsBfxtSbTxGXIf/CcNIcmnyPEyEf809Y47LtJkhWLEwnZ9FUWF1eQVn19eQOzUWlhaRZ6W0e6Gt+ytLWZoVj9/zyU/+ZPW2O8qWpdgOUltZoAWvG/i5oIL78ZdejF/++RO/6fvBPSwmrrIc6TjBwsKC1GZZeSYqXORs3liWiLsdjNNUdAfps8zLENnBzhImZP59Af3AmZyJuR/nrW+IAnWhoUAtXC6AmuDBAujpATiwkizBRfIyE69NkcTmhHgM+l3NcizNRTUBjJ6dbmf/J/sgqV0IE/xWAczWadWy16byx4SX3rCV8baEKj8N+SlwTZfzwaf5X3p8DcMSvCxAb6X4MQHQ6T5U73D7422Xc7TfVwwb2lo75tQ8D47nSX0efxdtyiyT2jFqVPK+LdDjSjJxIktPbS3gFioLcZRk8IMIThDUcNwnDvy9R/+8v39/y1C8gceqFrzamy8WYI+sjVOn3Oce//43grL+pJILNO8jvsBkPNNB14YFpW6JaZaGsG1QexMZIgsMTTPbVhzzprcAwuqgZoJfiHKWOEHwseoauQKn9QRcGaTpibA9SiN0Zg40JUQooYCEBl6d1GI5qo9I4AlJViA7cAvvQr6bE/2116HSUg5CEgu11EvAi2CQExSDGEmewXNVoYKLnKecq37K/gl0RsZpsu8Gc3NSjL3l26shQd4f6xna65A834SYobVtU6CbV3i8Oi8G96rsy6lYMEFrkjOzbVl47eLtlqgo88Xwsxp7YilpEgq2q3FRM3Tp+9//xNe+/oO43wdYR9aqd1ydm3Yd76X1vK7jm3e5p04194133nJef/6ZXx4NN38p8j1UaQnPOgYN4JoOrnoUDswcWyx42WP7lSUkbM1II3jNs9+4rQCWqUMS74jyT+ZH1qfuIYG2KJT5ZyjYNkxpwUsJFXPtTixVm4MfqerCiGOuyANJHhoG5A9QFplpVtmw5qSoWvNtDfGmyfjP86C6RYAAZDLS+xAPwikkB0ZCQiHyVZ7mqSruh4M2s3QsjCbVhYSQcDJm2/ySJV/wGCQ8NFl/9iwV33WWYcGLtV3z+UFVyBBYmQDorL0aFP7LfaDm+plpuNV2ljadps295rXREwuMd2avdZovNVaWSYYKLguW+QGyooLr+QSyLOhEf33g07/0xOL+m1sA28H9+iBt0oLXB+lubnMtBIUzr74cvPz0k4+FvveZMk2QJiMZ6AI/mgzONgLVFJyd7FK8Cp0cz5AsqindYYZQ0Uj8W29AQMsqbzRyLCXrqWbCgY08jtEvnAzKzSiZ0L6NUoUBMKuWocdSrT47EIq8ogywVJjQbV0vnAmcmWo1BSmCGAkjzYyYCb1JZZkU+YYoC/7lKfuyHgF+Ds/JVGnEiYA6FCUNnpsD5g9LCWtOaCHGE5wAE3dtFPN9P1TvSgiUevHK+vMl10Rwl3orQ8qYz0FyXV2M4YS92MjwTWrQdvYiTAgwJtQqYNpwoqzqhp2w0GGyQMaJje82CB+cAIjHxRIEJbgQfIOoIydH3ctut4eiZKy4fvzBrzz2d/3de1sNxZ3duut+qxa8rvtbuP0FSHHx2hp+8d2//FqRJZ+rilx0BrMkgecoTTnNiwm3zYKL/ZzJOxnK9tYltdNzmHhGc6c1KYY1ITJbc5XnmQ7ODa/Lbqpki2bOahr5ksFdfBhvEtZU0rx6GZacIaO+LJpbUaKBQlTp+CjrUEJTTTbeDHmjyb6bEDfMLgluHr03ahSG8MjTqE4jikeoqtNwGNIsO3CqCG4VSk2a46RwhGFoF188KLWbEh9cl8M6vSgPeU6Go/1e28BYth5tFkS+qeOiNiL9PE/Cbbx+XseMePGEdv/ugJdApIn8WQBrKq8okJmSBOYl4SBwfKlVc33NlSGgMogjHa5lcUgSyoTsQf1LFokTkIusQFoVo86+1X/30Fd+5SWSOtpQ4gd4MNvi0lrw+gDebwtaR5576s6NU6d+ezTY7JBC0O92RYiVPwQuJtJrTwe5ZpVQ0wOz5tmecGGaPs4RJgQOGrp4khcyIGVzVxIWM+DVvA1bUeO3vE3sqtzISVkPSTwc8fCaag8srjaelykULgkOCFHCF6DgTJ+DZu0EqBxP8y3m98qlQgRDjwQLVZXQAuMRapINqh4iL4OPt7F3dQS3PorQGcMvO3DzGHWpLVyqeix+hXp/LuqCuoj6P8nLMTwqBdWap/PpGYrtRN9pAnAS9vQclGWqgMHQJc9LHEINUxIUrSq8td98WYPoIl7RYj05I0Nl9meyWLJnPeZ84bjJr5YkmRCcHQEw8IdKIB5trSFnn6FDUuq9ENRyHAxG6IQdRL0ujm+ew669u48v7bvp/779/o+v+91WseOKbud1tHELXtfRzbqUU6VY7ss///FNG6fO/FaZJruqLJ3UZxVZjiwr0O32kY0TGSS2pQE2DnYhGrvNhc0zDi14WY+KYUEJcZUqyTT10GY9Kxnm5kKO89/ZHFCTgDFvGxIzxA+TsCKzTcx3KQBp+THByYcTdmdyYgSpmi4UvTL50fVYD6af9AzMPt0SYZzDYc1S0UfHGaDvH8Z9d2Xoea+i5w3hZ4F6XzlV8yuUzhAkqUjFWE0PopZEogJXJV4cva0sZd+sCsmY1PJS7hvp5PyO5rECvRoWNPqEAhy2jow8UHpqU7bkeQDGerRLeaguuM7W4GU9WSHYSH5Tfa4Je5EkGamHa5RBGDkrodwbKSsSPiT8SnkpCSG70mWgLmqh1lOpI60K+GHMeOrBm+8/8P/d8pEDWeuFXfGNfd/voAWv9/0tuvQTPPvmEffpv/vB77hOdV838JEOBwgdTwqL2eCRs+x+fxFraxvo9HpCklBq9jSMNGUWmuNuMTOflrtOW4rYMl8LTFbodsIWNDktyxZkyIiLN9fSZB647N9b1SMRvIqaXpLRCnQYMmMY0UfhBvKTlA5yN0btd4CghyrswA1iAbLaC1HQO7NeoinI1eLlKTVeg5GGZi9EDyUTELiTKoVXO+hkffSqs1gOXsSnDhToe09j0TsHZ+jALSOAPwzbeWPULiWpfPVIipJBPgUjhsocX70oeon8KZlX8xlgExAjmG1ubor3kYxKJAN6aqHJidG75LkzJxbINtxeZak0bDrjY89XiF/6o6ZrMm83yaFpbzIrtEwm5vyiX6m2PRfm6jxOFCS9KO6lyXRN6/FI6uG37PRcey7WNwdS1OyHzNU68nzzeWan55SevOszb/aDR77+te93d+2+3Ctq17+OLNCC13V0s7Y6VYLB6OxpPPP4Dx5I0sGvhY7rF2mC2KcYLf0LB2XGGppQJJ2CIBKqcWq6FhNkbNJdBxdt0DiR/JlUB6uyg0NNpGZ/KeZxxIEztVAExEkdFlU7KH809aYspdtq6ynYaQ7Iki2aLUp0sNXwoCTwCVCG7k6SfOYQiEJUllHoxShcH6UboXRD+P0l5PJ7hNwJULoxCgIEPSnjDZAdaIV31YshuJgw2BZtQiT8afI7hQv4jo9eESAuTmLVfR6fOZCihyfRq04gLgOgYmLMUObdRMHLECkEu83ArecwDQ9K+YLUizFESdYiB3rh/Wsqrw7gFF1kqYPxMMHmIMFwkCBNS6R5hap0UeRc39adMSlHT8w3LVimDD8LRhOhwm2BrcG9FODSPmEWtORumTKCrTQbm7uVCYAQajTM67L43BB6rOfOIvSwE2M4StBZ6COMY2k4w/tDRiqZsiElrFgfluVwQk5IRHll/eYP3favbn/goVNxf/E6f8vb09/KAi14XcfPBZUx3nr2FwsnX3/9d+qquHU6r572z7K6es3LnDY0JM19OkNmWEv7QlVGrFXzFJZM0JQxkv5TdSkpCsnXFKqgTu+Ag4rVD5zUbcmwS69Fw1yloULrQMT/aV8tj0w8oxRvldjL2keGELkTISUIeREqL0Lmx6iiXci9jszKHRPyq70AEv5zfRS1zV0R+OhBMfTXII5Pfjd1Y6ZFyrZySg1DWpDnNQZljn55HKvei/jcvQWW65fQxQl4BHdhKBrKvGkKyVovcVXO09aayT5OjzbxgJv/p0dFUAwmgr88VJbSQ6uQpTVGwxzJGBgNSoxHDEvSyiQ+hALg9M4UsO0kgvdIBXcnzSiNqK/cD7nvSmW3TTfpMNp8Ji9J2IRkDnISIDV01rO3YDml56uHa/3Brfq+2QJxw5Z0PS1+DrRTMz0weX5MTnXiuTPcy0lVEB687YGH/t99d92T+yGb97TLB8UCLXhdh3eSYDE4fhw/+95ffL1X47O+kfDZ+lJmsxoTrLKJdaN0LvwDafnBqttp0a/Mra26hWHrTVUcatDLs55AKaDFHI4tHFNtPMnwSJ2WunQEMAtedRBM/i9sPFMwrSW9HgoEEvargj6KoIsi6KMKeij8CKXXQeZ1UVBcVxhqzPf4MpuX/JRWVjUo6bMQrld8ZVkfXpLrVAjKFN36bexxD+FzH66wq3oD3foUHGfM2OC0JUpJwCBwFYBbqle240W9UqkzMwK9jnQ8diEKWaULP1oCChd56iAZ1RgOcmysj+VnPGL+MZIQo0sgY7iUXm1ZoyiVNDKh6je0EZtF5fa41rtWD5yBQTbizOGT1toEL/PcafNN6+FfiMNqwrWWdWoYn8Ia5b4JSK6LwNO2LLSuPRfuNeez6/uF11n49id+5VeeDbv9HVu73fD9ZYEWvN5f9+PCZ1NVwro6/POf7X7nyOE/CBxnwa9yCbdsv2w/ODMCWErzRCDkjFnayptOwxLKUr06GQw4IMpgYxTZqcxeFShGI6EvEwQE6DiQWkq6eG2maHdeXFcUFjRnIrwzkhYEeEhdjwWUUr+LPOoh83vIwj4qvwv4mq9ywPDndGDkHJ/kDAU8zfPwU8UF7exda7dmlitk211z8KK8lLRDMaFXcWyn9zwd5ZIz89wQrhdrTq0E8qySkOLRI2fB+Qc9tDSpUBUEsi58rwfPjZEX6heJN8Y7LPe/QFnl4nFzvwxLWo/aeteU7tL/z+e+zN+TydOcxNUlvo8aunVQ0gtj8bPnIjR0+Un+laUDUYzNcQIv7mKQpMcf/Mxn/2T1rrtSylc17XSJh21Xex9ZoAWv99HNuNCpUPGd6hgv/Oxnv16l6YMBpYmokFGmU6X0LXewPXiJGrpXCICwhQfzWZw5S28qjikyDmqYyM5my6pCXilrUNqNWG/Lzsy5rSE0cMDjuky6MyehHpeRapKwoSszYw3xMRTYQenTw+ojDxYFvMqYn7GGCl3WRMlZCUjSU/OdQhQylFVoJIUmLENtRGnDShPzNAHsAwBe9t6ox6zCviJbzJwnPRN6H4UN9XFtk1erQ7jxCqpxheGgwGAzxWCjlN+Hmxp2DPweKk40rDMt4ruN5qPiOZLuL3IYxrNW71p5+3OilnNF0fIMWs9sntbaeJ7nNR6neUe9xyz6lnoxo+Rh27eM80IJHp0+1gYDOFGEfn/hu/dzl+QKAAAgAElEQVR96tM/WtzbFjhfJ8PflqfZgtd1cPeY23ryr75zf56m/7BKsmAp7iAdjtGJAmSlqpmfv1w8HOYiR+AkMtgV9HqcyPS3ouSREiik8LdkL6xsooIhlO5KNfxq3xT/Gq9N2oKIVp0ZlIRa7qCs6Ql5KCqGCUlZ95GzhileQuYxLBhLWDCT8GAfhReLB1aRbNHs0izsQBXB1WaUnH8b78ro4amXqBRxCXlKsbP6j/MAJgSUK1iuredl6r8mFHSlpSuhxpYj6LNB72ymfs6ASFVqMbTjBEoKKV0k4xKjYYkkqfD2W2fFGysyMheZW4uAKkJtVPOFICmApgCm9WkEN63dmqjSTxT0NW+mUyNV/tew6tbL+dKSzWeduVNux0mXRgS4vuTEjEBwFMUiMZVmBTLqWYYBxlmGhcWVtaU9u//lPb/0mTNtLuwKXoBruGkLXtfQ+Bc9dFVh4+Rx/Owvv/O7cRjdS2ZVJwixeW4du5aXkSQjww7cGXiRTBCB4FUjZ8jNUYae5I4sMAho5agyflLySPXrOFhxPZFbYniGICKMsdK0pjdkD4bvCFQkXCBE5nRQBl24fgdluICS4OXHKIWAEQmQZaS5176AXUOqVYAKDlUqyHBUWrWep4LXRP3dAJcM2nNsQavYYcOH1zt42etolhgoSGkubdLva2IHzUlZOukknzlRMjEMxzpEXflw3A421nKcOjHE2dNjjIdk+cUSUmQBdJ6TTerCFXo+t1EAE0hpeu0zd9IA2IxU1dahbwte09rAqUKHXh9r1diU1IK06ept87OeL52c2TSz0+1jOB6BUijUSsyqEoXn/M1nf/Uf/Mew328VOi46IL2/VmjB6/11PyZnQ2/ryNNP7jrz5lt/mI+H/TgIxfMp8hz9fl8GDYbtNL0xOxvd6pK2U8iguKzsQVja2iKeuSgm2ytpgaK5Da3X0lYgcKhHpyKwJHjYlvd6DEuScFCw7bvjofA7yMMucq+PzF9AFS6gZg6LnpYApnYzloJgqmYYNiLp8Zy92/oghglJ/2+K8aoQrBmorYdm8m5KNddl8rlFAfSVPALX1POaDP4GxI2nqU0peX+EB6mXJ3kxVe+QMO5kwDctZcz9N3Ie+lF5cMOe0vwLH1niSEhxfW2Ec2eHEmb03QUUOcPXjogMOyCjT8kyTcZmvV1I8DxKvvWE58DMbD9tGWNycexqMDNBUY/T7pZrUaEjjCMpL+C6EfURiwI5e8JFrAnEmwce+dS/XL39rqz1wq7kbXhvt23B67219yUdjd7Wi9//2y94df3lfDxCJwqRJ1ov5YXa0I+J9CDUdiQ7By+G/HwjPsvhhgMZ6e4ZsixBVhaTmirGY0Syx5IfpJ6rQCghG1WtUFUK1tl4yFx6WT7GpK1HfVSdJVTRohAxcrcrHh5/clG6UJCh2oIAjdHlszT9+aaVU3+M3ANLodY8zqQ+zUYIRY1iukw8r0u6Exdf6VqDV1XlRqFfSxCsFypmEVq7zT8ZVqPIc5gQm8hnKbt0viZLAIHeeMEdkcNHUgbzZwFKUf7IkaUujr89wGhYYzwqDNmjJ+vUNUFsCmAKXs38lrZFsXmyqaVnwWvCZpzk2SyoGYK9zromm0uJRoMVa9cmE5YkDW2k6iNiKJHh8DjAuGTJR1BF/d6ffvxLXzkYLy5f/Ma3a1xzC7Tgdc1vwfQE6OEcf+6Z+JVnn/mDju/dVCRjRKxfarRx54tZCutPX3ItCN3+IkQVvdHh1ibydTIegIW+PinGdQ7kKapkhDJPxQNiryXS0Bn241ydaQ4XbCGSw60TFUlFBww+cr3UiTF2YuQkXYQLwhR0F3ZJbZaEArkvki4kkyYtLiSfxYGNIVHmydQTNCEgA5RaTGxljyxbzVyzUW3Qv+aZbebbhn0mHqgx2oV4mpfyaOwUvGonh0OqvBQe73CZU4ifghf3N+v5TI8wFceVZ+A8z2eWDWiLj887Q2GGMA/WwXgInD0zxsnjmxhusDs19QV7yggVb9Ck4twSFIQnE5EeNdU1KIfFfJvVwWz2y2zS8LfuRWYVPTR/1vS25lmlnGDZ0KpH8AoppOzDi0NhIwZhDCcIyUg89Jl/8Gv/T6vOscNn8j3crAWv99DY2x2KoJUNBnjh735w4Nypk7/V9QOnLhIsdruiAN/0FpjDkXlyA7wudAnz/bQ0V6TeDeV5SsopscdUmoLHdItCa7KoRsG8lsMCYaW1S9DQYQflHAEyAaDNvIvCX5A8lrIEl5GHi8jjZclpJcx3iaaggpWEr6SoVL0kBWIVaeV1SsPGSa2XreOdMgmlrqmhXm6J/JcCXDKkGyDjXmYGux0+B9cUvORGNuB3hjnZJKJYqqD1fKZoXnObbbeb7ZI9YyIJ1dHbDgBXQ4uj9QpnT2XYWM+xuVEhTRzJjVGPkbVjWlzMfKoWtFOEmIovDGWyb5kthpdeX6aea1p03Jyh2Wu2Rc9apTwzEZkriZiAl5nM0QvjcYqywq49u5GkuRKQvACDNNm8/f77/+SuTzxy1o/jHT4Z7WbvtgVa8Hq3LXyR/RO4Nt466rz005/+5ng8/ijrYuLQl5Bcno5FRVvGKBsdm6N2nyfQYI43GaQJdgzxmY7FpBNzUYXzHKgyFEWKXOSECGqGfWbEXifFrzJYWY9INRFHboyNaC8SFsKGC1pI7C0g93sCZKUfIeXAJNJGU69IQ4SaZyN4ab2Z+AHynQKYMsh8UwY0kZ8SMoY2xdRFpYW2A695T6vppX4gwGvm+doCsCYAZ0KDM96aUejgM9XInzV3qSlCLZ8Q15vhQH5aKrybKuiwZxl7lzk9VKmLtXMpzp0Z4cyZIcqCHha317Cj/uhzXTkMh5v8lWkDo8c3z6nSCXXZJsQw7z3POJONyIPKUClIEh6ln53nI81zLC0vS7kFJabixUWJCBQO/vyRr/3Kz+LlNox4jYfJLQ/fgte1vCtVhaPPPt09/tzBPy6dSgTYSJAIAk+KkaOY6tlafGrfW89Quy0U6KB//mIHbTtzlSS9oYyrjBNzFBx4xhLGKSsKM7FwkzNpDy5nwlUhxZ8ivWN6ZzFEqPmqCAO/i3TlFoyDJcDnd9QNjEjAFx1B5r5Uc7ABXBMQnioj8ZLUm5x+pyKvRiDKKCk1r9K22Tj/yg0F21CxJY+2xaAn12Skia7kEbjmnte2CiGNIX2mj1fTg6HbayWTrDSYzYFNrUJGn4KXBR0CD/UhS1RgU1OTfxLyBAkiIVD5KHN2kw5w6sQGjh9bx+YatfS7CLxFOIjF48qrERyXnrd6QqrwoaLEnEiRxTizzN3LrcK+W93yaTPT6fULr9JxReeTRI1urwcvjDBMM8pKkYnIIuejH/3CF/5kce/+CwTnr+QJarfdqQVa8Nqp5a5ku6oS8Dj0w8dvWzv65h92fd8Zs0Gk5yHqhtgYDMBWEGQUSnPCrcDLvEqlaxLUc6/W1OPQ15svKoGMx7U/ZVnAkQaJDgoKxUrLDzPJZV6iKhF4BDEPaR1gXHcxZlgw2oO6sxt5vIRx2EHOJoEgY1Brq6hsIWoX1rOS0KD+z7aJN8OdqQmjLFQz16KhRQ0pztJRmBPjjwCbeG+2VsjcEOtFND+3AvdtquMu97a+P8DLAvblnr1tl2Lo86KgoTmxSZ2eNevM/dEJjdSUUUHDKJ2Qlk+Pns+T0NelFoyqHh2USYDTJxK889Ym1s/R4+8hkHY0DB+yzosFzpofE+CCNp9kuHHbxYYKrVB0Y8WmD9pkI04mc2ZCZZvCcLLI949Hi3tdRL0+0jIXbcyg20lWbr/tf7/74U+tsellu7w/LNCC13t9H6hLePY0fvHdv/58XWaPdSkeyn5FritdjW3imj2Lml1wJ6rdNmdjPQcyx7ZwLiZhQ7aUoIqF6adle2rNX7bUbEndlOaCJKzi8ZyoDRcjD5aQBitIw91Iot0owhUpKmYbiknXW+MFqMIGZZ9Eo36iUj/trzVtgOkzrEOu4oR4orkwGT5NOFHYhiYwKBJWxhPbEry2u5+NcOs2ztiOnoRrC17zpIyt8kL2suxwPkvIOI+vYQBshsU6qaGadoCW/7saPrRtb1i24QWmUWdJqakSrhMbj60LlB3kaYz1cxlOHNvAmdMDOG4kOooCdx6lqUzzTdL02R1AJFm2CS9I2NFMXsz9nS85l0nbRFx62t3ARgOycYqFhQWZ0AWhP+k5x2e3z/Ch50kuLOovwl/o/ZsHPv/YwTYPtqNX5apv1ILXVTfphXd49uhh57nvP/6fxYF/j+fWyIsxsvFYKLx9FlFuDtCNuhI2lNnrZOGgrl7UpOdW47+2i/BkqDLjGMkYIuWUq8fV7KdFMVtb2Esvi9NpciVIrqBUU+L1MSB7sLOKorsHWWcJqd+TFiMpxXA5MIh6uOogzuedlGVmPSM9IUuHV2bc7KA0CQVOwlzbzbrnB7PtZ+fzRco8BwHCiUDslT0A1xy8jNLFLN3dhgC3uLaJPNOUoXchMG+CmCrETxch/VC/0OoElqU00uQz5lP9nU0jxXOieLDmulyGKatAqPbjJMSbh8cYDh0kSWYAzBI4tM6MwsDT52Qemjgx0udrMlmbywnb8LA9a/vIkawk986q5+fa1YDXRNm1rMjh+J6wEBFG8Fin6ABZhec//fWv/WnLRryy9+ZqbN2C19Ww4iXsgy/06z/98erRQ4f+8UIQxwJYEYVoCx33WYfieahy7ULIlucibGoAzOaEbBHwdNxXQJuClwkTmpeY8XwBr6IQkoXS5nUvImY7mbFq36eS9HknwshbwNDrw1m9A8NwEUmgMk6ZFbwlaLF1u2lFoYPELDuN4DXt0aWEARselGFI6sNsY0c1otQDSX8oA3ZC3pga2AoE67oEodkc10R2yKqLbzFpvxh4bTuYyyCpRdjNxZPvU3SrY9jrHMLn7qWq/CtGVT5VlXXDsHRk/Dc9sMR4VyJPZSYME8KFhvz0gbDMQhsStMw8ezz9Xp8jG8SV6cUsQJn+YbKuqRGzK2gtmBKCpNuxS+UKU29Gz8uEEB35jnFgo4bCPJZIUXVQF7tx/O0hjr9zGsNBpkQOmRgx7EiZMoIe6xltjaE2QJ2f6MyDl31m9DGSPi3y3EvtmoQbtbCb18DwfEwNSCnGz4XEwXPPGVZnSDwI4EUR3KAjn+OsOPnIVx/7F4v7b27zYJcw9r1bq7Tg9W5ZtrFfqmW8+KPH7zr7zjv/eZ/swaxA4DBM4iCRxocGgHRUlS2thzKJ0QuI6QtM74jAIWOUhNS0ZxK9HIIFXzz21SqLGlmiRayGuyXJ8brOhX5BoFAVdtKXScToYewsIAuXkPf3Iu/vEVLG2OugYDhHBhRV4dBBb/ru2hnuFGi2yMOYwX/G5GZ/Brqm/2pQnZvqIOexK7fKcW2RA2kecwac7HEmBc6Wyq/Xp6QRC1cKvk2HkaExklo8v0bHOYn+6Bd47OM+dhUvSD8v6oWYPQnJ36kMu84O4Fes+LENw9AC2EVyf+/B428OMZOFMrfbRzKuEcd7UW8GOPnOAGfPDbC2PkbCJpPhMvI0QOAswC09CUM6foHad5CzmJ5sVMYObCF6Q/SX90lD8MqSlQgDQ+yie2lB275u0w538/aQO89JmvEkgyjWNj+Vs3HHpz/9z/fe/eGkzYO9d09R80gteL3Ldidw/eTb//bRui6+0qF4aZqi64eoKRTK0ERg2sE35/Pz7Dh5ARW4WBjcHD0rl96UhjtETby0hIxSu+2a0Z5bq+fFYJ9qAwrUOSGSypcQYRmtoIh3I4tWMQ4WMQ57GIreIBPZGsL0beRovq7mXbbju7V7ApPm1HRwnWVGNvJxDaAWiSyzUHuCE4i0SBHXx3FL9Co+f1+FpeQp9J0zM16N2L1K9Du2EiEzT27SjbuIrLLTBdIFYOiJIPBgVOLE2ggnT6cI/N3IkwCxEyN0HaTFEDlrDANKidWIGhJgUy+24ZEa085MOCbe5jQysN0dEKKR7ZXmsLDaA/PRbIZZ+X7R3X/rn9z36BffbmWl3vtnuAWvd9HmycYanvjzf//NIssfXF1ewvG33sZyvwef+n1FgTCKRIKpGQKcxy3LlJoqIZh2IPa8HSV5cPZZlJmEQJjb0m7GNQLqBkp9yzRcJAAoM1EKqS5h6Pcw6PeQ9neh7O5C5nZQ1DESN8DI95B7rNXSWSoJFqJlKOruXEj0uI4XS0bYgnLe9Lq0usxoO8pvak+PTE3Jj9ToOcexWj2Pz96T4CbnNXSqkxoaNbV1Xp3BqdmcskLtdrXXmAgaX9cW3PHNZ6E9Q3L5mH0GSOyIRUMRdRfnNhwcfnsTJ07kCP0lIOUDniOKGKbMkJcV4qgr75EUvDdAilJlGrGYKunbkzxP43Ob2jG7fvPO2DAoC5wjhhGp0tFZQN3p/OuHvvbLL/LvdnnvLNCC17tk643jx/H09//m94Zra/fcvHcfNs6dRUiB0MjHeDjS2Rvll+Zm3tMEueYktLttIzxnlA30Ow0VSs4hrwxwaZNIfk/ZJwYGRTmQeQPJHzAhHsGtIpRlB66zgqS7jPWVRWwudDEKOkhFDoqqGA5STxrxGuHeGuzazJYn8z203iUzvvu73QK8JuNZgwjQPBHtvmy0PURj0pVcST84hd3lM/jcPTn21ofQrc5MgItgp+DFTgBkaHZQkyzAe3UDg1fth0JOCiS/6wMFm4yuoMAeDNIews7NeO75V3H22ClEbHNSjCV8KJOykhE91bRkJMF2OOCbIQxbhuZnlS2FqcrF+s7bCgabG07vzsqryT5NHk8UOqiVGPdFYi1YXPzug1/96o+oTt8u740FWvC6ynbmw33q5ZfD159++r90y3JvLwgxHm4iSRKs7F7FeDyES2+GyeA5gsPMqZhchcwqDdFCXjrTDFAo7Qx55ZkQMooMohPH11LS4wwnMt/iZIB0RQ7hFB041QpcLMOrloF6GS76GHcWcHopxrlegLXYQ0qMMyoWUpsqkUoNoU0lnNT7sA0gr7IZ37PdWa+3ydaczs7tpEGHOgWt2dAiBV/7XReb60OsRGvY7xzEFw8A/fQZ8bzUczZNPlkBJ+AFFB4VKW5s8GKJRc7An1chqEZGtzdGkiyiDD6E3sq9QO8WiRC8/crLePHpZ1AMhuiQUk9uB4FkMq+rUXvMx6qQmY2u2//bjge2i4IlDl0MvKznNY2AGA/c6o2WQHdxCeiy3tF57qEvffXP+mxy2S7vugVa8LqKJq6KAq///InFs2+/+V87WRnnw5EklLtxLIPYKEmQo9D2DIZYcR6AzVN9zSxSvSztYiugxUrOshBQ5JtaydvqwzOacKj5dhcyMDBMWBURnHIRXr0XIfYicPbBc5bg1DEGnovTEXC252Ft2cG4ByQupL7FF2aiZbHp7FaoyZMmjtd32HAevHSQmyeRaYdmXdd4XOa58T0gz1LJvaz4a9g8/Jf48gM+PnbLOjB8A76npdm8NzqQJsqWc6nS7kiN3w3recETJRap+602dZLlLmGUrMAJ70Vv/wNAsII8ISnGQTkc4rXnDuLIK6+hHinpie+XoJ6QMFTfkPatzQzERi2kQ7gQoXQCcqngZXNeTZFgW4vJiRxFfuG5zH/B6XTgdTpHHvj8l/6kv3f/VRxZ2l1tZYEWvK7Sc0HgOvz0U0tvv/bKP/HyIhivb+Km1VVUWS5NI0VHLQrJ8UNa5Oj0FzAYDKStibxMEzCYpyobPUHGSEy3rKpiPY2hwOekaasyt/7fFqGyDTx7bQVw+FMtwq9X4NX74Nd74GOPKMKzhUSBCgOnxFrXweldAdaXHZzrcJitENacFWsdDQfvzHWleFjYXFfYhfgqmf6KdqMEDdv5mYPb9PdpOt+C1yxw0dSBDzC3uSvuoVo/gjee/DN87LYEf/8Ly1jtnEPkDODy3tWUyVIvWoSIKYnEY7NI+wYlXJMEVFFySnKAAxSkxmMVlX87ot4D8JfvEV1Ex+PUoNA5RZrj1GuH8foLL+HsiZPoRDoBELuy+IMi0yQj0cY0LAHRvBkKXLZkwErJXNj4E7V7Ez6Ud9Woc4iwdVlKMT8V8lnXRiHrYKF/4sGvfeNfdKmJqA332uVdsEALXlfBqASuV5/40e7Dr77yX3X90PPKErHrQ1qauP6ErcT8Fvtx8XUZjBPRUiPJQqjb24AXGy9qF1mlw7MWhQQBghcbUwYOvTpqyumLKjF58Q8C+GxVkvrw3UWEWEXgrsLHKlAuAkVXjsmX3XO1zmc9LHFsycHJFRenlx0kYYWgKEUclz9UhU85yxS9Oa3p0oH3+hx9NRxqSg44i2Z41tBPrHCwDLDCRpzT2JNRjKCUYYGqEmfW8eYLP0e29gL6zhE89tllPPrIbsTlKbgYml5jFHtV6rbnFNpUs9xiv1fhmbw+dsFkqouKwBATnroYZrsQdD+M7tKDqP3doqGp70cpDN3QC4Tokp08hWOHD+PVF5+Dw3eIuWPeP5aB8F7y3ki9oLWECfkyr2YEsHSyd2nPblNiSp54AhdzYF4tfcLKUSZCA9Ro9OMO0Oueu+tTn/7nq3felZNa3y5X3wIteF2hTQlcB7//N3eefOftP+h2IhRJKnU/5ThFJ2JS2Vb/Tx9gCb2ZuiKGN6Rgkh1um323+C6SLeiZ2X5dIqf6e8ocl3a/daWRpC9hQ63dUpkptwpRswA07yHy98GvdsHHCjynD7fqaHNB2YbJ6Fo1DEsXiV/hxGKNY8sO3lkGRh0mxFmbRKKGNpxMWUhNEolJBrDc7Go3eLzCW3LJm28HXhrmU21G1wuFEUrdR45B0k26ZBiLEwYWtQ6x6JY4ffAQTr9xCBHWUOVHcdv+Eb7xpTvxkf0lvOoUEFBXMqdwnrBBY+Yj+Tcp8zfyIrYNRLUlcVZwdrQLt9/9JVTuzaic3oT9bidKbIGmEUG+IAWG77yDZ578Oc6dPIFOwCL/RJ7n2HdRFuw9R0aoSlYJoaNmXSM9M8NEZFRhh/bnKyDaonWJsPbgSTE1Q58evLgHp9/duO3hh/+3ffd+JG0BbIdGvsBmLXhdgU0FuB7/27vffvWV319eXESRsbVIjsV+X35XqrX1Tpi0bx5MS1+tsK6KkiqzSSb1JjzBbUQhgyKhRSEvpHSL5eySe6cGHH/jgajGXfIF6gpY+c5uyW8JSaNih1vpeyzbc57LQAtPiZmyqABSt8TZboXTi8CJXQ4GPUe+s+oQ8uKzmWRTJV6u79Jmr1dg6ndlUwEvWtoAsPW8puCl/Z48KozT86RH7XvgfKIqctRVgiCosfn2YZx98XnU66fR61As5Qw85zhu3jXGH/76g1iIzsENE1ROgvWkxEK/D39M5Q0d6G7cpQKyDPA7KP1VbFa7EK8+DCe6A2F8M9JMqwkmvtOED8+HLofHnG5GEANee/ppvPDUU+h4Drq+i3SwKaxYTiQJHFK4T+/N8+Ey+mGUNVjqcKXgRU86qPT9dktT5O5HcKKINPrB/Z9/9Fsrd9xJ9eF2uYoWaMFrh8YssgzP/O1379k8cez3eoEvkjKiR0gUcalskQoV3hIyLIhNE8aaQ8oNm28qZ6MARoovPxkaJGgRFDl4Nqm/AnYVG5kwXBECZRd10YOHFUTuHgkTuiVZhR3x7GQhYjosUiZ0caAl8AkMIkeFTb/ERqeWvNfmgotBWCP1K+mfJXNU0dKjkKqplb7ew4ZbgZeo1WtAKS+BMKZgK1DmObphADaPqTnDdwoU400ce/l55G+9irimMjkFjTNaEnV6BF99aAVffvR2eN4ZlN6QshHqyY5IpmFr6huzxmvyMGYJ4C9iiL0oow9h8ba/h9G4izBeQU7HVLDdtlxpyhwmAk4+J2uUVCtLnH3zCA49/YwIX/c8Hw4L9pMxXM+R0hTO8AhgCScezFeK9uKFPa8L5SO5D7IbuYjKh8lhajsXJoY9CbVHC/3R7Z/4xD+7+cDHRq0axw4H3C02a8FrB7akasZT3/urj6+dOvUbq50unJykDG1pEsch0jyTmR5j4JLQNTNGBTCd5zWbMVq5IvW61KuiNyP6ahIm1FYmHPREP44AKRz2Gh7fFIYOywWhwJOIQY+LoUK2nfDAui69SCnb5EsmAyZVHhxkzLlo6oHN95A7NZKgwqDjYLNfY2PBxWZUIfVVyJREDdX3U2WJiXbcDux4rTfZ2vOaDpYiPMwwqbGfjwo+8yplCq/K4TsZXjv0PAbvHEE/WUPHKTDOcunuEXYCCRf266P41cfuxYH7F1DiLDo9H9l4hEi8ClP5Pdf191rb5T09flmhdJawUd+EhT0PwV/+CPKyj6LS55w5LO1NQM1Dk3902XQnVxJRUqET94DxGDLDyAu8+sxTeO35FxCzxZDnShSEuWXxsz2yRk2I3uNDf2GFk0sh01AlVIgdRrJN7Cc61w6isCMNLheWltPVj93/z+546BObLYBdnSesBa/LtGORJXjyO99+cLQ5+OZKv4fNM2fQodwTSRWMq7MPlusKcNFbml+s52W/FzKAyT2Jx0X9UqnbskoZpWoZkt1n2FIa6NAGgR49p7IHt16G7+yFj73wSMqoutoZWRBLj6YK77bFhKldqtX7yz2JQMq/qZ6deDXWowKD3QHWujVGUY2CRTKVCpo2BYMv04Tvm9UvBF6qgefADTyMx2zK6SNmb7NsKPmqOhtg/fQ7OPzi0/DTDfSZZ6EdK+G8ofBZyD3EcrCBpc46fvubn8Te1Qp5dhK9EHA5aJYpEzJGRPd9Y5b37EQY+HacHgbFAtD5MPo3PYS0WEAYrSBLc4QhOzAroUkbpSp4AVSAV9DxnRhlVkpBvnTj4jtX5Dh9+DCee/JJjDbWJf9FVZiqJJmjEoIFAZHvGSeDF1ouBl4uSVLcm0wACWAaOeH3klfOS/R6fQyTFOHicnbbIw9/69YHHtJiv3a5Igu04HUZ5mOo8ODf/vW96fr67zIcwT8TwzsAACAASURBVEr/KNQZoqhZ1DUyhpNcV0IS4/HYvCjThoqkSzcXwRIDXkQOhgElTJhl8qnhQ+axtI6rktbJCl5u1YVLUoa7itBbFc+r5kBQ9YQeLwQD5sPlkFPgslJTBEWGZRiMT/kOS02XfrJP13pQYHM1wLmFCoMuMPatGrfSuxls3Hm6+zIM/y6tOk/YIOGFoSgtctV2MfSOOB6ynitAiaAYo+sW2DhzDIcPPYVicAxdlAgLeqSeFKBndY60yuB6OTp+Dq84hY/d1cc3vvJR9INz8Oo1eEGFKtmES6biDbpU6CCplzGudmPlpkfgdm9BWnQQhB0pvheukgg3uygcdjxQcV1hazLfVbvICBCVgzhimLBWhm8UiRe2QTLHEz9FsrmBMh0j5nuKGnmaaLidYcM5oeX5W3Eh8JKctikUZMSikPoyvkSMiDAiXMMxrc7DOMYoLxAtryR3fuqXvrX/vvuSlsRxZQ9+C16XaD8C13N/+917144f/92u44q4bpqN2SYc7ILMgS9knJ0zrwkgmV5XJj+knYFnW2qQgi5EDmGuKSGDNHi2SJkKghK8yPCjxBOTAJSD9UUlIyzuQIDd8NwYDiIhbNQMuTihsBErqXOZCsnayxV5Qpm5aouJwnFRuqzd0oRz7lbYDCqs9SusLdTYXPAwiGsJK5IdqWQU0+riitp6XOINeBdWuxTwYuhQOn+wuX1VIqrGyAancfLIqzj91ovo4DS6bF+fLaAsSIcpUXo5Kq+AFzsYjUZY7QeoN97ENx69F597cFnIHF44RFmN4Dk3bmfe3FnERr4P4eK9WNj9UZTVAmo3kli075SoGSp3Y+kvl5N0MSnNIjuWD4QLJ3SQMuWV5VIzGbkusjRVHUSG7TfX8coLL+DwoRdRDUfoBi6Jn8JIJHhkjCSc/3pMnrbtwMt+L1gqoUgW9ZfybvBvyqfxOjgmpGkuKQU2sVwfj9FZWk7ueeiR//WWBx4atgC28xe7Ba9LsB1Zhc9976/uPv32O7+/2u0h3RwK64zhoZxFkZ4rzfeoLygkDXoyaSqhQ6tBKKEPWz8siV6T5C0do0FIUkaKNBlpfotFzS51DbWtA3UJ+ePVXbjoCEHDLVfRde8B8sVJbyKt+dLZaE1PQGqybG5qerFaC8Zz0JmsJJ/pSZHdyHSa7yANHJzzEmwsuji35GK952AcsKi5RmBBt6bChpVN0v1Pcnh8j02+T/c/TbhfLBxzCbflqqwyM3A16oJUZZ7NFrUQmeGfyK0QFQMce+MgTrz2ImJnE359RqYSTr6EuiKbswS8ArmfoqBP63VRJWPs8gos+2fxn3z5QzhwXweD/HV0uxVciSxb+9keXPY7hob5u20uaYkL14+3NgsM0wJhhrxTZxfOlXdg/4c+A3i7kZfRRMszYI6VncXdCKQpMZQtzw8r7kQgWh+mlIX4MXuD0dkqEFBzkM9vmUsYkWxCDAd454038Mpzz2Jw4hR6oYfY9ZBx0hlY5ZSp/Jd9sCzJSu+BFrPPLjo5VZKWNuYkfHE84GSW/+M5dTodJOMMZV2h21/AKMsQdbvjez/7+W+1NPqdv8YteF3EdgSu1574yf7jLx36414YS1iCMXN2jI07PoqSKuF8rjnCqVc0M5WTJ78AW5dMg4e2St+FX3NfObJsLEnlSfJXk2HwpZbLQ10EcMoYbrmCELsQeXvhO7s0TEg17vllMmpsP61U78l6UQquDB+qh8hP5rkqbEQVTqw4OLccYL0HZCjRyVj7xXXoqak3ybg/t+WpywBTApGpyyEgUuA3M8xwhlWuNYDxrD0OOuwATEsI+89wWTRoqB5mxethKCjB6NQRvPH8TxDmawgxguuYkoiKupHqRdVugdIld9OF43XFK4jqEhHO4e7bcvzyY3dh1wpzpQO4Bd10jo1kpuXIqzHibgejzRzduI+aPaw4TXJGkq+hYLI8a0IOILhdW7ai9cLt8G4nQmIHwWA+DHyoWJcYIEv5GcGPFnFmLcDqh7+B1N8P1+OEjAX9KrQrdYyiwGFys82JjyE8cfd2Qmif8tlylEoiGZxo8l069fpreOnJpzA4dRp95rqqDH5QY5QM4UUhXC/AKM3k/Y78EMmIoUZfmYQSXTBqN+YZnwLzrPdmphjnvZL2TtnC+MJ1R5/6td/8n5Zvu4Vvyc5H8Rt0yxa8LnDjyfY78vOfrr721C/+ye7FRYczQQINlTH4kLM1Q+BbbTq+eJS6UfDSNhg6VxTdNRYRC4teZYHUI2O4SWdn7AdF2SeGHe1C74l5FPG4yp6ECYN6DwLshV+vwql7qEmRv4Kw3VSo1IJXLSBjXyXKJW0GJY4tA2d2eTjTd4U6HzFJTqKjSXhbz5LgxN8JTgztdJhzM94cSSHyf1rp/QJeltXpE7xUKU8IKaK44cApK6FchyzmTjfw0tM/hjM+CS89B68aSUNgCaDSMzYDnHb6LSVH47gdpKMcS70eqvwMYvcYPvvJVXzty7ch3XwNC+xLlY5Q1h6CjofKzZEVKUKPxcxsaUNPngCW0s+X7sJ6UEvaubbgZQdwMmEVudVJYe5HqeTmfpO5ydlNHaOsGN7uoghuReeWzyPzdylxQmodbfG8meWc7+zMvLHTRq5aZzUpOTHHJm5VbDtU5AhdD+XZNRz6xVN466VXEBEjkYi2onYV1/eW7zhzWQtxF0Wqhc7bgdfFhH0vhCuc+I3LevyxL335f7n14w+ML0YeuUExatvLbsFrG9MQuF798Q9XTx5+/b+JPMpv1shHiQAPZ2bUJwwCeTM0RCBdhnVAmSExTNqx80CUBdI5IrscE8DycWLaqOv/J4xAkYLiCx9KgTGp7wStyNkHH0twqKBBJQ0BzAsE7S/yxFvwsp5T5tUym+X38lPVGAYlTizUOLvs4tSSh3FE1iEFf2vxHO2su+m58TuGFmMDXhzE6H1Zz4te2XQue21eSwFo05KmIjuAAy7Lt+tKwJdM6pAOcz5G1ynw1ivP4/gbDBemCF3mVcZyy0VbsuYMnaMh6S8lKnpfcltiYXBHLu/jEGF9AisLm/jCo7fggY+wT9Vx9DpaP5ekCeJOhCRLEPpsW2+MJgZWrUqRPJIaBdr92npemjNUP8NlnQVRX+ZkDirfCG3Rsy0yRPybpBZnEWnexahYwspND6NeuBeZu2B6ISir1k7s9Drnno25R/1i4MWJgO+70sjSZTg+zVGPRnjrldfx4jNPoUo3EYcsh2DOuUYUhPKOlrnWFE+0QufeMQvaVwpeqeOhu7IyvuvBh7918/0fbZU4LmMoaMFrG2MdO3QwOvT0z/67juNHnHkTZNiPi0ymPEmRM3nva6PH5nJem/rGP4VCyxop0SfUjsdVRqUFfU1suGSS5yh9kXMiDT7AfgWuekUUNFjbVRENxMO7MvCyuSh6XEKHN54RB3A2nyRt/nS3wtlFB6dXXGyy8a2RtQoqyuLojJfXTnCSnJk5Kw7+3I+AF2fDxqWznpfNhV3GM3tVVxXgURRDZcgoWmfHIBYk3OdnI4xOv4lXn3sSIZtJlmPxhoLAEfq1Mj+Z+VLPmt4TW9HI9dYBPDdEmZPpxp5fQxTp21jsruP3/tGj2L20jsgbIQhDJJsDyZNKF7YyEyaieiuGYUq9PubRCBjvE/Cith/t5UuthX2UHXAyIBMCPglFDp+xVz6z9SKScheq4EPo3/wgqmAPCockDZP3a3hegl3zjuU24OWZB6vpecnkgWzaskBAMlKew+GkM4yBUYJ3Xj6Eg888iXS0gdgLEFFoYDgWGhLfcys6oCDdeOz4zJg/rxS81tMUnaUlXv/6F3/7P/2fY4r5tsslWaAFry3MtPbOW86zf/f9/xZFucIcVxwGJkhTS0U+QSgKGL9nTZfVpuPgZxLuFNO1zCjTtZhECplAV+y8W8iLURSZUH5VhcPXgUoqhlknQk+ug8BZQVBTUJdK8Cw87orM0/Sl3jlw8XwYHuMpErgsuHAAILgQeMjMIsNwPSpxplcLeK0tONiMHfmemocKcgpQHMO4HwKY7N+EB62XpYr06tXZkrNrF/jS2gDN/dF7LqYMT7ZGrAv4WYJqcAqHn/kJysEZyXuR1cbCUwKOdESU69SWJ9xPxWZTTorSrVGKZmWEwOvKIF5nG+iEZJOexAMHlvD1x25H5J6CUyfoRQEq5oSYa+O2eSJK5apGz3AhjZmqeLC0WLm2vquEin2t/RPwsvW+JC/R0yJgSA+4Ai6LhN0u0ryP3L0d3X2/BLdzK0qyCY1YrvW45D0xJSUXUx6zntd24MU0NN8Q9s9jrVeXMULeh5Tdr12ceOUVvPzcs1g/fQpdNxAhaq7ney4yak8SkxvhT3nbarJKr3yR7uRRKK2HsiRH1O0d+8w3/+H/0d/d9gO7FOu24DVnpWRtDU/8xbf/MHC82+ucyVtXwggM2TCxT9knFqyyR1eaUAxXwYuzdgkZyexY2XsSdDDgJcOaCF9r8bF4XWUKny84wYtgVYZCdae35dXMcS0i9veI5+VhSeq3SIO3dVoNicFLuddbrkPw4ktUGNDheXOSTOAiIBG8CDgjr8bZuMSZBUj48GyfQr5TIBL2l2kCyKJnKdq0jMq5XISC5rUHL+nVZHUkmVfiIAtH2GocnHyqlW+ew4k3nseZNw5iMWAfMxIxanidRWyOhvADLRbn/eM21Eek10Xvq3ZK5GSjOTFcpyOhqFCkVQZY6JLefQSf/8xefOVLd2E8OIwImQi8IqvgSEi6kKJXUfmwqvZOqoHpUp8DCTNfo4XPCgk9Mtlh2FBcHVEzVs9L5galcktEw3AJSbEbdfcedG5+FFnZn6j6Ty/BhEtt37SLXN6FwoY8nUzbLRvpJqqjFFLrxbpMocs7Ls4dOYqXn30WJ988ih5c9MIApahy5OL92qiBPcerBWB8ZfjepRl1Gj3xCJ04euXTv/4b/1d/9+5rdFevn8O24NW4V5R9+o9/+q9/eyGMD+Rj9bjIAGTc3KpmcHCj90UWIgkVrK9ScgYHrQuAl6HyFtKHi6EmJXIoVZ2DXwCUMRxqE1a7ENW7ReaJnheqWLwtww2cKay80hngPHgxXCaelLDrdBAnSGZOjU2/wLlejbMLHk6v+NiMldzBheBFQBK9ROPFWcq8zKS3GISurd+g7VAmp0UiDUWI3FoGN7fI4WUDnHnzFZx6/XmExQBhzckGc1MZoqVVbAwH8I3qP++fghfvKz2vHJVTmBIEH1WhBbH9Thfj0QYiv4SL01jqreM3vvkgbts/RpUcQ586k0LbdIWjX9cZaslDqqEdqksIA7IxO7hG4414XibkyjZA4gkygiCFcYw00ENkKQnZsswlLgPx3QiWD6BeuA+jMoY307ZEL0QJTZcWUZiClyk9seFHQ61nGd36cISoE2sNWJFLgTKZwxUFr8djsICYLVYOPf0LnHzjCGoWOnsuwsBFbloWWQ3DeVbgvGLO5dwKvvlCq/c91BklpjxwOhwsLDz+md/6ne+F3e7l7O6GW7cFL3PLs2SEp/7iO593kvyxilIuQqHOVe6FmXtRWmDsXnoVg0XL1C0rpGiYS9PzatQzkebOOH5RaqgwH6OqWbToaHfYghSBEA5rXMounGIXgmo3YudWBO4eOAWJGSYiI2EjnUVKnsqo1l/JU9sEL6m3JCAbtp1cla1jQY0hCtE5ZNjw7HKAtb6DzZB0eqXFW/KHbGcGj+3ObRJWvXaOgxlkJ3dPSCiBUyOoMzjpAG6yhpef/CEwPiuiuwHINi0RxDE2khxxt4eyJFWeTDeG8ZjTNMLHToraKWRgGrE9TrwogxPrfTrdCMPBGhZ7DkLnLBZ75/B7/+gh7FsaI11/B132g8r4bJRwI4bfav1xqCwxrQ+U4f1quN87fIAkF0RFEgKQjRmachHtVMwS7wJgT65qCZvZAjqrDyLYcwCjog8EPbCCxPZQmz2N2S4LW52iKKEYYWPLNJSOyVYBjX2rWfsVU5WSylGFtEchGUZkztirjnWZZBcS2E6fwqGnnsaJo4fhVYX0CRP1LpYoiLF1otnMa18JeOn7pRGdXm8BmxsDhN0eMs/F8k03/5+f+NVfe6PVQdz+4WzBi49kVeEXf/Hv7x2vr/9uhzO3LNNQiIjVsuxwSjSQ6KAFDRGoNQoJJt+lTSOndVx8uAl6IrBbMeSjiu7av4SY2EOVsf9WjAAriLEPAfbBK/fCLfszmWIOYAxFCRgqPeCKY+/NnBfP24KXfVVLoX2DJdESGh05Jc5FJdYWPKyv+DjdrzH09WxCCcUw2lUqvZgzShnc9AGc1rnMFitfw8iXCAwLS5tOAtmR7OqeDeEOz+D1536KYv04gopJfHo8GmRkVmqilMKmkvJMkE1IJRT1Jx2HYUOG/fT5YfJEC5/N/2UvJaKgwHjjdXzxc/vxxc/ejK5zArE/Vkq86OY50jaHhc8CXqb1BpmeYjeTS90h/lz5Zjw+1WG8VGsUpZjeE69dKt5ZK1h1UAW3IqlvwuJtnwOCVayNyaxc1Prryyn1aEx2ZIK0BXjJ+9cAsGZxvPzPXLWtSpGmoPS0GandGOD5p36Oo4cOoUuPMRmhw7xjpaF+aa8iWovahHKS59uBJWUcMQ8/afpaM6lNXwvXxS333vvPPvrlr59uVTi2Nm4LXgCe+9539587ffKPnbRAVNVSmFjmGiospUB0WgxpzTgdcKcD0ryJCTJVrg896cIU7ZUwicsQC0d5hgr7cMsFOPUCAuyS/ltSw1UuwinC6cTatF+YAIFVp9/BS9PcxAbO+EIqkUILc6d1WzpaiKKGaHmXGHgV1vsezi27OLkCrEcqRitlBMYDk5wWPURDCLGemGVu2dnrtS5W5pmLWjnDpZwJpyMseBmOPv9TjE68gaAcwK+pSK7LFIB0Rq45TobxtMaPA7eCSinFymQHKiNNc0CzC0kZKVYWHATlMXz1i3fi4QPcxzFEBNSiROUEpmaKDEbNL0nYUJ4f0w/scgb/K3xezttcGBElCn8seS5KmFEsWnJgovLCZtG7sJ7vw8pNn0LduRu524fjaz85r9Rw+CUv8+AlaTbb8FWBcL7e60L7Lkg2CfiCa0Fz5NYoRmMcPvgCXn3+OXSIfMkIAfVKPQ95yfGgkmvle00RgZ0uMkGmZojknV0lOhkAo00K1y3ufeTT/+Ndn/5MstNjfJC3u7HBq6pw4sjrwdOP/83/sLq4HIw3B1gIYqnnYmhBZJroPQgRwYYOpo+Djkk60mvyXEV0hTVltAlT1nEx7i9q7Jq8lvWY9meOK18WsKJaRuisSiEyqfC1aBSSPNB8sUUPYzJ3lPTKpaUGtn2GLXhZ4gI9L2mAaRUxOIjWBC/WdGkNTupVGEYOzvaBE3tdnOsACV96FvLW6qWJZmOpTEZb42VnwLZ4lSd1TcGLngzhhQLIQYQ6zyU8uP7O63j7xZ/BS9fQ9ZiFkGF24nEpyJPcYcBLwIPsUAUvpTAaRRWp+7LKDDryTvMnWtdEEkjfq7DS28Rv/cbd2Lu6Dg/nAIJmHWkNlMmn6sBswnTyAGhx7zVb+KC4JYogQylxYx9e4RrwClA5EZJ6FWl4D1bu+BzG+TKK2kcnLFBUiZZ9SH3cJV7BRcFL99Psm7fdnu1EigDGMH5Fqam6Qug7yNc28MYLz+OtF19CurGOnuuJCDdbHzkM+UchxilzoDu3vWX18vwsS1e7rKsx6N27cbT2iV/++99avvX2SzTQjbPaDQ1eg9Mn8ZPvfPuPlrrd26hzxs6D1DOIg1BmYQwLMB6tDxJ7Cs3Ve6j6nanRUuAS5feKhA724SqRpUPzMokOw6SVCYtSnaILv96PECRn7ILnLErei7NXAUCRyJGqT3MMoRJc5adzOhpIWcx24CUeFZlzOpSTfXiuW+L0Lg/riy4GLJ2Rvks1AscTWSgCtgUv23RTbbk1E/EqX9hFdyesPXozMrGoETL0OzyHQ0/+EM7oFMJyCN9Rck3JSclE1YIsTPaU0lm4goctUm/OxLV0QnM6WjMg1jbPkoB3wPquEZajJcl/3Xn7Br756x+FUx9B6Kcml6YUfGkiaogl03iVPe5FL/fdWUEe/xpFQAk0Xh09Lxde4aMuI5TuMjaKZey68wuowtuQlD2UnOC4BC6qZBrwErtcwik2c6S2hrnRD60ZEbFhwWZYuhlOtOCV5gX8yJf8FsGJjliH7RaSMQ498SSOvfEa0vVN9NmBuSxkMuqaInK+6ztdLHgJa7MhrWYndSS+uGGE0vcPPvo7v/dvwn5/p4f6QG53w4JXkST42b/7t1/pBt6jm+fOavFxmkmRKJO6zFOxCJmMJLuoB6aDr03guvSmxAOy8jae1G+RVchPVNrTS4CrZj4ggltFQEWCxiK63u3w6mW4dZ+wKUWtVsyXNOhJMptsQwLeHAvrEklZF3h4zwcvCzBatKybMhxoc308JouU2XWZqvMbK74A2LoPpAK4DmKCoPG8ZD+GQDc/oFzLfJfUZJUZulRYGA0R1CmOHnwa68ePiHp85JFRqk0Mp+Bl1UdUFmwmJGgUVuaNbZQfzxN2FQ+Mrnjlok4CrPQc5MlL+PznbsLnPrsbgXsaPsk9BEoBLbkzBghtV3lT3H6thqeKNmDTzlq8dSk1YAF16aOs+0iqPXD6d6F30ycxLnuiGs+0sFeNEfgs2I8muVC5hPMAbFL5rFc4B176PGle1j631hT22dJ1DFuzkQvjtxQbcNj0ciLZpnkoqfViz7WiwBvPPYvXD76IcjxEx/NQFomAmG02u1PTa/5cT5zAr7qgJkPKcyb5xPOwMRojXFx5/Gt/9I+/1xI4pta+McGrqvDcX/2HuzdOnfv9bHMDe1d3idwTabQEMbaxoNelMenZt2kqWmuEoAx4SUK+8kRihurwfMBLCn9OEsqR1HEJCaPsw6uX4NfLiN2b4dSLKkpaMTSlwqQsUpXeQCWLmHV2zQd9/t3WMOLOl6ZCgM152b3Jteo7pEzCxjjCEOHYLTH0cwyWfZxaDXCmA4yoBl7X6JRKuW8K8k5Dk1Mg3Pm8defXbLcUUKkzRCjQrXMce+UFvPXyc+h57JicKnAZtNXBcZpPkV7SMhDqoChhZbPj5rpWwsmsNXPSWgKoDDYULJMYox8m8PE2fue3H8JtNxUInDMIMNbVbHsbk+dRpY2r7Ylfnl0lZyhLqN0EaAUJL3eQYRlJfQuW7/gUUuxGHSwjL1XwODaC0Cqu1lguA7ykjEMeKrW9nVjOX4GCmNrJdjBvrsPIH1mkfG7ZF4yrF2kpqhwemcajAQ6/eBAvP/M08s0BeoEnuSpqJmoR284XvtPT50aZm1zsXlkb6noh/LiHNHD/1Vf+iz96dedH+2BtecOBF938N595auHIM8/+9/8/e28aZdl1XoftO9/7hpq6esRAEAMBgiBBEiYpUOIkiqRIiaSWKFGkLTnLkuisZVKRLCVLHpL8yGAvJ5Gy5KXkR+I/dmLLlmXNQyxSFEgQAImpiZFgA2gAjZ67usY33Tlrf985792qLqAbVQ10V7ceF1Y3q+tN955z9jfsb++2SMK4GPRWJeqJWgnWGF0liQwU04uHpcTmwWPVI3Qes4LPQUfu14olxhpFRjPJDFWdSp/CIxtNNOhCAS1aZ3j1HCJntzge++W8ZGGyAWUTaomwknmZCWAoZVeM6eWHyllb3wPbytIkeNmoVfspRknd7CipCol+nzDJ5XeJpfz+Mq7r5uK0/PIuD4szPnqRI72vJJ8cFGOnZquZaBQ5+HnPR6nfyne60OeoqnyJqr+MYLiIw48+APQWkHjKJBtmQyDQnqfhGI4JE8ZQRsBDD02yASeHj5mQW0cgGMOMARz7PIe8nawEJ8W8Eoi9Ht58XYYPf+AADuxZkXKigJdEE4EemHIiX0roN6BhAZT9W/lePNDJzUwwcnbB77wT8e63oZdFcKO2BHShEyAimaPQjHwdkWWMBRu/m7l6jcxLdoohr1hJMv65kRjTVJpvlg25TlhlYdm4KCo1lXVJxFDPuihy0Vvro9tJUPXWcOjx7+LoM4fgUtLJqUUmjv2v7VQ/bD6ta9aIeJsFLAQoqdg4GA5zzOzbh/133P4vrr3zXXS8vdBlfsX+3lUFXgSu5aNHnGe/8+1fwyBtRyLAyWwrkPJB7alIkECI44slQhKEE9kfk4nYIVwFLyUp0PQxz0rkaYFSSoWlZF0yVEobC1pm5NNwit0I6z2IPJaFdqEYhaLS4ZCZZnYZx2RLRmSN/SsbVesMxgZDF2+TwLGVVWrBa1LO09PDstpklszsEwteJJhJ6ZR0YVRYCnIcmXGwuMtHr+MhZabGCNvoHVoFj2bmZRU5LhZ4NQOMib8YgVhPu/UWoJI3Cf3dL4ZwR0t46cmHka+cQpD2Ebns6qlAr1i7yxyThgpCAbexsdEXVDLPBYLXOFMi6FUoqhRByFfOUaQ1Wv4MUKwh8U7hPe+exoc/wEDnlMhSyT0iq1GyPaWoT4ghGw57W8K0h32jL7R+ndhDsPH8jb/bGPy1h7+KUatUColFwoyV68G+Z4TMnUXq7MH0mz6EftpG0JpDj4LDgYPYCeFkVJUhE3H74GUVbfh5zgdeG/eIqJ54vhAv2CGouW59dR8dZgWixEc66KMTBUCW4/DBgzj85JMAzwYqn9TaFti4ju1V3QiWG9+fK4vPlXVlafNWfJm/zImaokIctTCqKmRhcOIDP/3T/1dr7m8UOK4q8BqtruKxr/5/X6yGo7fQPahMM53+t3NItm4+OZ7U2K7QkgKNJjm0TCKGAJzrqpjnaIQRbS1k9XO4khGdOeLYFykCeMUMgmoPQlyPkFlX1VFVeIcFCKEYrVvXolLQ+NGkOLH+9y6sy/3qsCblno0v+wqqGPZa6XMIXhDljZNd4CwNK6ddDEJmXzJkIAQYPsYlHXMQ2oFekdXaxoPXiZ+DPQr7JXg9tUelMzfczgAAIABJREFUl5UN+IDzelRUKEt4foSSygZphl1eD88/8SAWTrys/aUik/krlowYhIiyuclw1hW4GiA0YRNuni1s/hU1d9aMWwpVRmmF0mAFQqwicE/gM5+6GW+9OUDkLsIt+3DB8jMXJTUPGVmMUDu027GGlXxJ47otUYZ9H5OpSXo9ofxPeqj671K2umDwIgDrMc2rTfV8z+mgcudwZrmL/bd+EAj2I3XawqaTIXgGDKUv//GjsKd67gjBhS+IZlY17nttePqrF/aUZm9nzexOtKMiUjLnPcpJo3eJaDj83YN47skn4Y5GCCncHDgS6KRlATfwxcYGBccgCpGSG4+HSFRoelryx8QI0waM54CrtVDi7BcD6zBAr9978Cd+5R/9xdU+/3XVgBflnB75iz99d39x8dNTQYis38NUu4Nhzoj51TaLOqIqDV41Dq2SPKM1ZnN5miIXPy7tQch2JgWa9OqCvR9KPu1BUO1DVB+Ah1m4Iq6rw67bKTtc+DZ/PX5TYTf1ayzFpVDnl6Z99Oi47FfIqU5ChqKgiAGxMVvSXvTtgZf9VvS1tg/OylTSJ9R3JcA6JZl7FXw/FHdk9uJjN0P/pcexcOT76PVWEQa+qCo4PJBYAqS23TmeHBf/OipgcKZL58VURSOXcuFsZwGf+8w7sHd+gFY0kOifib0XTIn+nuvx/1COSu1SNA0wcmOiSG/By1D3peRIwFDfOUnm5Un6fNtzWR9JNdfoBHQlUHNC5HmGMBJuAxx3HoN0DmFyO5Ldt6P0Z5C7IQqXGZmOJih4mVx5kzLfxb/Cr76/BUaMMsdG8NKgSz3dWKnhvSmXlvHsE0/KLFiHqiu8DxTv9h0M+feaw+6RDuvbdc/vacDLzqFJWGRlv8w2OCfQobIPKwCsc/iu/N31PcTtmX/zgS/83atageOqAa+XDj7cPfbss7/Kzc9FyHyn3+shiluvAF5mNmcdcPEwpgbZ5OAltZZzQiw3KKdQCQviDFXTCiMRL64Q+xFityjEyxyXlAVZ+pG28xu7Xy/au6l6RuGTqKHKG4tTHnr8j+QNEW3VXUkKvmK6LeBdHPBqlgMnkfe4aCOZc8kRCAIXPZ2ohM8sIctFJf6lJ+5HvnZayooRtQSpO1lRVZwalgpem5ckLXtte30nyV1lhovlJ14vDX6YSAXoo86P4c47pvDxH7kJHk5hpuugHAzguW0pJzkELak5KfuwZqm64U6gYYNS9SVbFj1HKYDK74tWi61PN7znJKBal13aRWPAy9xL7iQaqQZs6SJCWe5CVu3F9L67gXAvSidGzqF/Y5ND6xjxSrM2OpcYvM6nSs8tSpNYWTtU4eBMIAOgM4t47snH8dL3n4ZnMnRN0nW92MpL0zKpGaTyPo8rPoZOYroC63ZnwfemxipZnQQvtjdcB0Erym59zwf/t/233ZFfrRnYVQFeqyeP4/Fv3PNLVZbNsYQkUjDUOPN85NYB9pwDfQJednEws/LYc2Jkz4wrz5CmQxURZRnE5cHD7EtFSqU0mBsvLuyDDx1AdgwdXpa5aMHtTPCSr81D0dfZrxUvx3IH6M0GojrfCzSbYApkwcuWSiaN6q1nXtq50tkpxvR6GExKsMKe9BykaY4wDCQDK4Z9TMU+8t4yXnzmIAanj8ApB3I4UQ6MPVAe9tSdJGtn0hbX9TDpp10M8DLQKJkX31cHmoWEwEO+LtCOc6A8jrvv3o2733sNnOI42i0H6UofUZQI0Gpiq9exmTlJv8XIlYk6h5kz1ABCh9HVpbkJwGbdE+DM4P06BQxbYx6fxL4QeNKK5IUp9Icz6M7eAX/6DsCdRkHyBt9PgjTKh6n2oLBXDUFpO2XD7cRhsm4MG9jKbtnX41WQcp8H5NRApLtEXUng0AqopuKiWlrEYw9+GwsnjqHgz/1QAiNhNpn2gmUj2oxqktlt7MLqO5uPM/5aHIbuDwcgRb6kSWrMykGFtRHFhruHP/QzP/v/tGbmtnMZduxzr3jwolL8t//oD37YL6sPOGWJ0PekxMcHGWV2b0/u4PpIWme4TMmL7sGmfEiR3TQbSlQm4rV1yPFMOYDEhUHKP3MIq+vg1ftE+skxA5kT3yJrNLiDwYulQZa7Suoe5lhp1Vid9rAw42M5rpBqdaqhpDEhmlhg2+ru0SNYyRXscbFcKAeAlIEmGpNCN5bDh1YvKfy8h8Wjh/DyoSfEhkTVMsgY5b1jYEOSCg/ZSSlycqiZzz8u92wn82qAl3wXZnocfuaHUb8uKqC79SLm5lbxk5+5E3vm+whwFi1WRfOMGuQmf7Kfy/b+NNvSUqKhyqxz+p6AFzO/SbnKvM4YUTZUBkQNY0LRF4WQKEFe5ejnCRDcgJl9dwHYh8LrSI9YSm8MHUSBxBzSpremwcAkRNjqWtjK85TgYXpQVrPUMkEteFHqlPVQDgMEnlxtl72tnNcWyFaX8Oh938LS0ePokJ2cpqhpvhkxWzKUW8OKlLVZqwzUpAJhrof5AhvBi5kXy4T8lASyM4tn0Z2egut5GHGUJ2r/yUf/7s8/ejVmX1c2eFUVnrnvm7vWTp3+Sj0YyeAwy0hxHGNUqFyYy8HhdSt//WFEOLKpv+19semfpqmoxHu+/rvDSJnAVtZwSkbNJGjsReTcAKdkqZDT8VpyYazMcouA4nbOvq3s2Iv4HMm8pK9FUFB5KKrOL7VqnJn1pQc2iBzknmYTYrFiqeVjrb+Lk3k1wUsCEwEelnABP/CRphVCp8SMX2HxyCGcePYg6sESXOpNmlEAziyxhMbsWvBjEyfEi5l5KUPNEB6MkSUBzKqXM+yvKMTrZEjCJezfO8SPf+IWzHZWMdUqkK0tIPQSo77CA85cS4m4mPWyHGl+JpmSAQo5oNmT5b1TZ+YmeMn3XjdwvSG4as6WlS6cIELuxlgeRZjb/x54nZtRlXMoXY6AZMbXTcFrXOgQgkkxdoS+iMvygl+qCV78hnZ9TgIVjoPUssdLo8KSkJHMaCjjkDK/U4nV48fxzHcexenDh9H1PJGWy8oUYRyIpYqeMwakzgNeG0uHBK5+vy+WLjwqpIRYVxhlKSrXReGEeNtdd/3GTT/wQ70L/uJXyC9e0eDFcuETX7/nV/2i7IqXD316ktBQoCtktAcXn6zNbBkUVSQiH29mRueVcUEupHToiCQ5o2MeQx7c0oNTdhBV1yCo98OvrwOqrr6DSD5RbZxRfaC6hFs/uy/5EpTDV2T3KoQmQx15Jc6GBRZmPCzPeFhsOWJaKddYNBL171YuaptkQ3UuNuy5Ztlwokxiovq6RFjlqFdO4tRzj2Nw8nm0/Up6Xywt6ucrhVHKUuRG2R87DH7RwUtSEc53URGSh5ySL+zMnxd2NehCD151Eu++o4WPf+QmBPUxtIOhZPpjHy3pdclMhajZsw8mig0iS0VyhindjRmfBkDsShLSgrEieYXh58k1NsSQOkTlJBjWbdTJNejsfw/Kaha1OyPjHgQoHeg2CjSWeSqixebnlzDzYtlQ8lKW+Y3ocRO82GviKAPvUlYwuGE/SwetI9/DcNATY9qFZ57H977zoMyDhRx8KIbyPGaker7YPaDZ9lhcYMMGGJcXzbngBbp5UmbZzLbIcIwj6bNH7TYq10M/K5bv/uSP/dbcDTde8jPhjfwAVyx4Uf7pa//vv/nCVJzcGpS1LCgeSNQwW+YC68bavM4t42pjCrQ5eBV5LlkXX4uzYNY0z0Om2VeZwCvnEFU3IHSvg1fuEpFdyQPkQNFB5Nqw4XYyXcOiO1lVQe2IqzCdg5edFGe7LlZ2BTjTddCj6rzZvXRovpjgNW69bDLHxOtMYBr2+pjrxPDzAV587DtYPf4sOhjCyQeyBghYvJ8yDsGDn0r4vL+NQdDXB7wIvFrS82jMyHkp4wvH4W9RGHdj8QObakfwqmXMRAv44Pv34x23xmhHy3CqNS2RVgQH1c6Uc8+zzMGJdFJTIcQeMnQ4aGZa2ifTPTGhzNu9YbmXZtWyDOi2UNUdLPRj7LnpB4D2mzFKIziB0eFjUGfNM02sJuQNV1m+yvK7dGXDsaUKe3Em+xpjOclIzLiIwZz9kkBWxbBlRq3KEfqBGFrGXoDeSy/hka//NdKVZcxMtdDvr8IP2YudXL+JTJUlMK2PXjeCl5QNWcJmeYC3RGr0rgTQ/FleVnCiCFUYPfiRz/+dv7ia9A+vSPCiUeTBv/yL24bLKz8Ti5qDmvgROOyAMe3LZY+TPEHutIm6BVxYBmywDAXkSpazU2Rp0SgnmfILX1uU4yOE1S6E9X5E9Q0I6nlRjhf3CkZ4JsquWDqzkZUyl3fsQw85KzirQ7ypX2E5Bs60K5zdHWKZ3opU5aBiN/tPriuZF/+/pRJv5QJI2dKQMrQ3VFPcAQWp8OzFkEBDxYRhD7MhsHzsORx54hH42Qo6QQ23TDctDa77LAYdJ8wwe9DaP7de9xWxZ1Hi5zhFqHYqekSi8jKIl5pLG44KgRuj5RUoB8dwy3U+PvaR67F/NweXj4sGo6pGE7x0REDrpVpKHM/SWesQqwrDNzMWHDYrGycC4sXFfUEqvpjFmNTBk70g9A8yHssIaT2DsPtWeLNvAfzdGNURagkI1InAsiflm0mpWfchH0Lg2MrNv0jPmTgxT6S/DMdo3XyWVBk2+aBllqMdBSgHQwRViZPfewbfe+RhhOyFFypWwPegGg2vteeZ84YkEFdJRutZiOf/Yk2WIrNsBjmZ6+O6W2/9l7d/6EeWrpb+15UHXlWFhcPPOU88eP+vt5wgcvMcAct7RpBT7DlUC9UMTXIzqoKCHUi14KWHn85yUfaJ0Q7L3eMHD2KHIrt8QbakWS7ch6C+Bn61D141JWeIwKaUgvSAoXeUPfJE9un86/Wy/A3LGuP3yoyNMpUzeFgOA2AxqXBizsNS18EopLEnzRQvJnjRZdh0cmjvTjUT3i+ja+KRol1kmEk8rB57HicOPYZqdQFhOTAuudqv47CvDOvaRWL/NFe9ebjYsuGEZLB18NLD3ARRlSFoWMKAHPCFJlTixO0jQIlQ/MXO4u23tfGjH7sV7ego3OosfN8THyo/agmiF2kOP2lJeUrfQ8uH0uMSNqx+uVoO0En2Yx2QlcmkQZ3QMG026rHM7qMqmRUmyIo2wtab4XXfBsTXonA7yPnvXiX7JqzZ/7UahCqjJeBlhKzNzPQlW98ywyXlQsseNfuxIeCrvckJyDTl1Ijrw0GKdkCCVg2sreK5xx7DoUcfxVQcouDcV8Bt7wrFnWU/33ExFbcw7JNFOBFJ4EW40DL6GMB4jVsJVtIMVegvf+gnv/Bbnfk9l+x6vpFvfMWBF8uF3/r93/1s7PnvrFkfltheSxcqnqpadNIeMIOJsmgMeJFarJR4TdFJfqfCfJbRAj4XRiEPSEriaGQZS7nQrVrihBzgWvj1XrjlNKrKkel87T2w5OLLG8tRYhBLNQvfyFt+8d7L9rAYRQ+FVVgjYivD0TLhalzheKfG0rSLfstDJtPCmqUV9E8y4qxb/USqZq5nrEeWIPs/lPwScz+jdJAP0HZzPP/YA1g6cgjTPu9ZNi4NyqC5ZCRKprGkms0YcNuDqVf6lvq+4rAtaMKTjow0Vw95jOCHPurCQTXK0I1D1KNFRP4KPvAD1+L975uCV51A4Kai0ygMRJ6WDKp4L6jwIEudxAyCFtmMxshyI3iNhZ95cpueGT8bSUlVJcPdnhvDcSNUpYusTtBL25jd/Q543bcDzjRSJ5Z7S+dnCW5IXlJinlLjXWaUxMLYlA0vj+Bto9tB826NgcLs2eZ25d0b8b60Q9GnFJxfWsKj99yDpRMnEBqllowlxiTUXmpeouX7yFn6Y8+8AYzn2wsbz4og8LA2HKEOfMRTUzizvHbwc7/0D//4atA+vKLAiwvj+9/6xu7jzx/+B7NJrAoEdqWNPZTMcOCGOru147YKGha8OOBK0KLqtEgLGfASdYHSgV+14FYdBDWBaw987IdTTQMlrU0oYktWo/CExuAlpQLDXr401f7zbZEL+/dzwUtZh3aDDcIap6McK10fq1MuhrEjGRrFWG00e2HvtPlvyXU0UsX012JboCxzHV1wdU7KL4c48+IhnHnhKfjpmlDjmT4HZMiR8mwyEy2bNcFL39P+dDuf89Wfa2YDOefF+jLL2MxcRHmlQk5NQ99B4PhCLuEsUUjzx2wF7XAJn/2xW3DLTQHy4Sl0kwpltgqPlG2wVkv0iDTjdzIRUVaCByM5/XaaeamklAZxcpSOwUuyUt9BVdYoGYy5LcCNUeYu0rqD0tuP6d13APGNKMsOMgYDMrqYw3PpWcd5xyZ4pdrLq2N9P7MPXr/re+Gv3JSass9aR9ZsBJ323+1zuHxKricSKcIQ+bETePS+e9FfUkZrURdsWqiKC33uRiP5PQYE2wEvzp+ReRi22lhLaQjq4/pb3vLbb/voJ85e6eXDKwq8lo8exffv+9Y/9KtqqkhHYifCWS7rgqyVIZXMsU1iLiiZ3bKr0NQFbWua4rzMsOrCKGeQaGHYSU4Zwc/bCECR3b3w6j1Ciwc1Cwlc0hIje8xSgo3rrR27uQhOyBe+NS/+b2q5RbNI69clZUFRF6E7bI2VoECv7Un2tZo4GETAiGKuF2lKgEDF/zhUzPtYcADdpdlhDTfvY+30y3jxqe+K+G43cFHlQ3NgegIQZImOMy87v7SpuaEl8KzPvyZlxK1dXw1eGgK7ws2b0Hgc+mRR6aOqxcm3zKmVmSNiBpYv4OY3Ofj4D9+K3XMpqvwEWsFIhvCrITGmazQQuQ5HAl6affEPY2xK651NwEuGm8UFulb9z4p0cVJL26jrCEUVoHBm0d37DiFpoJ5DUYXjcnxZpTLYSyFhK4fE11MBY828Ljfw2uwOTgBtQrpo9r5CruMKGBY54jhAUZTwylI0DRcOHcJTDz2MdGUJrSQUgV8yR9vtFopsJEShjY20df2sTT6QDXYtqHKWjC4Y/WEqRA5m7EGSnLnrU5/+P6cOXLu1RblDnnXFgBeHke/9j//xk26WvbfjezJQWDHi4ayPNIlNJC29BRI19AeUj2UjVfyzGLHbxnSlmRbBS4eQPaNtyBIK2VgOgrqNIN+NgLJPzn649TwqcULW91Lw0rKhefcdraix2ZputoeagMT6v/TC3AprcY3FKUeko1bblI3Sa81m83ZKceqETNYXX4v69hr9JoGHsBqgWDmFl54+iNHiccQo4FWZHBhkifZHKcIgUg8B6Xusz7Hk0FoHYhcfvKxCiGWgCozZ9zR9KpYzOU806PcR+r4EY9I3CUP4TorIXcVbb2rjJz97B6rsBXjlSQTMLgkOAhCx0u49WvSosabMeJUaYInIi7hJr8+8FLzYB5bygSiYVCRi1AmKMoTjtOHEBxAdeDeAXcjLBKC3ixBx2ALORGLLoWz8OKNT9X3V+Cf/9/IoGdrizGZWKjIdZ8he4z1sMjD+nLJwvu8g43oX4QMHRV4AWYbE83Hsyafw3QfuQ1xVYnpKan2UcFarELp74Abr2JbnC+qa4MXfpcIP13QcU3KuFjo/73J3z94/fu9Pfv4g18mV+rgiwIvlwhe+ff/MmaPHf3nKDzBcWpTSkEfqNoM/cSmlWCsZxFZbTWVq2FeQtckN3gCvMs+kXEhlaAtemoa7Qtpgsccvp9DBDfDLvXCr3ajrGelzSfWH0WxjpVEJQjlaqp4gQ6B2FnQHry57ALEpLzBtSoIELzn3UIvu4alOhaXZAAtTDvo0hTZszvNt1le7NHIEOiUKEhT8CLnQvIE2wXHtJM6+9AwWX3gKbfZ7SlXPCCiY6rjISGigrbuArCFsNIbujKbK2ErF6v+tF/WZDBlv5Rayz+XKUcPPzfIe+2/UrqNyBtU2KlS5hyRKULAkRIWYFtXkK2Q5VfJztF0XgXsan/nUjXjLzewxHUPkjODFs0CPAJSoy7GAlw5ASyBWJjrmQaYi1+UrgRf7u2KYyHJmC0XVQlFEiMNZeHO3AO0bMaq6nHqS/ppFJJdDyJUN2jZeHX6zye9u5dpdrOc0gatJzLHqAZZssrGkqDR/iAVSHIcC2r1hiiCJhEo/GgwwFUbi/fXEPd/Aye8fQjcM4DklhsUQpV+LXmEE9ssnOofN/bAZC3FjmyGIAwyHQ0mS20kLo1GKOgjQq8rqPT/26f95z023bCc+vFiX+XV5nSsCvHqnT+Oxb97zpWIwOOCnjLx9RIEngqFjZqEZZJWsq+JAoinYGBdWqitY8GI0zsOC1HhqIIp+HGeAHFKZ2Qjn6ZsgKGcx5d0Et5gDyinU4g+rD2En2bKgMAo1A7viwMsQTqw/F60veM01u63Bn49QYCmpZGiZyhsrSS2yUXb2q7khrVO1AJ/VwDM+jOcegVR/L8Wdt/aZW+kjdCr0TryAF596GEG6isRjLyjTEnJNAk4pKitFqffcHkQMYGzXS9+bPc5MFN4liW4I2I6rzFsdsCVJRMCrD04B6uspqaJyWWrmYDKJ7zGyUYZ2nAh4UbnBleHXGpEbSu+k20rRSU7iJ378Tlx3jY8yXYaTe3DZ7zLmlbVLRQYdpuersuQtJy6FfYVVqBmSpknMjHW4Vtm21oKljaLqIi3bSDrXINhzGyrsQYoWAvZyOMibcz6OHp6OBH/neiZq2V60Di+D1Gtj1jUBDA00xyXPhkqG7G9D3giockHzStYOySjkP3oUgAbqNEfM31tZw0Nf+yqWjh1DJw4wSvtwI0eYhg77kmYNvVogx3GKJrNLEMkE3GQvRl6EtZUVdLtdZFWFfl0hc9wXP/pzf+9ft2ZmXhfwuNQvekWA18N/+HvvHKytfjbmwOAoQyuJ0F9dQ7vdltR8rDZuFpzWi+3Qny48YRYSp2pKPw1RmHkuAlZNm4wqh096b9UB8lnRLIzc/fCoEl+1JZuy+uOb39SNlMKdSpDf+O10fNeaNEqGa+0f+HOKnvva5zrrZ1iYAlZ2RTjbBfoOqdQ6GyZWE4xYfWWDhhx6JkvbDjUzexDigaU283PoNaW6IVXSVY+Q4rojme0q0h4CApABHWtR3/wG9rBqjlLI+VPxM6QYLRzGicPPIHZ5OKvgKsvRfE0RaJaBc76vrRXbDvz6ebD1ZUgJbeA4KYpsEV/43Efg58cRugMptZU16eQ8+OlPr7Lr1DyUeS0OUQu+8HSsEIku4QBhOMJ0x0O36yEICEqGFWRmNaRct64MauxSxjqF6v1VeZSVMuVCvg89Uv0IyFhRiNGvuxhhN+Zv+SCKooPam5YS4LmPVwv4Lz+a0isRfs+3SydzYnoFJhmaspypPuO5NfonTuDBb96D0eIC2j51JXOdL3WY0SowWUDS17HUfUtxVE1JMY9tjFgowFLweMKPFfNXajJ6DpKp2X/3Q1/8L569EskbOx68lo8ewQN//J/+6dzMrE8WlTCyWi3knHugosa4dqeLa2Nde6NXV1GSFp+h5qSrcUnmALLr5irhU8zAKw8grG5G4OxDXStwXZ0P3fI8TieWJxyanGRVBC9Ra0eNNb/EQqfG4pyPkzMQHURmZpKhlQp6AwNeQeWIlJQFr9Sr5d/lQDBZnVLAXRl2lkyNVjdWRJmGoRV7Cjr4qwGL7VtN7pbtMYnmoqiM67/Rbyqq+zjz3IM4/fxTCNkXrQg4tfRzREpI+juGrfeawMuKBg+RhH186ec+iin/JSR+Tz5vwXENkU8iU09lo7gG4RqVfpKGyPwjw5IkCBm2Vkq7fNHKunnTQNVGbBZMNgMVJVZISZy+W8y8XMPEzCr4QQKMWGKcxmo+hWj+doRztyNzpoHaZHBX4QbgkhordBjtzjHYGfDxA8g8V+I5eOGpJ/HEt+/HDFU3+n3hH1fuK4OXVh8EnuTqqmQY35O7SQM5tkFslUJDcs7Qcf+5KOgF5vuDuz7y8f91z1tuu+Lu0I4GL5I07vu93/mpThi8rTYuuRLvUI/MU4sSuiBvBlr2TspMF/XsnFop8WmKIlfNNWlW1ywd6qHp5i145bwMIUd4M7x6HmXFEuLlF0m+MSvVMNVI7jY1QM5eNcGL4GS2HgYUxU0qyb4WZlz02w5yQRWWF9UOnVRrWyEhQBAUlc1o38uAl01wCHbMvAznmFAl8j1GSoeAM+41movSBDKbebGUTCCzWaNfuUjKIRZffAgnn31C5K90Qp3vxjFczdQL0694bZmXrknXWYOHM/jyL34cu5ITSJxVuVYkEdGJmlqYorwhh1guCu1ybUTQ2arCs+Sn821cryomTM1NzdLGfadN5LMsmCtrg/Nl1vXXWLQQqMXTLEFddlCQURgcQOuat6PydqFyu7r+t1o6fWMW6ev2LucDL71XwiKCz553OsAj37gHJw8/JwK+nMnjSIfNvPScMgGWqQ6Nna6Nmr+ClrUaYv9Swcs+dHpyAl5pXaM9O/un7//cFx4J49brdi0uxQvvWPAi6Bx64P75xSMvfjlyKgwGA0RRJFpj/DtBjD0OPbxe2WpcelkcmK1LYXEV9BkgHUMWBWn0BC+ypnzUeQtBdQCxez38ar+UEKWnsGM1Mra35OQ8F3kjBR/dRApeMgjuWBdjpc9nAbAS1jib0LTSQZ+uy0Eps19Ns0qJMsflLgUzKZdYaxVy3wx4CYvU1fdWdX+zk0XeSL3XmnTn9WUgHVoXIDGKCrYPRzCLqz7WjnwXJ557DEFJZlkhAEIgkSIx+x3bAS93FZF3El/50icwHx2HXy3IMLCUJg0j068Sva41qdAKXpzNckrqIBKbzKhH0+Wb/TQClxAoN5Qzz7nlpsvH+TKRp1JCCFzaBhUCgnkeoHb3IS13obv7TqB9DeB3kFW0XiWj8WoN3iYKKXZsxK4vu664JqUUnA4QeC5Gp07igb/6K5T9FYS8g5yLlKzKnlNN8DKjPfwNC15jpNLf26gLacuY0lHlyEjSxmJvkN/9o5/+Y1jkAAAgAElEQVT6Z1da9rVjwau3uIBnvvGtvz9YPrufMz3SjCexotRMig82uF+p1msjbvE+rnNURSqT8hVV4bmsWAqsMrGj4O84RQKnnBHNwtg9ALecRVmEcCimd5U+dATBWqLY0ty54EXWNXtEVeCg79dY8nOsdV2sTXtYbNcYBJPO/dhht3ZUh5IWFEaBQN2p1bDPqFFJyZAp0MTdmnmcEiDsz7RLpI8ma0yj3Al4yZoxpw8zRoLX8guP4PizjyMkGDLzEndo7aOpmsfWy4auu4wAL+GXvvRxzIZH4Rdn9fuxZxVUwkbzSKwQFmxuFOInc4b87A7rUor24/9YQtQfmfXf8N9at1Slh2K8uRiEkXFoKw4O2YmFkBDSIkGGa+Anb0FC8KpaqEMfmfRsjCXLVbsHLIgYcoe5DlbJhzOHZCQmkY9ysAaqxJ9+5nt49IH7EVD0gGeUNjFNkC3Fa7tax72vsQBiA7yavXu53xIwTnquSgDRecZhVTz1mS//yu9dScobOxK8CFJP/9VfXbty8tQvtMi8ykYIw1AyJ/a62POy4NU81Jr7qwleRTFCkQ2lbMgavocIjlDeeVAVYjRJuaeg3oMIb5KBZKdsk319NQedZn5OwUt6V9pxlp8XJvNiyVXk8Vjao7abV6HvFRjELla6Nc5MO1iJa+RsjJEpSHa3ZEGulBRzMriaRBtnQvAYkyzsgdHw3+LLWcfryX03Ua7JlSeQZrNGOw9Ygz23uBxg+cWHcOLQ4wgIIMIom4AXX5eUby1zvhbChpYNfWcZSXAU/+AXfhi7wuOiWSgRtjBY1H7eLVnO4yc13lxShxLqrJxWBTMw0+dj2dAhI9YkQrJ+mxIQmwCMFYsm21CMJSmmKIenGikygs/cXRjU14tXV+1di8qhZiIzQSpl0BLl6s68bNalq19vjcrB6UNJFawW8H5ybCPHU995AM8//RTaHCrmuhIksg4Ak76kEjesae0E5Ox6EwsbI+67jshh51gp6py00MsK7L/xzb995yd//IpR3tiR4DVYWMCTf3XPr1bDftehhE42QhAEWiaU8on2r5RBuH5jrZ/l4HohyWOEXFyRSY/1Qb/Umo1QbmQ5rzrw692I3f0I6n1Ci6f8k412rtKgcx14EXQkGzIZE9lOk/iRm1e3MntXmVsKVZ70+bO7XCy0a/QiFS4NhYigdV6+Rs6SS4MlbPthAnJmEFzsZsaJx8RBme8n97/R77GKIPZPvYnq5cSDnNkez5GgZNmwh6UXHsTx555AWFZj8JLhaKPEsl3wityX8ZVf+Chmo+MInSX53nWdjR1+qZ2pn9G48rIcKIeZiuVqg0/RvRbdQm+cXlaM6smQXffYfD/IviBBSW6ajf59ZGgLu9CfuhOt+bcjLabFkr7KVUGjotD0VQxe9tLqCMLkYcErzwsksY9+f4SpVoxyOBACU7q0hAfv/QZGZxYUvMYqK/b6j1/Z9NRN+VtmEhv+gwa87IhJk4Ak3J2sQKc7jdPLa0imOwvv+fRn/4+pAweuiCNrx4EXAeZb/+7ffqzjRe8vBgNh3nBIkJR4yxzk33loEdD49+Zj4+AfCR1pNkSRq7OyWBHSpqEO4dUtIE/EFTl2DiDy98EpplHmVJKn4vx6O4MrYkW8hi8x6XmZzKsBXpa0MSZEmKFl1vYJEFQ+WQ4zLM17WOg4WGg7yAIHUQO8+HI5VTgMoEiZ0s7XcFCctHjzee0Zbs5xA2bNTva5LDv5bCZCHZchDR2fbMOk6mH1pYM4duiggJdTlnB8Hh7NsiEzzddKlZ9kXgSvL//8RzEXnUDorZgvlMvYleN7QGqyLDuP5UnxFI7MXrEPaCj10t4y/ZJmwHYOmWgDeBHs2OQXNGcJSyWh5APUbaTOPFbyXdhz00eQeXtQ1i2dYaLVPftyRofxNSybK/JXm+BlzVH5Re36lASYuoekyTPwKXMcf/Y5PP6tb4mVCkchVKmzWTaU8MsELzJpaNyvNwcv8UlrqORzTTMUL8saXhihX5aI53f92x/83E89514Byhs7DrxOPPt9/9jjj//TbGkNoZi0rY9UNvPcsdmYBTdhIVJ5XOSfehJxWiaZCJey9FKxdDgNJ5tHiP2InL3wnFkZUGZWRoUNpUpfkXvxgr+UqlMQvCbEiLFnmo4oyUMt560Wol60QVjhbJxjeS7EyRkPa7RjrjgMzlKKplM2orQZHX3B+JBMT+xXXv2j2kb4K/+WvoC+lqHjmzIowWvlxUdx7NnvImpkXgQvHkBbn/NqgtcxfPkXPyaZVwQqwxAMpc4q4wV+YXpaImPGHpV+EwEvubCqkHHuo3noNf+1CV58sQBFWcALazhugTKjuSV7aVNANYfV4W5MveluoHMjBkWM2mN1A/DzUokIct2u3rLh5MquvweWsNG0T7HlQ3Vdp6pJiYN/+VWcfvmIaHFS1Sf0HZQFvQG1X2mvrQQs3D+mcthkGHIpWJKUBS8VYpDpChGhXu714Xc68Lqttbd/6EO/eSW4Lu8o8CI1/uE/++NP5r3+e6f8SA4Q/q+JH68GXnah2V5IlRdIRwNjPqkRj8tIliSOsgUnn0NY3wCvOoDQmYeLth4uQv8mSWDzY+OCT/4r4hftkPLm4GU1JTmDZzeetmFqZH4lbEMyD4/t8rHc0lIh709QaB3Q9nM4/Mx/k3Ikh5gvEniR2j+Zk1Hw4oPsQoLX0kuP4sQhBS/eeMoeXSzwImEjco/hl35BwSskeBm5qtqnqgsdlql9x0/EVJP5qvYDKSmkpSaTKZ3DeL1A8KqpcciLSXIGrWKGUjpHOYM0mweSOxDvuROI92KtcOAEXPk1nLyUmTRj5HJFrOTtfYlXAS8DOhJ0mP4XMyy/KpCePoOH7/0mls+cETp97LtyJk132iL7RCp9M5OzhCYLXrbfZcFrLGtlwMvJ1BE86nSwmqbolQVm9+759+//mb/9/Z0+uLyjwOvUs9/3vv/Qd/7bTsDJP/apMvj8+6tQ4ZsL0tKmmXWxnCjahQXVM1j+UFUBghdLhm4xBWTzSLxb4RX74NXTuqnHtW3tkp7TQ9veDtiRz+ZGsmU3gSVT3pPSoSmtTqjEyhjUe6b9LzIOj865WJ7yMYy1pOix1MEMyFxgvk4m4KXXnASRZvT5ShfufJmX7aHZ11LwqqTn1QSvkP3QSsGLbEafJcQtK2yYOS8Br5fxlS/9CGZDZl7LknnKMKpPqarGnBevyobMS5OwjVnX+UCr+ftUiw+E4FEhBSWkPJ9D2BHSbAZpfgAze38IaN+A0m1hUHNg2bwnW3DGi2pHLtqL9KEna9kwPMf9VdOX3OR9bGnQFxKHg6OPP4anDj4Cn8Ppo4Go+SRhYOS1Lhy8zK6SPyTrEjNsCgWz3O0BYYjMcUiC6n3gcz/9GzvdtHLHgBdNJu//w9/7mF/j/ciGCCRiZtSvdaTzlY8k6jEzP6IRl2UoSOpg/dmcXGTwyDBymcCr5uGU+9B2bwUKSkAZC4dxTZrsLOt7cpF2wg58GXvobywc2XKfjQjtJrd09zFT0C2xHBQ4QdbhTIi1roO+0O/VQt5qJkqfzIAXj4mxO+95rtmFgpcVFqZiAkHB9rxWXnoYxw6RKq/g5bC+WDfBa+tsQ828juArX2LmdRRRPQGvKtCBY4/la2nQZzILNCkbWrX2Jhg17sIr9rrW/74Qk6R9lqNk1SHwkZYt5MUeuOHN6Ox5HxDMo6j4CSq4gYJ3XXjwziGD7MAFvM2PPAEvBXU7Z7W+V7UZglUybuGPMjijFI8/8hCOPPsMYqO3X9GLkH1PVoGkwjMZ3rcVDBso2jsqgZgJZqyHGiXteN75cYzVQR+V76P0PJaK7//Mf/Vff3WbX/+SPn3HgNfySy+5z3zngf+OUYnDGr1hR9kZzI1XcR292gpskolYVcZcMgfLhrIsREiTKt08lzx45TRCXIsI1yCorkUt7EI9GByhY8nx+TfgNWHubrqIbUmjmR/Y41VBj30WYM3NsZgAK7M+FmdcrAYkaugclS/jCloqayp3bHXXnJMpm0h53dCzgBfLhgMQvI6TKr8BvFiyJrlnO2zDc8HLlg0rVHQvPg94ndPuWwdYG8OJDRmane9iqimUd2oneijcFkZ5BwhuRGfudnjJjUKNZ1uYDgyOm6NixYE+XcLc2OqduDKedz7wGg8Rm+tk1x+DJK45znrxNZZfPoJ7v/qf0ZZsLBdRaBlY55n1KuBlCUz2akovzbwX18dwkKIz1UXOYXbfQ0qqPlHR9/DOj37if5i/+S079g7uCPCqigL3/c5/+HTsu+8e9FYQRlQGzzDV7SIfUf363IbxZuDFG8xmKLMuApfU+vlsj+VCRpM+kMfwsBdJfT1C91ognwGqRFM7ESy1y8TQk69SdY3xVTDKFDYKHG+cDVtis/KqZBSkDTsl1kJgecrBKYJXi2QOFSBldCp3t3EwSw9gi/3GzcBLyp7GxmZMleeQMue8jrwyeEk/zkgqbWXOS8HLlA0bmZeo28uUxiuXDaXnZVQX5F6ch1W4rrzYlIoylHvtpbWQ1tNI692Ium9Fsvs2VEWb/r9wPc0qhOhUkwEaKEvfuiRfGVj0mr+FxLJ2LY7LuvyhEiyaQ/BmDNLoE1LaCSI75hGk+gO8+PSTeObhB5HwRbNcnDEKMUtdn3lNXtW4V5hREs3IjO2S+SaeH4pjeJoXMiAtJBCG33mFaGbmvvd9/otfC81c7Gv+8pf4CTsCvI4+9lj87MOP/Ho3iVDkQ8StCGmhACQ2JY2Nu/FwGpe1jHwQ+2T5KJXeghhQSjrFtjN7XzG8cg5efQBxdSN87AWKltCGmyoNYzmov+l5jZevBRMbRmzsSY0jzo0LXmSfaqRuLXNfJ+Y8LE676HFwWUaWdJNbppX1PmrOkW1rD8lBPpGnomIIH+Mh5dcdvCxh4yhC9rxkHq5GxfLc+Qgb/NVmj2XdhZgIFemPTea1TuOQiG0kpJwAFaaRVfvhJDcinHkrnPYBZIZO6wlRhcEfNbpClOR0bBSj3daN2JlPboJXrUNyqi1pgGuiDm8VMMwlt7+b14hdFy41WEdD3P8nv49idQV5v49uu4WszMYkHR1CnuwF+//lCDOkkCZl35J76ISd5pm4bKysrKIVJ1I1GMGv3/bRD/+P+257247Mvi578CLD8Jv//j98bjaO7+Aslkj/+BTfLeF5vqg3NLOAV90CZYWMwrsjWsG7MmSpkSTt0TNUbgS4u+HjAMLiTfCLXfCLFqgvp49muK9MOGl7NW697bFMQFQPkXPJBUZk9QphfGwEr6aEk70nG7MlKSsadXbeh2W/ELX5pTlfLFOGPudf9PpZAKNgbpMQsu0jjzqAMoNmyjPmzGcmxrLh6osPC1We1P0mYUOo8qbf+trnvBQwXXcVifPyq1Ll17ENm4SNccCm9PnNySs6G6QPJYJwFEQfNswoZWaxdmLk5S7kzvWIZm+HP/0WlDSfFCXzHIFMvNYoC18kqQS8SFK8wpU9x73aRoVB2X/mRGgwCcfSTAZk9LLrCm76gtlheP6zjIWwfZGXwNIKlg99D9977KBxsBaf77E82nhspHGeNCtM0gduEHgseI1Bj3JmHHFwXPiehxENdadm/vwHv/D5h/zQDMNve0O9cS9weYNXVeHYk0+GLxx85B9HjMIJXUY5mxG4sL0a2Y+y3jT6sVuW3kheEMgAJwV7i1EqZI+AG5a0ZFK4qTvmpljIRth1622I29di9bgLZ7mDqdFeOCNS5FuUeZPNyrdQ0V4OHFLE18x1cqOLsU6Ngp/T2AmS8dMkGGjj3ZogknhynmGlN249bOudNh6imx2oG78q/78I4FS1SEcx+6Lq/Mk5F2tt1cgWiw72f6QUI0qTcn352GzC6bV8CeuMbIqT66SoWtUA/cMPClVeYKAqRB1Bys1ij7KN++awW7aKxD2CX/rFjwrbMKDChlzEUtyPZW3SqkQyLDPnZYBnIzvSWsVIc2r84NwBXQ+MWrxL1ZmhXjUR/OW3onUMdSRnkGEfcu8GzBy4C3m1CzWDO6Hj0wLGNm0iWde217KNK/BabtPr9rtNEBKsaXwh/tV6zVmCkWXQsirABw1h6Nkl84lGU5VGoRmfYCTPyoK0eGZYnmHl6vlQVCllrBExhT2ygP4Tz+Do88+jnw2Qxy7qgFUlXf/sS/K9ObPOPSGuBqwHmfNufS/ZhCuN72L3SbPBIvQ0Pxq9+9Of/Rcz1177ul3j1+uFL2vwYtb1yJ/8wQ872egDInJDdQY5schEY82dcWSDgWXAy0Y62hthZOpo3Xc4Qp2rnQVrzaygyLoLHayRIr+ni/iW6+C2Z1CvhghXO0gPA+FoGk41C79qwc84ElOCWrKMYFj/H59hslhMtMSMziiPy2T8ulN7csBcKcC11QXKK8G+P8uMJGlQuHexXeL4vIuVjoM0dJCNS12qrr1+A271nfV5BC9hqhqZnaZDQKvsY2DASw5vsgxlvEodmLcFXlbb0IJXdAyBlA21FFj7xtlbhHn5M1YHVAVfAN9koGMzRFuqOg940aFZonNhMap0CU0mh9UsUmcfunv/FurgGrjhNDKOljEYc6jvqb0UahnKVbPCH9u7/JfPs+UaNzKqRrbUPE/4vcXs0YBXNRgiJChRZYXGtQwHOHpgVP1TCoU7BDl6s1FoWeciJeoaDUSzMj/4JE7d9xjWXj6uJLBOiHxXG1U3Rlrm8loSwNGdWsYz1KG8Kei71QtJ3Cyi6D9/7L/8yre3+hqX6nmXNXitHj+O7/71V/9JVJeBHB5iBKjWF2LCZryj7MWbDAA2g88aWcGGZYYyp+ssKaqqTE5AqZ0IA7/G2SDH3DtuRLq3izIKEZc+wn6AaClEvlBhsODCH8SYzndhtphCMvTFsHItHKHwaU+hfkhCUTU6f0JBFjmkGoWY/HH3ezLbYRefJR9cqgVwqd/XnBmcoJMS1citsZaUUjbkf6tTPgaNITIqDkhQK0Qsk5lt40tcMeDF8pSNiRoCxUaCZp1nlJBLTEBAG5TancVaNougdQta17wLZdGBE7QxzEt4XNuGNCPZh+bJFzSaso3b8gY/VQkWVp1CghopwVmRXTOv2PhUVsGCBgD8xawGskoDV5IifHPGqEC0ClXTvyuUqq0LnO0DL5/Cwte+Dhw7DWepj8T1Ufou1sISa3Mxqn1TWPIKpJ4hO9P6h1UcVnyIOlJz396lYsm7X1XDD37h5/6Xzp4923uxN/jZlzV43fcHv/euejD4TMg+l1Cmq4Yck4JX86ELblJIkmqeW4va/ChLZXNbir2uOZY/fKy6NYZ7O5i64wasdX2kToGoZi26wkyVwO97yFY9lGc8eKdjtFY7mB/NIHQi9PwBRLKoilBXIfxCZVkYn/K9KBRBinHhqcOpBS9dxOrce4VUDbe0dC14qV5EjcKrMQwqrEaVDC+fmQ/l73bYmQ6xwtKSfouWD7dTOtzJ4CV5vgEhsfCRHzRDOZlS1f/G6uScMubPhkL1LMoIpTOPtLoWU/veCcT06uoiZX9LFEX0dLSOvWPizU6vF5rLZAkOG+dEmxR422O1313XnwmiPN3jBC6uUY7d8DiwQSxIUacxCYGGTcJBCpxcxNoTz2Lx4FPoHD+L7jCDR3RzKpmlG7Y9jHa3MdrTwdm2g16oM44M2sPK1ZJhWQsT0aHW5TbuBTGwJAux0/79D/+dn39iJ6luXLbgNVhcxLf//M//mxhVy0Mh4KXiB1r/ZcdAQhr2BWTDrqeIComK9eGqwDClGkdqbOInvS42sYZ1hl7iI37bTaj3zWGUBEjrHGHN0mCJgFbydQi/TIC1ADgTwz3to3U6gj+IEAZkI/JAoJBpSAMqWbg2cuMns0xFPVc2zMZsY+FtCS0usycp29MSDrQXSNWNnP2vdo0T84GI9g4jZq8atVrwutozL11OBrrFCbmhoG//Tl8urTuyPi69W/n/FAF2XIzqaYyKeUzN/C24829FPgrgJV1kNQlMCno0ZmWmMXmwirDNkP8yWYcCXuYaNod9z0lpDEFmI/kiZ4Cq41jwfeP/SdcTije7QOR7cPpDYFgAC2soDj6NIwefwODMEmYqYLqXoiu1c08MccURIwB6LReLFKu+fg4riYMRy5Blhbh0ObggVy9nME/Rn22cIVQa8pIEaRCsvvcTn/7fd1Lv67IFr/t+93ff7VX1p2kSKbM+Uu5T2jQ3TukaE0DaOGyScdlIKk3Vp6sqJhYpXCBiLe/X6GOEas8UunfejqWQ1qOxRLMuZaMoesqhTM5hlD6SqoNWOYtgOUJ9tER+skQwaiHMEwTMuqoYgfQSKLujWb1kelKGmNCVlAWkP9/GurtMtv/2PsZG8LK1L5IiVuIKJ3f5OD0FLHZcpCLcq1Eno08NWbb32OmZ1ySrYvDUBC8Gd/QAo6kkfeoYukdA2TELclVmtUbOPozKA5h70wcA7EZWhCgpeB1SNZRlduMqbolJZsFeiKLN9u7MG/FsPU82gte5tbgJUPP37X9ce5kBD8l7RXyFa5QyWi48lnqGKTAsgadfwLF7voWl7x3GriBCK4xR9HroUAatKlGwouDU8PNKqwmtEP3ZGIt7Yix3PIxCT8xJw9JB4CjNiJmx+Idu4xAhySSrKvSKCtff+tbfvvMTnzy7UwwrL0vw6i0s4KE/+ZNfa4Vhh9GIzvpor4qSQUzPc9dV1W1mZKY+rcBm69R6rPV6PWHsiJGgeVjGUBqUGHZKTN1yHYpr5rHCuRpEcjBKf4wSitz4oatMItqk5wGCNEA88BH3E6RHa0QrCaJ+gHiYoJW2ENQUedECpmQL0oxQVXW1u9/QGX4j9ull/h7KVNS+pmWN9v1S7FJOzzg4ussTA0s2vFX/T3tem1PEL/zL7njwklXGRaYMggkViKvYgBeNJeUf6ZbcJlUEcEYonDaG7vWIpm5HOHs76qyNwg2Q8zbIkDh1PglexoJlEzmAnQ1ik7ms5jAxv/NkwGCi1clLKGeQ6Wvzsg94/QNXFFnEPJTxL3UEsxxY7QMvnMTyA49g8fFDiAcZpkJfmIdlmiHLRuh0OkjzEcMERJ6LhOXfvEBeFVgKK/Svm8HqXIRBO0TK9S6T+0raIZgRNLeTA4/yEcIoQVm7KILw0Ad+5gu/05qZu/ANdAl/87IDL3VJ/tpNqydO/qxEMxwkltLgevBiGs0bSPCyOl6bgdfaygoC0YnXw5HsRGEL+Q7WwhzF7gh73nkLzoYOUsdDWPrweSMZ1fguhh7LVco0E4YZfEROgKhwEY0iJGtTcBY9OKdq+Es+WmttxJwNqxOOvqpLj+CVAph8VjIUTbi0najpEq6bi/bW2uuaRI9yDEuwUSPzKqwElYLXngBLbb2HJTNnoz4vKh1Ndvhr/GQ7Hrxs09B8bzbgFag8nRWqM828LMjJzCIZjB5SzGHNfRPmb7wbVdZGhSlltpEgIJhoQzAy5Zi5nXtQ7mzwavYM5bBZN48ll9Fmmub62pEXu24LijhTaZ806CwT2SWkBXD4KHpPH8LSwacRL/YRD4aIihpVSdeKCr6wER0MKA8V+DKW4GQl4pTBuIgUoh8Ci/MRevMJhjMtDAJyE6lu4mqvnC7J2+RscDZN9BOlNx/glh947z+//q73Za9xG12SX7/swGuwvIzvf+Ov/366tLJfTNu4GIzBmlVK5oYhA0cpwzUCx5M/aSzJqMTlAF4+krkuZlwiwcLCNDEk9LGWp/BmEpxBitl33YzBTIRhS2dhgozEEBclaansiVFjjj83Fhw2+iII+ZUPPw3QLjsIhglwGiiP1XAXPXSzKXS9GZQZS4ic5tDKDWXF5HAuFZRreotdpcVDqwpgM1ReZ14bzbxUdZ7zNAtxgZfmHazOBRiGwJDq25yTonM2k4u/AS+hXGtCz6hc5+FkvUv9mhLwhdqtuOyNdZFlU1gZzmLPHZ8EMCsSUBUiEYCVcRQjwUWncgKf9rxoxWLOqSukfGiXjgUlrkEpydmyvgmOCBL2IX0uX1sCfp4jkPEEPtEBFnrAgwdx6oHvojp9FkleIOQMmGl7iE+XDoqq67ijWRSfKr1c63ADIA2BBUPeGO7uYpBwsLhGKtZNHnyeHQS/bUAHi8OBH6EYZfCTFhbT0SOf+eVf+9NtvOQb9tTLDrxOPP1k+L3vfPsfTwchEj+UgT07/Mqby0Vm5yz4J0FLrCE5NEoAY0bGEYp8JCzDoK4VvHKKirqoAhdrKITRhgOz8N9yHfodF0XkCbkjZM2EzVDfk9JkZppWzLRU4dzWyY25Is3eqgBB1UIwihGshHAWHDinPLhLHlrlDEJ6g7EYab2jJKhV4Vnrn/qG3fHL6I0sSMn9pKEeh8ANAUcyKlMGWw0rnJoGlmY9oc+vyY0wTLhqe6XDnZ95mT6Xk8uAPLN9UXUw/8lm8GvU+VC8uIRhjTmUxbVwk7cg2P1OFG7HaEWygcNgyvQShZ3A9c5Vqq+pPmKTZu2Oz7zMfrDuBZboJew+gpMBFcF+XjyeL9JO4CGRYZrqGPz5qACefRFn7z+IwdMvorM6wBQH6k2gJeQXaSao1Q/7YiTMMOMR8gvPBl5lqxjEKpEHrMQuhjMxBvMdDKdCDAJXGIn8cGKqu42ur1QgAxfD/gixS+UUH4tpln/o81/8ZzPXX38ZnRSbf5TLCrxYMnzwj/7TR7PVlR/q+BGyQR9eRNL5JKW3X4PU8/HUOLMv6VcxwyllIHlEDcM8F8o6F6Zf1JqReaWk30tujt3vug2DvR0MIu2jERV9DhFyqNl3BLjYV+NBGhcEKf0cfGhkVnG6SwgdXI+eFyJADK8XwDnlwDsTwD0RYCabRbucRpCFdP+WdcvaOO2QmBBeraVDC178/naWRcuq9irrtc/8Gr2wwpkp4MhuB2stzcZloPMcQdrXtueuGPByhzqQzxXPkqEFL3PgAhx2ZYM/xC80oxAAACAASURBVDCbQhC8E/HuuwB/H3I3RCWmlowW/PVC8XLoWkkpf+zgbKP9KwG8ZL1tmOuy4CUYI0EzxbvFS0IC5MIpEec53H4KvHgc/e88idWnnkO4sIZkmCPic+IIyAcozZgM5z35PtLqMKUYGQFxeb+sUeWkcck4YeAAg46P3mwL2WyCYStEJq0UnhuOjJZs9fzgnXVYqWIpckTLHQdBt4uFtbU///Qv/9pDlztt/rICL5YMH/rTP/z1oC7jThiL8C69aHSDrE+OrTGfluYVvKh4wexpkKcCXgSVyKEbbS0NVd6oVSdDP3GRz7Uw//ZbsDTlSF+Lb8IBQPWJJblQ1Tv4kCatGTw2uZeZsGdJkrNnBQqXfkhq0EfWYTJqodVvITodShbG/6J+C22ni8htcfwDeV7BI5/2Kn1sBl7jg8SUaWRTS/mwxkJS4oW9LpZnPJFPyqh04Ripgy1ew50PXgRyykmp7BPByyGxSNiFIvWAsszg8dArGIF1sTqYxtzcB+FO34bSmZIB2gnl3vbMTFwgZUPNvAhstkR7JYGXJJJmvW0EsYzlPjIHdYwZXpbBTTOdSqZIwdfvxcLBJ+GdXMKuwkc4yBB4PhB4qHorcCNPAmPVJZyUxC1xiw7htrIkt0FIGZIeC5pRUWONwdt0jGy+jXS6hVHooCh1bnQ7VHnNBWs5YyPHQxAEGJFI4vnLd3/+i781tW/fFnfVG/O0ywa8JOv64z+4rRz1f4alvrWlRUx3pwRQBDCYYjem4EVbQfJsFoyVdUjw4tzCIB1hVJHmq8PCXGTUIGP/ZMnJ0ev4mHnbjaj3MOtSRXOvZNruoRIKPjXD1E/JOvmqloOZHXNr5FJWYARVCiXW8pNySemVXkz6/FTZhrfkwjvuyHyYv5wgyqYRVh2EiMGKzHZ6Nm/MMnl93sVGtMKcMtpttvZvr8l4sLyusBQWeHneEeFe3rchD1bOx2zj4+148JJjleDFeS6jeifgZTjcvD40NkxClHWMtTyBF9+E7tz7AW8vCjeUkm3z8LYtWBWa1avL4rz5i87l6a7cJtdtGzfuIj3V7mkLIKyusL+tjT8t25ShiwHNOgc9zLiJCgw+8BhOfu1e1CdPIckqCaCTwEfg+iiGAzmHophK/fpC667v+DxjG5LycpPS9/jvViXFcdBzS6y0faTzbYx2daT3NXQrmfNi32urD969tCzRThLQ7NdnQ75iudJH9003/Mu7Pv3Zpa2+9hvxvMsGvLJeD/f+we9+OfH9+SLto5MkOiiVakhUwheGDTeUzlmYTeXpjQ9Jj+KAX55jkKVISbGnTAt7YWWF0HUwRInVCLII5t99Gxb9DGUgW18b0lIuJEOQbDf67ACRqfErvV5TdCpmaCSln0WHkg18ucqGY1mBERRJHd26halRF97ZAMXLDooFB8Gwg1Y1hSRtw2f4dBU+tDxo7q+JQJvmevLvlXBw5Fr2/BynurX0vhanHPQCsg6vdvAy2iSu0uEZeDmUTqOgLx8S3JUijxZ0DuDMaht7r70bSG5FiSlVbjCHa3OwnmK8qt4h3DiVhbKkhbFjrwWvrR+gl8Oyl0qLAXCC15gKPya70CPHAzhs/PRhnHngILKnXkB7aYAZqrEPh+THo3ZKDEZDRFEEP45Q8efmoUQXvYaU7C4M6Iwtf4xakC3DWrFv9hfE7y720J8O0Z/vYDQdYegTQ3lntj7kJSxfz5MzM6K78ijFVKsteXYWxQ+/76e/8Gfx1NTlcIs2/QyXDXgdfvDb3VMvvPCr+aiPJPYxHA4Qecxe9GC34CVurhas7KJzHAEvazQ5KnJ14nV1Loi/z+3HaIVNT//GfXBu2IMVt5DDjzR4soHooTQIaABRiPwLpViSXCcpMs6V2YrKuJRCvAuETchmrtC8OWwooZYx7xNNsxpBESEp22iPOnBXPKSnUuCUj92r1yJOu5ftAnm9P5hVH2EZhYFB1pDLEkVvUS/Q8YaRX2DkV0LaeGm3g9U2s2SrC7+1T7rzMy8DXtbRQHpdBC8j6AsqSTsYphnq8ADq4K1o770LtbMHeR2i9gplJ5aGJi6lK0ZjpodWM3uI1WbMPq4w8LJSUPx6Vsybf5dqDkutwwo4fAz97xzE2tPPIV4eoM0MLS9RDgbw2gy0K1BQgbR3VpHY8vB9ztXxwo0PDl2vWiwyIyHSedJfoVanoXOOwYs/c2r0Age9lofhXBvprhaGiYc+A2QT9G1l9Ute7XvCyp7tduWsLIepDC2j1c7f/qM/+s/mb7x5Ky/9hjznsgCvIstw/+///qeQp++JfRd5MRQaND1uGFkIdd3edMP+EXt4UYsiEYMsnRpFniNNefFLobLyxvKGSE7kVOh5lWRd03fciMWWgyJmUVFtBby6QOnXGPiFgFdYO4gqHyHrg3B1KJqbXH1IGz0CsgiVty/rz1DgmVFQV1Ga5LIuA/ilhyiPEKQe4ixCZ62LtcdKdIYz8Ev+O/8LzUzNJKLShuzk/zdLarZZu1nTVvpFtpZvltNkpqoRRr8hS23zN7HlGqu9y/6LjT75M/tzxhA5HYZRYjmpcGzexdKUL7MwYlrJ83bDzJhctU2+v2Yolhiyc1XlTWolf2iWNKYwaeYlihsF4AfI6giroxnM3/gpAAdQul3CmqjIyDWq/ImkmSjJU/uQpBjS5ykrZecV9V3H+8AI9W51CW025dDMJZrAYsFFvq95w9eSd2x8r6bUky2DWq1IBrMOG9PDCsO/fgAnv/kQWqfXsIu99VGOssxVuIDKvOzLc35L/r8vzhWcwXIDKeuY1FbECVGYDItJnTJrzaciOUyOGtNnN7dSSEkesy8I0YzMw3xvF2tTEVbcUqpR45jCvNSFEDgMU19mxlihKktK8JVwiwpOEKLwA7T37f1Xd332p45drsSNywK8qB7/+L3f/EdVlkYEr5qUPO6nItc6rDz0LjUPOykfys7TpiPFd1lrZtmPbEGWmiiuK+AVOFihasDNexHfdEDo1vwdyZpkUE8PAEb4tjTpjZW6DX3YAKfuXru67OqxczV2V9leQXNxMSpmOZJDn74AWbLWQn3aQXWyRrCUYCqbQavswCk9lARCUnM5wCg6jpIkyltbiRrpyxubBjsvwne0PkRNPyL+XJrHBFVzquuw9Gs5ArZ6TJ37PDtTI3fXsK02bkRZB2xbGsYWB2gz38EwdnCmC7y8F1jxyfzSIEXsKOQe6v0g0UaCCrOjraGfriNO2E3uI0tuzcerWqJAo97tsB19Z3ni53VeS5SJn5fON2pQJXtibM9iqHFmfda1qIIC/jTWRm20Z9+GaPb9qMtpOQyNSZmZn9fXGp+Fhn2oiqKNkqG8tr1K2+t5abnO9K5NoDEBlMnAsB2ZsPtf96g5FRou27JWxj/X+6qGsSqay/YA/f/ke7quMIU5v62VEj45U50S3tczy8Chwzj89QeQLKwgWeyjndXyHNlHtI5wtbXw2h4NtJELQAk6B0XAc4iBulaKxg/fQ1UUMg7EEu9aWGO0t4vFa6awGJQaUJsgzz6PX7G5t9bdV3udLSFK5sy0zWFV9bmTVIIvOP7hv/eL/3cYUw/z8ntccvBiin34vvsOnDjy4pd8z0U+HCD0fIlkkiRBnrMR3Wx4GpAQFqCWEJk5kR4/pO1JWepC9WgUWSOS2cwaReRgKQba77oZo7lEDkAyCpm5XaoHM7EwD5CMEoQrMZzTHpwTHvzVWPthTgdlSYBlcUtp4VKaNPR/2cyykXRzylFsNq8tubF+3xzAtOAlqiECGg0rjTf4QtgN1pzjs5G23eLyO+bgkUPLMLf4PU93ahy+1sFyq0QklDmIwr8SEPTwmzg667/b/oaeYextmkCEepQbMHwMXs8e1EOqZjBFdOQxeKnBy/ZJDYDYZSzRjbKAKlpseG0Msja85Ba0p98KJ2KvK0JGnCNR8Q2+5823k4RPZtMmj1cDr+Z62QheGw9om4UymHUodMAgkJYi8j/lTxZpjrYbaGtBOPHUkxsAh57HmUefwPDwEXRXU8T9DEGai82JmvcZhwi+nqHZb/kyslfvOnIe8U+ZV21kULXnoipKROYL0++ut6eFM9d2sMz51FqD+/VmtxcGXhLUyVC6ul4QvISkYxwIKifAbXd/4H+67l13Nfzqt/xNL/oTLzl4keVy7+/+zk8Enn+nT3+udIQoCJGlQ8RxjKIyumwyJDnOqnWgzxjkMeXNilzp8WYOw7IQWf7joddjbX//DNp3vBnLsTY71Sn20j0YPYdlgAhaKnT7NeqzPpzTPqKFaURrXSTptKgt2sNc5sJYbuDYsyRjuuBYS9fvopmULRlaMLDR64S2q9+7uegvxZXYeHApiWPyGPe5TXYpsEGwrmucTSq8vB9Y63JojvJeNYYcyHVY8vWEqGNZoFbFpHkdrN6kitvuRPDSA0fVNHxtpMhAsSrN1F6AzEmwMpzGrr0/CK9zC6o6AbyOKBhxzlBr2pfizut7WuIV/24BSYMZkwmaBTL+t3FfypR9GwuIX2NjJkR9UhHXkZELzljWKCuqsTvwXBcxn8NZLU4EnziL4p4HcPrgkwhXBkiKQtUz6lwyNc8IFlRUteDrSSCzzYtnXDL49vyYY5NJWyXxHAGv2FwP9u1XpgMsXtdFfybCyPXkfGtY3mmQdp6PNWkpMONj8KtracwgpUSeG2CQlQ989ld+7S8v3Qp55Xe+5OA1WFzAE3/9tX9SDNKAJZzI9TVTytXChOtDb4QuZrs47b3h0GBeZNrrKgplDTH9NvMSvEll4OKsl2LvO29Df1eCtBNgUOYy93UpwUsA2AjN8vOGXoSIVOalEDgRindYstRBK20jLCJ4Qn/W6yFDilI2bSw4C16NlaslBAkZx6ugWenYuOgv5SLdCFz8LLw8EuyadSBuAMateoXKGzMFVmd9aWCzpzmSoU0HcangxcF1FWvWP9c355Vko9HmDgUv6VnxEDXUeFkUGgGUToJekQDBDZie/yHx6iooueaFKHh97JLY5vm71TVjWcNjTdKxqLY1vdz8lddlXY0+30biBZ9dlCXCwJOsiV+dEnJC9AtUUg6rq8CoBh57BkfufQjuiycxV9Ro0aSLqEdpDadERd8sM5ZTk8jBay5i3ds8QQx4WTKYCE+b7UqdSVaQWE2K+aUdBylKrLRcLO1vI93TQY9KQMygzc20vawLuSea4Wk4Z9nTzXZI6XgYVe7ah7/4t3+zM3/5GVVecvB66utfvWbt1IlfLLIckR9Io7OuaDuOMXOnGUmMwcvYP5CJlqYjkPSRm5KhEDXMCU17gWEADOYiXPueO3C6HiFLVAiTC3u7Vu4Xskhe8XecAo6TKoDWEXWlhSXmFT6ikYdkGME9CoRnEkQLLYTDDhJnSqjjjK/TijNmtjeg2RbByK5JyVA81sW1tKS0fm7ayfWxJo/b+h7beHKzvt/MuOxLNoFWMNn8EvfyiA7YYYrlOR+nZn3taYp6LIshZIBWQryxUX2Thu/Jz3X0YaeDl2TiMm7B/8wQFtd93UZaHcDM3ruA8GaU3qwAGwlNMo+kCkWX7GHVJngnxr1I49IsJcUNoNqsImjWpsQR0W+UGVA6FruSRMlP7Jwna6RFjpD9cxLB+OKjHFhjifBFnP3Wt3H2haOYrhzEwxztUmdGMSIFXufo1tEtrZah9OO3ifwWqGxgRfCyD+qrsi9PibvCKP+gwmpQY3U+RrZvCmsJJaN0JGJjB7K5t14xEzM1eyVyWSFmTRYoNVYGCfbccP1vvOMTP9a7ZAvlFd74koIXG5Ff/9f/6gtejVuTMEIcRuj3VhEHodBNyTikunsTvGzpUKJNEizqAlmWospysQhghMRHyPVG2SG3xmrsIL7tGgRv2oM1t0S/ytHudjAYDsdOsZfixlQS1ZGSTMSJ1cxSatiuKIYkRYBkLUS0FCE82QYoN7Uaw01jBF4Mzw2kvWHJDpPMRQkZ7CdYAoqCF4kilMByJiy+S+zkPC7zbHIGyGZUkpaugUYvQKzVvRoDJ8XCtIOX9vhYbutJbHtj/DsHTu2hZ0um/LkvJ6O+IEsmOzHzkjKPKMazzaUKGApg7GO4GGIGfvtOxPvvAsoZpGUA6vIWRY2QCjJEr0uo8LJuXnOcdU3IURv3pF3n8qeVczKVB54HSlwiK3gCfGWWoxMFut5XBqZj7AHPvIDFBx5G9sxhTGWF9Nqp6t4KAmHdgdJPzLTWAZdmPxoNGfol1TQu5sNUYqTt4So5SSpQhbpqMBvr022Bju+72+jNdtCjTZv0gyeb6HxlxElQaJ9jXLfHhEf22Sk/FQBh9I0P/uzP3nO5ETcuKXgtHzmCQw898N9Xg56Q0JlFcD6CFFQxjOQCMZvLRg62Ea+VsAqjjGaTGesDUi4SK+4aiOiv4zpSSsp2dxC9/XqstT2UsY+0yBGFoTATJ7WTi7kCL+y1GPFLrVnmzEjE8OA5lOBxhYRU5RVaQYKwDBEMPeCMg/q4D/9sG53BLDrFHFw6XpjoTUqEBETTB7OSPtKWFRsWSw9nEY2jktzk/Ns2o8cL+7qb/tbGTbYx0xqXthr/YJMFAnTpFFhoVXhxt4flGR9FANqLqo+a58IrVAjVCjqzxELcCgs27q8E8GL2bqVfZIJeLE8Kdwq5dy2S3e8H4utRuhFG1uFbBGfJvOOMlwZLl+qxWdHt1TKujfZHBQM07nkyeK3XluEccA1wxKI/XEMHLhInBI4uorj3ISw8/BT8s2uY4hkwShEmIRAGyAY92Y9RzGCyRE3hXSGMqYjB5Lyoham87cqNXeC2D9AoG3I+j5qfoj9YVNJiEH1Wt8JayGpSjMG+WQnOSVRiidGSn5okrY3Bv4K8veNW3UPBywYGMpzOAekSKEJ/7Qc++WO/OXfDjZdqmWz6vpcUvB760z+6de3MqS/MJglGg6FQ2zvttgzNcfFw8lvqzI0GpG3kSsTO2a3BmlBJGQmxqSrRB1mGpd7MRa9AcMsBVLfuxZJfCvOIGd1oOEQYhpeUbShlbAFnsWCV7+9Qpsphp0YZUiSs8Ar4pYski9FamYK/EKM66cM9E2Kq2AO/CJXyLYuvsdmMHp1eQHP/5XISrpRAJCrklxC8mn0ui082UJE/NwEtpb6bL+VVWPQyHJvzsLIrxGob6DmVqqSQZWbYWyqqDKTkNfDwLlla1Iuyk8uGrDx4ZO7wXjPYK9jb66L234QyuAHhvvdjMAzgtyMpNTPOa4W8fvSnY3nCH48VvNEnE6++LVtvJBht9lnkWzazLsMutQf2WNqpQUKpkMFleW95FaPvPo2z334M+fPHMD0oMOtQGZt0ZL5bIWaSlVfL+cB5QrYyqPdnzxz2umR0wHhx6Xyciu1u9TE+34yHnZH9V0saz5EeLgefnayQHlzIGSynQt+t0OsGyK/djeWWY+YdJ+AlxI/G3OMk+J+M1mjxwcynCgnMWOgIqZJsAkfnWz0Pb77zXf/85vfdzYu51a960Z93ycCLclD3/9kf/Xz4/7P3pkGWXOeV2Mk931p77wAaAEGAWEiCC0SK5FCURJGKEc3ROrJEUQspyVoojWTJEbYjxJDtkCI0Dk94HDHjP2PNjEbSeOihbA0XiRIJUuACEsS+EPvaa3Xt9bbcHef77n3vVXU30F3VXYUGKxnFRne9JfPmzXvu933nOyfPrgoYZti2E8OqGc4HjzYOqiBOcJJaBnshilIis16vI5VYqfeIpbVYmqJOi3O3khvbfuP1WDtUx0pQSnRHkLATTqKVSz6sF/6BNlMtvRUGRHQSaQ8Sp5CKBnNnGSHKYzipC6dXIVito3zGR9xpIcw8xFWIWhHBz1k7ZFyhpnXWOXo4gY0UDmGL69duHpvz8uO5+XPl8O3rTYeTpEcHge5ET7dKHJsL0G2Scsze0UJ4DDz8UtmqVi1cGZmGlnzFEja0TkEQEuKO56HImErfh0H2erSvew+AaWRebahcYtNtgWxyuGnaPfCy6V17n0dtDaNUL7MkQRhIwMO+R7mXpjTAv7u+Qy0DcYPwqEbBJZfq6CItR3WMHHjocazd8wC6z74Ev9NFVBbwqVtqpKA2gM+wf3P8qVBVDF0rRv/NsbRO7lt5huxn8r1DJrXdrJm2EJspGO/X5Hkw0uqEwNpsC/n+Njo1Fx0nB6n1co+zAgHnAz3czLnb77GRlyWJyNppwM5uIux7emmKxtQUEuBvv+9nfuFunxHpq+TYNfBaev5ZPHn/vZ+suus6AcyADHc5JhPCiSj0d9OIacGLaUJ2uWfJQG3hDbjZ19KgsueV6E/XULvlKFbnQqz6JQISHDjpx+onuwleetnacWGvXX1/iCoaTYp4Z+FLSpExmZhYFgmCboT68izc0z6KxRxRJ0QrnUAja8IvVB6IYb+wqCm4wDqRSW1LWsGoTLxK5uJZjZUblw/924jiq38vqSXJH/aVNko8t8/BSptRqzalSv8KR3hMikAfXr14NjFfuVR5njtTzBm8UDdzhdNEL53DxOR7gdaNqLymSJtZ0OZm2xojygBW2pC6Gwfvy2aK+ObWDVLdiVmct8ONDaNpR1tFkiRD7AciPchHhhJxkorup8BiB8c+9RmEJxfhzy+jnqQIfG6CLeizv4sbnbHrt+BlxmY0LiPQEnKJGokYavtFdyrr3LWAaJ5D7SU0P4aFb8FLyFamb1HnPdAJgPXJOtJ9Lay1fCmR0P2dh5cVspm3ruP2OqS8O+afZ5+pzWIGQ8DzPQzynFY6y9/3Mx/9l/Hk5G5MlXN+566AFx+yR77yxSMrJ058LOKukeBlnV/NaW5gGwmThhGI6MrLxCVBIxskqNgwaiv5YwVL3jQ29LnX7Udw3QEsT7hC1rDgRRCg17lQYHfpdgjtW1KESjChiLDWgFizYeOgKUCLKofYWWqTssN6VSYqHWHRhLdGA0wPwXyAaLGOeLWBWtpChFgyHHz4SbjihOSDy3Vb6MmbQ5tdGQfrRzTUujjnWYw2Nxt/TbILoy9ez3Jc4PgUsDjho193JEXIqNyqbvCdjMB4pGxaJXhJb+qVSdjQ3JI2a1VeD3Svy8s5FO5RtA7/gJA0co/1L1PjECIimbws/hvLFBNJ7MatH3/GmfKzbFl7LmJSKsQjff6ZgSG72HM9gQ42FtOnjyo8vK1umqkp5GIH+PajOP2N++HNLyMeJBJtBZbxQW8z+SwVMZadjiF5DL02JT055hxtfeNMRCSPqXF4H+9Vu5hxFCUYM7Ft9DP+/vGeTJteH4+MBj7QqYUY7GtibSrCes1Q68lOlEjURca1YqykvRm8bMTH9WU8AuWzISDH1dFzkVYObvtH3/8/H77tTVtD6osZmAt87a6AV9rr4cG/+/w/7q2uvS2mQdsm8LJgYncmo+iLxAYtkhZJiqTfG6YRtT6kFgGc7EmZo1v30Lr1OhQHJ7BcK9ETDpYy7cjm233wckXrTMFLbV24K+apUVKRi07OSGuowzdSFRk233oOgiJGvd9AuBKrAeZpH8FKjLAXo+604RYeqlwnp1U04n+L7NrucTV042/ygDZlOtwhjtolN0zlDWlGWUDkU2Th6wYllmolFiccLEy5GMSubG64CAqQyTiPwOvKj7w4h8kG4+54FY4/hX5+BBOzb4XTuglVXldBaY6R/GhNVGpHZtHebo/tBa4zr/iyc+38LXix9iP1YXMZoinBjR4XaNLWU6o0Ujuph/zBJ3Hqm/fDef4kJro5mtzYUsWCck6MqkrWx3MlgrFLWyJvnRMb03jaWjKMhISwYS7DnIjKyG19Ld8ceQ1Th5vOZfwZHc88MCpjn1d/po61/XWxemI6UYxxaL7rKnhZcgav8nzgRfat/X4FVfVoZs2df49rTQxK584f+tXf+IdXvJk79IJdAS82Jt/z2c/+XiuOG1nS3ZAKGqG/UV/m7JKISute0p9DLS6qH9ODRmpFlYTLaZEj4N89RxSXi9kmWrddJ2KWa16GVHy3dOKz54Od6yIbs0ODfa6vGaZJ5cEYE/w1L2aPFgV+xd2deenCg5d74hXGI/NziTy4cwqrGHESwVsJUBn/sPpiHRP5FBplW1JkjLboOZbTypXyNhQL3EXChkZO483DukJI98DLpDXH+Sf2MyjcyzThYqPCsTlXUimUceImgKwtYRka8JK0oQG9KzZtyAHi/QtC8WVKMAOv/kY0DrwFRRZJyjCvTHO2FOG5yKskmERsWk7dzdsv52AJOOPkHVun5bxP2ftZFZIeJGBVlGoi6ARU3y61X+uJF7By9/1Yffhp1PsJJrwAfpqjyqhXOPYlggQEMspSUAF+TKRZwMqEQpsXhfNt8sbTjFtYR4Yb9FdYhDYDmKwWnNeOJ0obKwcb8mfPUwUa8SQzHoYWvMbTjhKNG2a21u5GkZcFL74vCDz00wSeF2B5vbv04d/5/f/Dpw3Mq+DYFfA6+dgj4YuPPPLfp+triELdEg8L8faBMlywkjsmefA0XchUQUXLkzQFezi8inndEnnkCfWd4MUbw2Jm7dqDkjZkBNZFioICt9yJGfBiQX83qfKybpidmwphjmaEPsiqnsEdnmAMmUGVLwDm52xqZs0gRUF1adHa8xDAR5hGCFcD1FYbwEsOaqs1RKsxgkENgcNUIm3fCWSsNWq9bbeOcfDSOTAy5tt8TuMP8AbyJMeBKRxRHqmwWstxbNqTVHEvrgS4hDpval/yn7KoX+EKGzIIXIUCFNEs1rNpTB5+N1A7gn5SwfHrw2Zd2py4oiNvgWsUbezi7R+C1/gaYAkFnKPULA0DKt5XYlVf44PA3iouC2sdYH0Fa1//Fs7c8whqKz1M08qIBDAylVHAo7L7MDriNesCY0sNti902G8owD4288ajLWM0q0QX7TO9FGN3vuh3M4txPDLk+crf3QCrDRcLB+voz9alYZkmlZSTYs2X0ZkFLz5fId/H5+UVwIvap2zjyfNUHz8bbwAAIABJREFU/MnYE+j4MW5813v/pyO3vWk39/vDm7Mr4PXVT/3HO5xB8sM1GqAVuhscpYNGK7huhDTiIniJNH9RIKVTKZsIxe6EDMMcZRwgK1XAkqFzvxlg5o03YG06ko701MnhBVQV4N0rEXuBgN22+zS2s+qLEKYyLaWJ2Obfh08EiSjFUPlcIhG6PUvQwLw/1WsKzfl7lUj/5Ew/wkPdiVEravBWPFQLQHUaCJdrqCczqGWTCDNfsicqo717h00b2vtv6dBnrQpmU2MBbAhefIBFfJgRqj7Q62GGpYaD+TawMOMJE3FIBDDixqoyf+UrbEij/iBGFd4Ip34DvP1vQF41kVU1WbRkjshtpoyUUaIQANPMhj58u3j/z/HVthYk/AVKI3meOKI7bFTjcpFWwKkF4JnnMP+lu+AuLQm7LvZogVTAzTIhc0iTMUGPqvLSR8WR8OE6/DGbJKHbnjv1Nw4WOkx0TObYWfHaS9sid87+tk27NHtOIw3HAMtRiflDdfT3NwW8CEwEL25O00C1Xfk+vofgxcPWQeWaKldaRzTbwXnBmruCl0/9V8r1SUN7BDesffr7P/YrD+/ejBl9886DV1nii//+33y8HdcOU4TXesVsBq9hQZT1LeoQkl0UkAqcY9DtCHgxyiJ4JUWGos5idYEQruy0e1MxDt1xK06FOXr01CpzeGEgBUjRCvMDaYjeTfASQV1pKmbNhrJNbFBWNLGLNOm/3EFS6kgxjoZ1OiH5KIYZwYpleK35SSqQKUYCflYhKiPUsxhxtwGc9lCc9OAuxajTeoVSUxm/W1ev86fpzBNkc3kbVrzR02XwYDi7xtdEm5zdvGWz17ld8JJIVYaOpqM5umEprsvHDkZYrZVDubBhrGkkAO1iwJrbxvpfhXrZQe+Zb+HkUw+qCDQp1lZV3tqQ8B6a9V8YaK+Q7tSh03vpY81YorwfU+ExBA5d1w2FnUQiqUMwctDdndDiTSpVgIiLMVtCkjbS6ga0j74TlT+BAeqSSmRiQYUayIozDgwi4KzRxaUAr3PpCZ69sJ3NDBqva9vX288aBw2CEA0f6xlX3whY6QIPP4kX738IybMv4Ug3RS1JpFTAFDsbrwW4CFrs4XJpJ8QoSY1LJU0vuxwl82jb0tngNV6PkltmojchVNkf+cWlZWraezIc13OAlywDwwfJw6qbYXl/E4MDLazUHAEslkW4zlG4wbbLyJwzlyoZZzMXRelEmCOjdYCpR1VwMQpHjHj9EL2qevYHP/qxP4ubzV3Hrx0HL3p3PfzFv/uk7yh5YuQ0agbpHLvAoXxuWUjjcpakWrwx7Lwq8KRpj+Fy3QuEVRjefDXKI9NYi1VtgWw+HrTP5o3j33XvvbuHNMjaDZyxIth4Rvp7OywbH3qVjNGFXxclmZRCwdX3SSE8dyUKo8Cvvxogm8+RL5SIVhqYTQ4jTGsmBaF5b3GHYJnNMBVdEbtlEycXVt413TYIydNOblWZG/VC2zKDnLsx3RMzyZHQsq7JZxddxkkZ42OxmVxi/24/k99TYz2eepd+iflGiWf3eVhtU0TVQV5VSHiW1L6k5I4w1vQb7O5UP1Mf3FrZQd+AFyM7zjeyVaXxmakn14yLTT+KkolGNJY9q59uF0dLS+GVUz+vgzqO4xMffz/a8QmEzhk4zrqZlbER2xWJBQkdWatk2lusgOi2UJFJuA9L/Sb2ve59gL8faVlHYdKFOm9IHVfwpsOy8nXNWW0z8hqpMejn2bmn/61gqTOT100hYDaAqP6kNvsCearCudbjNeJ/UtWhKBCEHlwCEAkZVMF6/gR6X/465h9+HOEgQwseamkhwLwhajFKEeNzZ9SMo2c0WvzPT7g4VzpvOw3Jl2Wl8Vx0qgxJu4beXAPz076USRwvEHWQmP2ejq57ZC/bNWFo5jtcbzc6kpukskj1rayuIoxr8JstrKRZescPvP+P973+pstyORfzoTsOXg987nPXrM+f+IVaFAhbMPRr9lEaPgDjF8Adj2h7mYiJXe8EMK6wsttmj5fnSrjMBuXQ99GreQhuuVqb94JCJjZ9vXjwdRa8OBH537sNYBdzwza81vjvKCtKZaUEKgzDSLQTpdHZU+uVPEA0iOB2PDhrFYKVGpwXItT6bQRVBN+NEeShNC6LLZRVw5HNaiELj7KNKd9F0lY1tIlQiNp4jNbGsxeIkSTV9nJWdgfJeiEX6BpTySSleBWW6iVenHKk9jWIVa2A1GsxnRxK4ehCRgIHQU+xVKOpWrmG/rPfwsknH9QWBtZKCXnSV0jWK1MrSpih/JYFLU3r6uNvF4GNI6Mgxsir7hwz4HVMwcvtmAlZM815uuIMd89OiYBAmhO8WuhWh1DVrkPz4C2oqkmkbhuVS/ISUz7sYaJCC8FL54cFr42L/ZZn4LnrQ3rGKq4tfYrah8n5I8Am2osar1JjMclU/T+iEG1SIPKM4n3XaBE+8zySR5/EymNPIHnxBCaKSggZZT+RFOB368F7yLVxgEJk73qzdZzcXxOiUu55cLMCdeNzR3FykZAy9imR0UocChiMSYTZertsZLMcrVYLK90++mWJaGYKR665/k9ufO/7KAy7q0O/o+DFnfuX/vT/+snIc29u1mNpMOZuUI/zRF4S2ss+X2pUjLoIXuMMJS44DJXFzYvmbTNNBG+4Cj2yb/wReNkdCP+kfJRN8Vyp4KU+XjbCGoHXqJaTC5GDvkUuxXhzXyOwsg4vCVCtV/KDRQfefCRKHa1sCqETye0QKyNbazI7a0lbSdaJEhYlfNYQeAqGyqz3kiBAFqH1GTPRlZX2GUvZSavS9vBr+H5lTendpGjvekTqPLDUdrDY9tDjZRmAGqVMtGubO/PReegJ1YsOekPw0gGJ+CvTFC+RhDn/8XThua5n6EhsII0LA52UG3gen/jl96Jde0nBa0gKoLYeXyzMGgUdRsCijkK7dhqpTqLjXIv2oduBaD/yPEbpt0XbeUDX35DgpZEXgWsIXjY632a5i6c3VHCXVJZGeAJaY0o50mdHAGNKm4unoWwL81VUrQqEnifsddamfBKxBgWwngH/8G10Hn4c/eOnEJIdnKdwixRNo9UpUel36WE3IKLhSNr8ZISFq9oCXgNjlFk3dogDEjmMCLcQNwrdQEl90TRd22G0rE+h1ReZNDvT2DTzPHSrEo2pyU+958d++rHdVtvYUfDqLCzgob//m98PHae+vrqMyXYLOYuvFwheKW1PklRAbJj24a650s5yGrVlgYvgqjl4rzuINeZ/fd1FM9fLhyg1N/C1AV5GEV3Sg75JDY0SjKynWXdUprmYP40oMVXF8Khgm5do+BHypQLOCQr/+qKdWEva0jvmi02LZrGkrG0jVWay2J/HBYQtM8P0kE0jahpHF3bd7QtYWKupMVNRqX9vA7xGqSkzi6SBm+OiTKuul2O16eHEtIO1Jtso9LxY+1Q3ZBtpmZy/pUrDgXVSPv3kA3BJnKnY5M4n2iC71Ds0FafgZWsEuqEYj26U1zhqDObvCV5192l84pe/D1PRCwiwYgaDFPBQ65ZSnGKPg3pQVS7dEyjUGiOtZuA0b0V88HYgCVH4DeQIBbwomUQwIHBJ2s7UejanlUeqLhePADKOxglZGi6MMC6NVW1KnnVYbiil1cPUaQXgJNer6JkXFMqmlEYJ9PoAZTW+8zye/i9/h/iFebRoU8L0t9wxulmLKKgA2a6yTS5+yC75OySC9V0MqgLdVoCVqyaxNhmiKzsEFyH7vdgKZxi3mh1QWauXAy9bjgjZgkSTX9dD7jrI2JZRVU/94D/9mb+oT89e8uu5mA/cUfCaf/wx54VHHv6D3toqIhrEscdqyA8/d+5ZdNtYdK1KMZwkeJFFQ/AS6rzUaPQBIXj1Gj4aNxxBcWQa6z4p5tpHZB8m3kS+h+Al6aJNzNiLGbzdfq0AhKwCFryoxMFFUotW0kQZFCgq/pCx6cJhU6s0LPvi4Ey16rDy4WUuqlXAO8korIbGygxqg2mEiFS619pMMGNlojHWxPj1Q7gcK1bpbo4L1sa87JCYYQBviBVbGEy7Q5Q/zb0kS0prfvoFjPZXaw5emnWw1PaQxI7Sh60qiz1Hu5aa8+Lb60UuacNTT95rlClS+LIdzVVPkLW/kjJcItplouAcpWsYbCb9KLgtg0QYGYEkwavmPYdPfPy9mIqOI8AqIP17BCldqkk8EOYFP4DSP16CpPRRFrMo3KvQ3Pd2oH410gEQ1hroMZvoqm0VAxXRjxjWRW1dSt0M5IxMRLaF4R/Zxps362fpZ9o6pPg5Eos1gJR09NC4hYo5BCAKKFMxuJ8Bp1aQfON+nPnmQwjXB4ilwlog5OeSHZwRxTjx+IEGobdy8q+R90gq3ydpLRd9w9XDE1ifibEeurKhZ18cZ5ykB82DqlmrUaZrPPKyz6cFrzJPRZyY93FANvfUNJY7nfS9P/qTfzx55MiujuKOgRcB5r7P/vX1nTMLH2k3ImENCg18U9rw7NHQmldV5BgMaDqpzENh4RnGFz+b/8aiZHc6RvOmazCYqQtxgww0W9eyciuisPEaBi+ZgJKyK1B5BXJkAiKc5HnpiNUKF97ID1H2c6Hak5QRZD6i9QDBQg3RiQa8xQa89TrCvI6IHWSGJSxcGV2Lh8oNJF6YjbSpbIxqYHa3Z+/tNgKtDdPDgpelDUtkLU2ahh5uVBjWwgKnJl0sTLpYbbrocSU0iWoB1zHijiVwCHiVBfrP3jMEL6dKEUjrhnBWhenqFDWJQAWq5c3j4MXIV09Zv9GCl/43wSvynsUnPv4DmAlPIKjWtM7Fnj/6ODFlLrk5k5cNWM9M0CvrgPc6+OENiPa/GVXRQkJmaS2Q9Z/QGYXU+VMm6jgBhudD4LItGtzEbD360rT1aBOhkeWwDmlTqkacosgYCVYISGnnhpInmiQqwHlmEb0HHsXiPY/AP7mEmdxRWjdrYklPVWikZ4vsg4Eopzj8uxHp3dVVdBe/XMCLKipFgbUIWCVdfl8Da41AWNfnd0o/P3iNl2RYW/XDQKxzulmKPp2p223c/PZ3/C9X3f7WXZX13jHwoiTUvZ/9zIeCsnhLkbAQSzeC9CzCxuZ5wKI4jyJLBbyoimGjLvH7MgVhEjcGNQ/dgy00bz4qKUO9eZrCsn0NnPu8oSRw8KOZs79ya17njrxsCksMKZ1Md9lcdEmzlzoWCTDK/mLBm700ZHOx4Tv2aoiyCO5KifCMD++4g8ZKG1G3DT9rSYPzkNLMDbMshNorYiMgK+RjY2mpkw1Ti5oKIwtOFnVSwbfYaMTPFNUA89nM6auQqfXwqkQGrOdkWI6BxSkXJ2Z8rFEggGNj+ggVXHQijEeG9TIdsg3lfIUqzwEcNYUPqdfGFHGkkqKMQjmGEdhYb1XlInBWEHtP47c+9n7MBAsIGPoK/b1EIadTwJeJay7QJ/iV6GISQf2tiCduA4LDSOmizDGmALM8VyVC7rzNBs1ek5wRwYtixaa/0BI5trb+jsCLmpEa9evzZJ83biisADTBSqIuCQVyoJuo6Oa9j2L+q/eg//xxzFSepAirJJXogNR3r87otkRvkMicrVHhgeMkEemlaRTe2vW/ut5FLdelyRD9/S2sz9TRcZUqLwnrscSWbqg2gteQYGR2W/KMcqpnKYIoRFE5yCi/12gwbch2nU+//+O/tqv9XjsGXr2FBTx8552/m/e7LdJhSbqg9MgrpQ0JXsJUyqhlOJCFlgVEAT/T1yTrQ1Fi0AjQuXpSwGvVL8TPi02LfGDHO81Z/xKq/BUPXqM+DO0RI4BYurb2BNHZyvFJAyiQU9fO8YZmn9J4yMntsl7mosy5NOpuvVb6aKYxojMe/NMhnFM1hJ0WgrQFn4QPCacUglhf0t23sRjRFdsogmx6wPlChww4pd2re/TWWEvjaUO72+d95sEdvpIiVOey71XCOnxxzsNygwu4KisxLtXAiX1Alrqvn6E1r2/jJGtewmAppY7EjIEoNLAovqlHSIGUC4NJ3266/PE6WOCsDsFr1lsU9qH0ebFB1NcGdV8GmGNGFAiRIkDfPYBo8p2Ip29FmsRiKOqTTZZXCAIHmdSEZXuyofC2Ebxsutn0Pm1xHZb+N9kLjLQALQlAMh1akpHFM5CQveCJAp0esLiKFz7/RQyeeBGTayn2BxHQS5RJKZz5zHiFkGLP/kVX5iqzLz6jNUZe42HlFq/hSn+bZqBcJG6JpYaH5GAbnX0t8TK07srW38vOTtszOJyPlh1rwEvS1WajIWIOXiD9tBWV6slk9MPnvv+Xf+3f2z7d3RjDHQMvuiY/cffXPwn2aFFVg/UuOgibnbztd9o8CFRQV5ZhMqTISw1MrFJUp483L/R88etqfe8tWJsIRFGejYukhFqWoShPixrDawO8NE2li5CkXw1VXne/Kl+jtYeRxbfNdatEkkpSmeqHWfSVcq5RjYPYieGvewiWPHinqFxfR9hpIMinEFYNVTzQtV/9ENn7ZJyhaawZsB40Zown30dijaeRV1DQ7G/ricSzUmImVaU5e0PIN2y3xSjHS9MuViY9DBiZS5+WbTFS+bFh4xdoaLqGwXP34MQTD0j6mWPniwUJU94VHKasuBhLTdAbbhx0IES7x1DFtWlcX6f0Zl0YlhB5T+M3fun7MeMtIHRXmEcTACtCExlzIediH3CsIyT+HNB8PaK5O5BXs5K8tKREm7aU77H1LGNoNqRFGbNlSfcZuaytjr5IbjK6Y7rW1FVkP2KCTg4PaTGBqDtQsokMwgFwfB69+x/F/MNPwF3poJmWiPMSMesz0ozPtIhOGrJG+S+ci5IeHtqXjAnl7sbK+Sr5TqYNxZ+QOo1uhSW/0rThwbYS1sy+cDvgxYxX3KgjYdYritBPMjie3//en/3on9R30SJlZ8CrLPHs/fdMnnzsid+mnJFH2ZHQEzDyzar3cuCljcmJyjmZOpfQlBmRGbYan5d0Ikb49huUKmqIGucCL9oviBXGFR55qSWDzQcom23c1JJMv3H1AG0WVpkbibSMYoPdkfP9tn6krDQt7AeFi/ogRH09Rm2hDm8+RnEmhrtWw5Q7KwsY20l4Jkyo8VvZxixKB9ynmFPkujNUyzdSBXSIPn9e/pVXCIt7mirV14+PiOC2RFYV1oMSp9sVVto+VppAPzRpNC7ofKMiuqkXVqgVqxi8cC9e+s69RhOzEPCScXTpyE1dTa1/sdBGA1Aresu4R3QajfeU3XBJupJyZlKnXUQrPIbf/NgPYjqYh+csAk4ihJCMhI2KijFMjVGdlp32h7CeH0Lr4NtQxlcjc5oCXLJ7lp/UMAt5n3U3QcuP8XEZ/rct3st82Noh4FUpJrG7gp89kLR0hdilUDRQDRJVICOr+PQZFASt+x5FcXIB9YyA5YgxpKrKa3Q7TL2yL8/YuVjLDndI8NoDL5nrvHkFff9I8gHWvEo0DtcOtLHScEGKvJQOzabdbtZeLvLSSFq3O5zb1nF+vduBF0SiF7nW6+PWd7/nj69753vM9nVrc2g779oR8BKyxmf+y/cMlpc+WPd9EdaVFJZn8+SjRXZzVzvTNUqRT6QoOc4ypKKGgFfgYVDmiK7eB9x8RNyTM6bKylL6GXjQEsM26PFBsTIpVzLbUDUtTO7aAtfQ7dUyBYz0rhH6lfIXKzwkbpDQIY3MXK9ZjWChxVe1CdZd5EcbRRhZxHmMRreOcDlAeAoIFyLEy0wlNlHx/VUoDdE+F0Rmv4TebEtazJMDmeOo1cvYjnCr4KUAa6gQtu/H1FzsPNLP1ggr4a40KLHccHB60kG36SIxmTUbgQ4zmC4bnjvoPfctnHjqfknBiVIFIy+SjXJlcxK5xR+NQMGULK/YKnCItbqN5lQZ3UbBVOcIHLr6qsLGNAkb7oIAEEkIbIcWoemA38UAr42sOgy//Vb4E68H4hmxrrJBnivRim7uBIcJXkKGGqVkLQN0uOhZJuIWVxBhk0qrisnusfQmNj5az6aAkKT3SIF88Gms3vk1dJ54FpPw0QgiZP0eAupyDoHUAJdNvRq/K2270Ovg/ZRnd2iEtcWTf428TZjUskHi+FToukBvOsYa614TgRhW8lmzkZdmYkYKPKOx1/G1WRB9rCrRno3iWAINrtcir+azsOBhJU2/8CO/9Tvf2K2h3BnwynPc/5m//vnB8srRmA2zXin1KrLfkHGUzg9e7K1RinwiOzrRlpOnr5JeHWmSDH2RSJm++ToMrpnGalihDFx5+CPTtDreXa5NlFc+VV53SKPCq+6qLNvLUgGVuiypQIm4bEqJCz/Bi4VxpnVYeyI925cNgapO5yiDSjYavE2MkhtFhEYSodlx0VqvI38B8FZrKLo+vLSBWjmFiHU3UrYJYCQRmIdFayGjni9ZZLdM17C07xF42QhPGHVmQeRiJwusWcs5h1bCHKcmPaxTdT5SuxQBbLOTlejEocJGH52nv4mTT9wPl+w2Kgx4rnR2ybm7LgY5mZxWBcZEXuIbpWnxoQgBIy6eiLG4cdiD4/UQpC/it3/5h0Tb0Kd6Mpkz5Ll7sTTvum6OLGWUfAi5czUa+9+Dyt8HJww2gVdqzBGV80kWoYKX1bDT/xpmaK35q758S4eAl5pWCwWeeqMhx4e9ZaS+c9I89TzWvv4AVh/4Dqb7ORoEne5AbUkaTIXyvMfOQfroxumfilM2ArPRHiP2vYOZaWVdixoGa/uOg14rwOq+JjrTMdYjrfcPN+tDUQBdN14OvLjRkhS3W0kAEccx0lyDiUajibW0eP4Dv/7r/8711Z5pp48dAa900MNX/vwvf3+mVqunvS7iyIMXhegnA8NQOndxm4NRlNkQvESc9xzglUWeWKDsf9ON0uNAFfmKzKyMLZt6cPKPbtSIoWZp9Ds98Jfi+xS89JPsdVhVC/3H0W5qnP46pm5nmIK24K5QYtmZtrGRH8U0I/dboXV7JmU289Hs1OEtBcBCBIeR2Jo2OYdlOKqFCBAaggBrF6yFGZKtTftuZTzGIy9GkpbtaAkD/HMcvKRulZfSuLzYYu3LwcpEjk7I2iAjTqYBDbgSvIoU6Qv3Yv6JB0VL0CvoVVzCYc2WHlOMq2oNaZJnVoDMONbApIFb1CRU6V9raUzrKNtTfAJIGa9WMeGfwD/7lfdjKjoGp1wEyoH2MDmBbkTI8qraSItDaO97C8roGrjxDPpJIal3S0RUry6VZFJKPjcjo7khofAwoar10WG9cIvgJc8VlRocB2FANY8SbqcvSWPqECZfuRvdx55GsNqF20tQI6jSAkly/Kk8n/J3HlKAG4uwJEQYAzGpf/H3dh6ZuuywBraVGXTlv4dzSh51I8HFUgG1DVdm6+jPNbAWq6M4nwMbsCqd6GzwkhS77G64AbY3APACNioPVP7M9UUwmjesl6P73o/83P/a3LdvVwZyR8Br5dgxPPSlOz/ZZhc9fbjKRJXRq1L8p87HzOKIZHki4FUwbDXgJcXvUu3BM7fCIHKRTtYwc9vrJM9Lsob0NOUj8BpPD44/q7aQvSujfwm+dGRmacVJR8rjsowNAWxspzrWPGvXDVnMzOI3vvhTrZ4pCUZdtibBVGPmZsIwa+V11FP6hdXgLtAEM4C7FCBMWgiqhvSTKW1CwcU65p69E7z4wTgfeMmmx/YY2fXP6DQyxZK6pUpHtSucnMuwWiP4hxvAi/OiWQ7QfeZuLDx1P8JqACfvIXJSBNVA1PlEV44LMLMJJANJwVDZCgQykToKI2nTyitPVCaBCHAjASffXYOfPo/fZNowXoRPwgYBsDKEJodOCQ1k1Ryc+CbUZm9GFc4hrQJ5WcDsgjVTNCQHrbmN+smGkRbBzTaxsbfLEDmGwHHxwz9sfiabsOz1hTSAXoHsS3fhxTu/htl+gUYnlTSyjEtJgGeq1YUr7En2sBj9IhN9aXrQ1F4FvExzoeyrTJnAXIcutuMiu1u4iCv4LZrR0AyAtA0Z1mc3BJana0j3t8Tri/2vdoNrnwuVDBvVie06MnK10LnMzZcXav2VG7TQGFEWaYEyquPGd737Dw/d+sZdGcUdAa9Hv/zFw73Tix/POx20ohBJ0hV176gWn5U23DwKSdpXeZJcFwnWvKTYzYH3XNmNrXslvKvnRFljKSyRcBfoq1OyK6KpqqRxruPKBq9R0k1rP6Nit+19GjWg2t2U7l41CpWC4chYT8gKuYyXndzKq1BxVQEFrtJsEJcwxkHJaMQJEFcB/J4Hd9mHc8aFtxijxiisO4laQnaiLjLaZ8SNh9qLu+X22IYjP7BR5CWXNlTc0DVSTPhKdRggRZ4R6pk4x3MHHSw1XTh+oCoEZodKvG1Uq+g+9WUsP/ct1LwBYreDqVqGqbaDyZaPVuzi4FQbkc++qgBhxLqXplmLgvWCCuv9DN1BhdVOgbX1CuudEmvdEt1ugTRbRxR28Esf/QDa3ipivydtBKj6kLyr20CeH0BaHUZ93ztR1mZRhTF6TNsELbDp1wYespOWlJsu/iZbrmxKmSYEL216dkoqg5iU4njK7iKXIKkd87O7KbgNx6NP4dSddwEnFzBJ662lJbTjWOx8COaMNh3P10iUNdeSz7SC0ohqzxSpXoPMUFmh+bDzb+YarQmkEHG+e9OHFrykFmXWRM/xse7kWJ2MkRyaEGk0ipFb8GI2hQfbFi4EvCSjYxjE8j25phADN4DbaGP22qP/+63v/2HSZHf82BHwuutTf/nBstP/noYXwCmMOgFTHjSOG9qAWI7YxjEYJD0ZLPZ3qUCvLkKyVpPt5TvSzxDeeATh0f1Ycwsha4iYpHh7jD73XOn9Kx28rMmGDoiCl00JjGjk+oCPM420eM/UkYKXso+0eVhqY0OdOk2xCtixr4u7PFZ9uE4y107BzzKTnVkEH3EVI+xGCOZjRAsxnJdCNPuTqA+aCHNN4kpNjT2tJjMsAAAgAElEQVQoAl7amzbuKWbPdXwmjDcPn3MTMt4IbW4qwYjsRlK2KQdWlLmALynunBaLfoIXD6hobxr5yCmpRPBGDzHWMVHOw5v/NtKF7+Dg/hpmJ31MT7hohBliJ4WPBH7RhVcxK0B3Ax17LYoLLUZoeGUVoahi5BUL3wE63QKrawm6/S6ee+lx/PRPfRB+vgrPZcpNOnS118ubQJpfA0Q3IJi8FX5rH1azNURBjKgMVdpPgNg0Qkvx3izmY7tqy0QkeMk4043bRl6C9OP8zI2ajEPZlCG5w9qrGOWPJAeeeBYLd9+HzpMvoNVJEPcH8NIcMZ/xkiQVsuEYmrI+YzefGq2y/1BAaugppZsqBTA9hjqIMuls0dY2J393g5cMEEskJvKiUHa3yrHWClEcmsTClC+kDbnLhrnJ+SI9d2PHaJM7ykuJuDbXWkN+E5koWtTQcSGsYbk/QDQz96n3/szPPbYb/V6XHbx48X//Z//2N9tBOOOwoOtS7iVR+iVz5EbaRNQejFqGjA6jg7JEd72jE9iKDg3RRlMImVOh0wpQvOEQ/Kvn0Gcjneug5ocYpAnyQAkMdvGzEcm5FsAr89/swzs2GccAW65p0+501JYw2uEqYFgPJqPAZ8Z6fIemSml6R2yOnJOcYGRJErRfqSURWv0WojMhcMKBc8pHvd9GrZiARxDjYkUyh/QFiSfJyKCW2SQKiTLtZvQrx0k29vGyoCqwbVIo9r9HK5+uzX5FUCLUK4ByDewG9PwaYHXSxVLLRzdKkPnLaHlncMQ7jqvckzjsnUajWkbJbmGTFiRhI6DaNpU22AswpNcrgUZTdTpOMpLSAG3+tGly4/uVlCmiwEEjdOFIQxTnPutdTfSqaSz29uPQde+E37gG3dyDw9YF0O5ChXe1SVxrijrPVazTtjzIqQggm/lhGIhDVm9JvUamhdTmxeemj+l607/FICmjZQkXPNcR524R0OWfawNkn/oM0mdfQmdhWXQI69yR07KoYEO3ETR8mQdrvA698WWbQMlGXvZF26jTXZnP+fnPmr1eFTdkEtFW4q6RN2KsTUU4c6iO9TrBTZ8zbupF19OsvdsZi4LzsNm+550/+VOfC3fBnPKyg1dvaQnf+sJn/8cwr3wKawaGSEEUF2sTk6+14GV1CiW/XRTodbovC16572CtHaB849Uo9rflPTxoStnPUgEvq3VnC/rbuWF77x2NgG74uTCrZbgsoKb2HuY+4izARNaCwwbnMwG8xQj+cg1ep464aIrba55XQnDwxixJJEI0Svamn9fMAd2FW/KJQIS1bLEq9uOMQcOCU0t4rblwgVYhXYCqSr2gg7VmF0tTfSQTq/Dai5iO5nGNcwoHink0kzNCaWeqMyMRSEDbRSz8BzbC67Vv5SCgUXaHcz/wKniSr6UAbxOlN4uBexWiqbfAaV6HBJPIKx8xcZ8LUVqCit9Mc9o6xhCQDJNWgctCqAUvjWoEC0yfIFPxUvM0g01/Ldajfba1VBXqHEC+vdtXVebeAMmDj+CZL30NVy120VjvDxdGTSUrwIlw9vgN3Mog7b3n5UeAKfyyVC1MA17SQhSHWJ8McfrqFtYaI/CyGxXeX4e+aWMC1Rc71PTA8+PW/O0/8qF/3Txw4GLfvu3XX3bwWnr+WXznm3d/EmmGgGkmIkhRilKx9A6YGtZQNcOI7JJ7yxC132cqZRR5DTdepseLFijdqQj+W67Hekvz+HzgIrjirMwU4h54bXuenPMDtP9GfxXQpsM0Qkp0a9Q9PC+El4XwByH85VBAzF0MEK4EiLoNtPIZASBRUmDakmoBjABkMdXIQnrOjCIHiQYihCsyWEaSitaGtk1AIp2xhmVVwNI4yPiQcXtTMV0p5z4PTJxEfuA4vLnjiCZOoB4sYzIboJblCKi9R6qwn6Hgj0mpRilreK7W77YYBRC8StF25FcM4DoJHJdyXjWU3n5k7lHUrv0hwL8GKCaQ8jpCRkUZyiIRl9uqIPlC0+kCUwasLOlGmtaNDca4IgtTvzyIS0ztUcRXiSekohjzZskMFojSFD4Lhas94OGnsPTth7D+0knUegNEq+touio5JhtHaZgdAeHlmXl7nzocAcm9lmKyyprUsIXI96QZf/m6KSGxSbpWt146T4ygr61lb2VECV6VF2dv/uEP/tH00eu28hHbes9lB69n7/nG5EtPPvXbAY38+GAwUV+wwK1pQx5S+7KSTwa8qjIXcGOK8XzgxeL7IHSQ7WsheuvrsOyrRYLUYrgldZ0N7qG6SGxrvPbePDYC4+AVGqUM0TxkX76bC+AklIpyA4RVDVESo96pw18NUJ4p4cwHaK7PIRjQTZsJNg9hGcAvKQWkBAyCUsa+QM9qEJpUJ3vXJMIY1ZkUnTamm8xmVCWL+Gu/QO4k5FHBqZYw1VpAY+I4/H0n4E8chxO+BLdaQ5A5umBXdZSeh5RpUS8DkzIks4SpykGRuHIpwMsD2ZspHId+Vi4ydxI5DqI5cwcwdRtQuxpwWDfLkFG53snhc2OQU5eSAGZujETA/H0pjb1DyrwFWEPIsWxDK5xrGNeSEdTnrRQLkpCLYzcDnn4BK3ffj+WHnkCtm6DNce4nqPnGDoYLKElVDB7Zp2Y9UPaemMs7Aiy1FIWkjm2ky007a9MkIq1dP431pq+1aqYKx8CLYLcd8GISPkOA237gfX944OZbL+91nuPTLzt4fe3Tn7o97Xb/q7AqEZNgkeWyu2ZKgoOpZCKmjUb9ChKNFQpc7AWR4ywBzlKK8T2/gn90P7xbrsKiLQTw4St0J0L9OqussQdcl3Z+adpwBBYVF07j7kxPK+vyLOnawkWQkZVYF0PMsufAWfGlybm+1kZ9vYVG1kZcxCI3ZbMZku0zdR1qtxUuhZa1U0Wbr0c0fJkmVqnRdBrbNZvZLkYUhdtHFS0iaB5H1HgBBw8uIA5PwQ8Y4XeAck0ASnQLvQBZRZKKo2xVl0QWgl6uTrSSstR+rK0eXAAculFXFNTidfXk+4XUUjWR4zCa02+EO3ULEB8AgiYKPxAtQe6mg4LkC6WWi9A6Nw3yw0qIB6+IN/QCaqqQ2p76baJ9Z0gtZEimVYZa4Iu0E9b7wMI6yru+jfl7H4a3sIZ6UcFndMUGarUzVLATGS7Jz+pQ0GPPSLltdWz23ncBI2A2CVzjLHgVjsxgLNWB9WsmxWE59z3JRF1q8EJQx8FbbvznN77rvb1RR/4FnPcleMllBS8amd316U9/yMvzt3hZKikKgpTNgwtzxaD/ucBLUoZ2K3gO8GLz3ZpXYuq26zE4Mok1mk/am8iiiecKocMSNvbA6xLMmLGP4HhS95CHREcuIyTu/K3Nj2EtVh7knyRf5wrNllJKfhohWAzhL0QI52OEq03E63X4WYyg9KUmRuWGIcXeCP8KMJr4YNiIbWthlEginIjKvrLbhCshKcgMhXcSfvsYWnPPoTn7EuoTx4FqCT4JEErBNCtxgdzlTyC7VlUe5vwt4FWcyyrpVpUEr21a0Qv7L9I9GrUN5YfutQFSykJhFl79GjRmboQzdS0QziBFDWUZneXVVVLuSxqStfroFbSwGdI17KgNFReYPRwkrLepJ6SaX+bAqUXgqRdx5qv3ojx2CuFSBy3HVxdj/l6AypEWFmkGF9V3RqqVCBdLDZuq76YGfWln3t6nDUfA9NBpR4uurUwJcs4uRxVWDjXRn64hibkRUxNf5STr5n67kVflhUC99n+/96O/+PhOMw4vK3ilnQ7u/cLnf7FIBlcHwlLKRctMRHVhaJimoCu7hlLtT1wOcJai11PfL32qdbkalsadEgMfIgV1+O23YqnlIan7SIt8aPkhC5bZCFr2lXyGrQHsPQPbGoGN4JULcBHEbBpNpKhyl37NRoBZ2xyUHcXUro9pfxLVaol8pZLm5uh0G9FSHa3+NGpVbBRzN7JF+fmskQnLTmRylZcgaUSK03KHKY7EmsK0/U9etIhw4knUZ55FffoZ+K1T6DtL0lvlFwFCNxBBYdL+U/6PDZo+FWcDOAIUrC2xTksqu6W1q6zWVg+BFZFyCnQhIZ2d/Viiqs6FJkAvYzN+HUHzCMLJ1yNo3QQnvAEF6kMpr8Q4gvtsZGBkNdbHw/qWpZvbSJRyWdRD5CYBdCeODHXx9ALwxPNIH3wCK48+iWC9i5juAkwPciOYZGBK39aqvahmLJLN82kiLikDMH24B15bnRoX9r5N/T+WdcuUMc0pl+diMeYdNCLJQtkcARuWLgV4ZaxN1+N7v/8XPv4Zah7u5HFZwauzMI8Hvnzn7xW9XqPlB8jSgahy8yEVABmjxvNhEOAyKtxFmgh4DdlKY+ClVOQS/QBYiYGj73krTjsJylaMfppISpIHF0nbnGw1/YZW2Hu1r23PMwEM00unNuNqsaKMPCVJsIFZZCBsvp0pOEOw4AkwvetXPgInQtyP4ZwKgOM+wjN11Ei1L9ngHA5TYzZ6tq7YVvbLMhDp46VwZtJZlBTK1wBvBY2JecwcegHNmWNA+Cxy5zQSv5Rmd8IWI0M2zlbCxFLSAv3mqDrg5KEBL4IzJaDYkkGCiTTAbWksrUeYiKo67AXTLAGVvDmuZGGq9YonO+lOFqAIDmFi9i2Ipu4A/INI/FDS5yRz8GC6j+olVsGEaigipkqCinFSYCkv8wlcOQIK3/WNX9jJefTu+iaW7n8MzZUuWinJ0BxKY2hqyFBkrEk4a7SprDSRbECln0uNIkVI23jvbWmA9t50YSOgPjsa9ZpWjdL1IEobkwGSuSa6EzEGlwG8HNdHD87p9//yr/6ffrizGoeXFbxWjr2IR+/++ifZsMgeLxE35QMvoasJWU2oyy58efiEPp0j6XWFsOGZHLpVUpBXSXW5RCeo0JuuYe72G9GpuejKrtVBTtkpKnmwudnXhdQql++B14U9Dxf0KqanqAjBgwu8GEuy6dnuwGyTuKj5ycvUcVkbZVkTK1QiHE7hSh0mLkME/QjOaQfVSQ/hmSZag0kEOWthdNBVfzBGF+IjZaxbqEzE+lueAFwvvTBDkvXhezUU7inUph7B7MFTmJg8DXingGoF8FJV/BDsUVdgsSwRZ2g9d/ZtST1HrlE6vKRJWyIlSfPx+rdGlRdSRKXjx9qZECxM87j4kRkWIQEVfoHSi9AvaiicfWhPvxnB/ttQ1K7Ceu6h5oRCiMroqMLzCoGEtWWTcw2NPJeUkCVYzOEWPQSUIT+9Dtz3OBa+fh+yF09i2g8R+S7ydCDR1gbDzaFp4QXNkL0X7dQImCIxJfN0A+SKssZa2xeNw85MA12Xz5nprfVUnm9brQyGsLRe5P0P/ton/uQ1BV4LTz/pPHnfvX9AhWkyl2QRMODF/pahGy2jrjHwEpZhr6ssRJNWlG5vK0BrjCy5s0gPTWDi5mvRiRwkppM/Ez0u1gs0vcHD7kS5U+fNHU8j7tT8eq19D+srlatsUK+I4JShSA8ZIxRJ2anlCg2fjPUKU2/c+oMJLtbKqOOn7FDeKb47ciKRmgpXqNRRg7cQA0shgqSGCE1EqMEdqNFuUAPSTGWPPEYEjJ5kF5QAfhdZ2UVj+jQmDj6E+uTz8P0FeFVH02g8De5UpcHXkE1MaCeRjzQ1a/1IFUhYdIsobCZ/SsQl9SlDKrrIG0xSOutnSvOPUDhqR6M1WtVOCdlHR3V6zn/Xw6BwkJY1hNFhVO3rERx+O7zoEPyiDmRKu2cmkGlEocsX5IP5cHNlb3JbQUsilxJUpIZ8/UGsP/Q0+o8/j3Y3Q5t3gHWsvKctJixUm8OqMKh+ov3HrQH3RQ7V3stfaQRY4xcpMAUvzk2WVdbprLyviaXZumq+2szWpQAvY/KdBSG+9yf/6z9szs6+0lle0t9f1sjr6bu/0T79/DO/Q+DyCEQSb2mhV8FLi0+2uY5gFpAmnGVI+z1pdrTgMw5emtctsR4C7g0HEV17QG4MgYmpSIKWG/gSgeluX8FLaiV74HXpJpBoJGrkQLYcIxMR9rR0dWEFGtahY+SghuSBUXRm6528337lIHJDZU4xwkoCuKsB3NM1eKdiREtNxIMGAqchShOB8Q6jkwj3KSQekBeSOQnc2hl4E09i4tBxtOZeghu8hCJfpX48gqpmyqiDoeCrmS1DuxyNODSVRzKKqmQQBMjuMz2FMgZbW8AJXi4IIh7KqoWMzEWiKsfU6Qt4+tI/RzYiUzJ8XSVOI0Lm8GZQ23cHornbAWcfqiRAHjHSpLMxd9gVaob0IvwKBsrcJLLG9dhTOPH5L8I7tQh3tSM6oDXPR8zFbZDIc4haKMK5mq0wqWCRRBk3gtwowXahk+v8yhoX+gl7r9swAga8CrJk9YkUJmm34WEw18DCvrps8N1coy2+zhI4tjOSJTU8owBvfN/7/3DfTTdv56Mu+r2XDbxYmH/0K39/1crJU7/klwSvCh5FclmREAFUekfxOTChKx8ak96jlmE+6Bu3WbWPkE2v1EsYgelOmDejcfvrkM+10JNeIEcK7gnrFgGVH1QFwYIXR4fClHvsw4ueJ+d+g2lEJspYrbxxjTRN9eribmnz4z1RKgCsjbG8T2QWMn0o5RSp1RSiq1Yr6qitteDOh3BfDOAshoiyGhpVA07fRcNrysJModpQDIQTpM46vOazmLn+SURTT8OtLSKvluBUCULPh8/IiSQiYxWiEY/yxiVCGVNytsacIyKKO/w9f7cd8HKE9E6ljLZEXpXDaJakkC4422kqScagyIGI4SVrYLoRS6o6UvdqTM69GZi4GQiVSs/tRIFc7IOyJJXojZY2gkInT6J71zexeN+jaHVSROs91NhgTNuLIpUImKl7ZR0a/UDTAC5LorRGmMjL1J7H9UMvdGbtgdeFjtQFvs4KZ9PI1GiGspxJx43ubB1nDjWxHit4SfAgkdeIwHGB33L2yyoHvarEzNHr/vTtH/6xF7f8OVt442UDrzxNcc/n//qN+Xr3R4OKxWH2syhQjYMXi9928ZIif1lJfxfBy0Zd5wIvIhLrXO133CzKGgmZUL72u2Rc9rgDEW21PfDawry4oLdofUZyb4btpzUiMVw0ck/aKKuRsmwaDFGXpApRyCAVXsShyOjjHNG6D3tVqGahRo8VwipElIaIVxvw5334JwO4KzG8QR21qglP6PWqXOhgAX79BOr7nsb00UeRhU/rhofpN49N00yfjKSi1MBz2OUrCz0jyBE5xNL/Vf1cvM0k9ckNFdXxtxZ56f5YG7SYNhSo54CQMSmhZCnWJXRnZlaCaXSOhXgqIUZWkf4cw4kPo7X/HcDsrUA+iTJlLZE1MiAKI6CbAydZ1/oOlu76FpzFZdDRPF/vokE/rTRDIQKsnrgxSDqf4oZCfjFkFNu+ZaKwoSLWRV775obuvfaVC3rUzvuiIXP6HODF3/VDB925Ok4dbKDT4EbIZhI0vb41qtHodDzHQ68sseZW//Djv/nf3rm9q7m4d19W8Pra//vpD7hp8o4QBevNI8t62cn5pjh9DvDq9YWZaPsGhM0kqt1MtHBRq8DyRqfho/XOm7FMtq5pJCV4USqF4MV/o3aXsK/4LDp7kdfFTY+Xf7UofzP9K6BEMNI6kR4KVpaEMPqksaZW6ZBiGME8mEk3csMhFHH+KOOOFiNOWQiVvZE1UOtGCJdieMsRsgUHzmoIrxejAQIZ33kMUzPPYd/R40DzXuTeaSYK4XraS8U6kFMNjEgp2Qsq3sxDI0caK2o7p9UA5CZLIsyhh5QR3pXFe+vgpd866iPTlCEjLl1aKvarCYuPHE3pPdDzJdhRiST00ElqCCZuR2Pf24GAShxNgKDEfqx+D/kjT+PMXQ/CeeYU9vULuGmGMu+rEDCjK2Y9eLVs9CpV8Ub6tITqbpyNx8FLIu3x6OvCZ9UeeF34WF3IK8fBi3OVGocyo0rdBDLTtD5Xw4nDTXSb/kbwotCy9c65kC87x2v4WORhgKUqf/LHf+N3/3KLH7Olt1028Ep7Pdz7+c9+tOr3r6Wit7WhN8ua2mqwuGhM/VShXHPySa+PPEtE7ZqH0j83gpcfuKImX/+em7AUEZ3YPlqJUy4jMIbMdmdhwYufxcbmvbThlubKy7zJsuSUFGBQQPqIhElotA61FsaogUDFNFgpRARKNTG61vSiem1ZE00xK+UiLdjB1DI93VQ7r57H8E8B7ukI1eI04kGIWtpBKz6B/Qe+g9bcccB5EaW3JkyFim7GRYyS0ThrYiYyN9CrNhwWyMYMDzcCLwkePFclaagf2db3r+OgqaxGNlkbXawqRFmFEtdKej3IULqJRJDDFGKVYpBGyPwb0Jh6K6LZtwHBQaCTAafO4NTf/A0GT72A+kqGWa+OcpAjzwaIIzaD+agygj0l/I1avBfQ5VJaG4okgReMMUcF3RWsOVYSNV3gtZ9PQmsv8tres3gu8OIdYq2Uc4sZqc5sDcevbg3Bi1kIu7nfLnixDaaIAiy75fyP/Te/+6+3dzUX9+7LCF4d3Pf5z/+zst+fIHgJ5ViQS8NWoRuTMm/o7ePgNeh2kGcZAo81AG7++LCocKh0jzPvHwXoTviI33YDloISbhRIjazKCzghtbzYXsRvcYQmb9mF/HfRATPK2xc3XHuv3jwCVu5TlcptzxMXxFEkpg7NupWQTYu4K1t7V5ouKiCIhxW3IMzFC3uQnjeVkCPYCyYtFuKmWyB1+mJwOZdPIFhtIl9sojy1jnZ3HkenV7Bv7hk4znOovAFITWRtqZQosYnK8TUtJzR10+VprEJsxMgIxxI4RskVTWOq9JVqLTKtp0aKbBUYd/W1tbBRVCdrv7H2sHCnzsEa8akB6Ch9Kc3RTk3EcRl1Ob6CF1uo5bs4bmUPfjCBJD0Axz+KxtxbgcE01r/1Ik7f+zjC0ycxlVdo5LRR4cSnJzzvUxeDdIAwqqvUluR2jYYWz5HMF3nebKQ8iqhFdNmct9bAXvnYA69XHqOtvGIzeJVjNS/OzwH7YWfrOHmkiU5bG+Gln1Bep5mp7Rzs4+sXBRbTZO3HP/F7/2In6fKXDbwGnTV886/+6n+IUQVcvGgbwSIwRVdFcNWkDbmGUe+QsjOULhkMBkgHiYSzbBZVuq4qVnPHTSCi5NO6WyA4uh+45ZB0ktvOct4IqR2YNJDt0bERgfZAbPz9dm7e3nvH4pJxA8HhIjxKF+srCXKamtNj1FCs92yUgpNlkX1hYxqKEqkYAggX8CDz4RaB/EwMVnHV2guYzY6j7s4jDDqM6SQCpGEkPyv1SEmn6K4qb1g7E6/wh0K/lvrOBTotNH1WiSEf3YiNanpJzmIqIMp56ZdNUelQyn+ByiXfj0DniosIr1nwQNQ/NP3oOswWEJBHoGfTrjpGmpbVuW2UQkSUV0dRIlRKcmUuYmcGyJpwi2k889WX4D9ew3Q2ATfvwZWaM/cIpMxrxKtOzSQ/KfhcVAQ0dGzem/27PQJD8LJP0xgYEchIl19reugcmcIaPeuYVqRaim0wP0t278KvSLjEDEx8mlRW/Xd/9GN/Up+cvPAP2OYrLx94ra3ggc989pNuzhx+LpEQd+N+oZHQELy42y5Yz2Bp2EE/seClixiBioVkCvTqIkEbeQcrQYXw+gMobziAtVhfawFrfJdnm5PHx8nuNTbf+G2O5d7bd3wETH1KSOQDTCZncO3Kc9g3OIU6uvA470R1r0TA+g8qDPxAwEL6/kxvF0+baRZG57qImyhR+mY8idRL6iKK8rvEKcIAZBbAaxgzzSwAfSlZmxO3LFq4MMqXOi1DNJVFI1GE9HMuHipkS9bt2dHL5khlRCixg6zZCDUQZXN3nRYLQBkjfWSA7l0FJvP9ArCWUEKiiZczJWiZMtvbde/47d77wrNG4CzW5hh4cZ1kozKJGoNDU1ht+1gNHZSBBz9TdreUY0atfBc1wnxK6HAQhjH/I7v9x378j9qHjlzUZ2znxZcNvDrz83joC3/7SZ8P6yuAFxuUfZPKs+BFmR8eok3ouRvAiwaU67GL+g2HMbhmeg+8tjMDrvj3kqeYIa76mE5O45r1Y5gazCMqexJxFdTYo4Aw2yecComnYKGbmlEqTNOcqvwhKiHCemSqrkBeJSirgZpmMpVXsfDNlJ6PLFUxVM/N4cqHckUwUZ1hTApslgQvsUk2KVGmwbl13Uj2OF96zd6m8YVGUqhVhtCP4KY+vJQNxhGw2MDK3y6gvtpGxc2iMEIJcr5YqGiolUtP2YWm/a74afIavYBXAi/Rf224Al7r7QArkYPCdxGw5+8SgZfvh3ByBzd/4IN/uO/1N+3YSF828Fp6/nnn8a/e9QcWvLRt5uzIi9Rf1qoIXtwRErzYmzIOXkLsyE3asKikJ6VT81C78Yiqye9FXjs2YV5tX8QcflwN0C6WMDuYx8HeKUymy/DKgYAXIyfp22I9dIxtqnR4WcUVxJxMd6C0axHwsum1PuM1TT162nMl/WhsVqbSBloqPuusoXAGQ2keqauJOK3WGJj/1hSdoaILhApJf0PKbivgFXgh3JTix5Eyksp9wNdW0X0qgd+L4AlwanO1qNdLmY/1sz3werXN54s9nwsCr5qD5NAU1iZDibzoLs/IS3tutxd50Umc8qacY0fvuOOPrn3Hu4xe3MVeycW//rKB14sP3Fc78dh3/jubNjwfeEmBnLUwpveLEr1BXxQ2qJwgkZdRP2ZqkexD1sJI/yR4Nd9wNfqHJ7BOtuFe2vDi7/5r4R1VgUbRwVx6XMBrNjmDZsoG33Ro/yAQJaoQrHGpzBjtT1RnUTUW2a/F+heZkEImEaV4pvZIjuC/aMTEApaY+jkZXAoIFnV2kKEMukBIsHRRlC4Kicw8VCWdlShwywjNg2v8v8oql89hU73KD56Pbn9uQoRGYJo65OFlHgIvprQGUEwBx0KsfPUl1BZbiLJYmbiStjTtAqx5DZuOXwsT4Sivp7oAACAASURBVLvzGjaDlwg5m6FgqxAjL7YSDQ5OYn0qwnrsSdnFzSkaoYSc7aQNnZCKSBSS9tC++qp/9dZ/8hNndupOXDbwevrur8+devKpX9fWS9plnB15KeDoQ0vwoiAvPbz452bw0uiMhcYSA69Cp+6jfctR9A+09sBrp2bLq+x7RD4JFVrZIg71nsNscgrtZE0iMR4i1s42Jl2m5f8rMRYrh43I1GIURitZfJ4aXSplXqQ6pA4mUkkkGrENo3Ik3ccuDkJaVTWQFATFVPoQKy9AUfqoKOvkMM2YwXUH8CkDVWbGoNGD58Z6PpQy2zJ4kbCrYMrzi/xIGpTdNALSWax/5SUEz9cR9xvaeCzSVpGyfNlcLQoLo2bsV9nt3TudCxiB8xE2RFzIgNdKVKF/cBKd6VjAi2WXSwVezLJz+tFsNpqd+/Pv/ZmPPH0Bp31JXnLZwOvxL3/xdfPPv/izNVGAv3Dwog0KwSsyzDWVgiLTq1R7hbIUaf9uK8TErdeiN1vfA69LMhWuvA8hcy9Ejqn0NK7uPiGRV73og6lqaYcQqScu2rRqUaUPRkxD8JIeLRWzzT0aVSYoyRKU9CE9sAI4Bc1SAmEJMvqH50uzc1ZG6FHSPm5heTXD0kqKTrdCnlNw00ctClCPSky0HbTrfTRq6/CdNVRZX9KOPhrCNpQetwsS9t0cgSkF31oJ2X46qpT4GSm8TeCxFP1vFqh1JlBxhSGdn/UvshyZJt0Drytv0r/CGVtzSQtezCILeB2YEAeOtZqHzERe2nq0vchLshYmbejPTH3m3T/3i/fu1KBeNvD6+qf/8zv8QfIBOihbwgZTHGExosrzItnBwgeQzf5pnqHT66Eqig3gxa3u0BuoLNH3gU4rxNRt16E7HaMT7qUNd2rCvJq+h/2DYdHDXHoa161/B7PpGQSUmgddnRn9ECSEioHMZYTFlEoi/VTsyxI9xnHwEo8u1q3IxKJcVQAni8T5mRswRlilHyHHJNa7dSyuAfd85yms9130uwHKvIaKNbGqgucVCP0CzTjD1UdiXH9tjP3TJWpeV+txhZpeOqKNeCGq9GeDl0RujAjJwWdKtMgkFSSN3b0KWGyj8/l1NNYmQZVWiRp5vaJGo+l61j0uiib/apoAe+dy1giI+pC18HEcKYEuhSWSA5PozdSwVveR0Ig0t32z2wMvug4wbcgNXhqHd/7gr/z6P+zUbbls4PXNv/r0D1fd3h1CUTZsw3OBF5tTpeYFJWsMUq0xuHkhppKiriHyUGqhQqAbBEAy3UDj9UfQn6ntgddOzZZX2fcEZYp6vo79gxN43fqTmMqYbteHkeDFSEPbMtyhYrsr4MXGZ20q5mu0aJ2btKFVzqDFSyBO0H5IK5IBEEbol22s9qfwlbtO4/lTBXpuDTlq4rRMEoguHCSAFNJwXGQJ2nUSjubxtjfuw9veOA2vOoXY6yJg9CMyunqIBZBxRrCZBon2NhwWxIy6u6lwsHHb9qcJJZ7n0plD+rcdFM+5iMo6XCdCmRmnhsAT4829Zv1X2aTe5ulsroGRH7BWc7DUDoCrZ7FIGylhzZo0+jYJG6o9SrNWB1Wjfvf3ffxX/3abl3DBb79s4PWN/+c//4Tb693iCzVL+7ykSjDWpCz/Im60lOtR8Oon1h+qEIUNPsQ2dWjBi70Lg5kGmgSv6Rp6e5HXBd/w19IL47KPdrqIg/0TONp5Ds1sWSjgVIfPHUZaLgJGOHQaIEWeTb3IxKWYqh2qXahsQ3EcHutkpwUJGYWuF2KQZuJk3C1inFyL8eVvHMNKZz+6+TQGXg1MXpL8wfoYWY2c75KQEc3HAAFTK+kSJht9HD2Y4c23TOD1R2OsLT2DRuigKlkXM+chLSImKhpzGh/dt43gxQhSKPMe2ZJGissQVMLuNHC3g7UHu6hnbfhFLNGopBpNf+WYXddraWp8V16LFWoY35CItmE8Aq+lEMIZuCzgVavf/48+/rG/pnD0ThyXDby+9p/+00f8QXL9K4EXC86SvnAqYRr2aVzJVEZO1Q2lFRO8RKpGKoPaeJfMNtG86Sr029EeeO3ETHkVfkejWBeSxoH+CRzpnkScr5n+JYKXEi4seKUUahZLHhIkSvhiMaI6l6qlqBdodQqHoryuxy4yJJjGky8muPuhZRxfDrHSj1GbOIi+2cESuJiOZLPz8HMZTQmLNkXgsbF5FWF1Bjdf18Db3jSN/ZMZonJBHI2FSUuJwTw1GQY9obOdbq0ihipwOCWbqDeDl0aAYb8NPDeFxTuPodGZFBsZ6TUTJ/NCW1S22KD6KpwO39WnZCMuyxwcyuFZ8GoFqK6awVLkoO9fWvAi6cdEXo+96+d//lM+m5Z34Lhs4PXVv/yPHwvS9EggWz2NvJie2Rx5WfDi42TBS2SgjByUBS/uTKlVSMmTPiOvuRZaNxK8QvSpfbNHld+B6fLq+opmsYKDvRdwcHAK+3vLCIsuKsMYLM4CL7VlEbLGmF+X1H7EuVgXfGnaldcxEpMkI+Dvx8L6DD73xafx4pkaqtp+5EGIbsqIjWQOUvEZbTEdqfqOjPH42VTE5/YrCiL4VCMo14H8JK474uJHfuAmNItjCKtl7UWjDFqZSTqPKXP+efZxNnjxutIgkefLNS0APIdw0ARW5nD6c0+iuTSNWr8Jl6QnqZXpM8Pnb++48kdgXB6PV2PBi5snRl4LLV/ShgQv1sGYVVCg23qfl665aunDGi4ajaff8bMf+fOwTr3My39cNvC66y/+8tfDLJt7JfASlpRCD7r9HgZ5prvQnIuB/Y0WFy14dZm33ddG+6ar0Wv4e+B1+efJq/IbJvIFXNV9Cgf6pzA1SBEWAxRBKsK9BA8qZgQmwsq8MR1D+nEZs8nc0/QetQ0llhEHA9ZpM0k9Jk4bSXkYf/OleTx7jDWvfejkLupzAZZX1hB5k9ov5iSaLjSNzxa8JFVJs8eMGoQDTNQdFMkC4nAd77vjAN56TYaWtywMW49hEDdoJKKEvvQ7bgYXq7av1H+yKbXRNPUJXmw6JvXdl5qXl9ZZHMapLzyFxrFpNLstOExPCgNTsxny595xxY/Ay4JXSO6O1ryWYu39upTgJfOfz1OzeeztP/1P/03cbO/IeF428PqH//AXvxXm2RQNHTZHXrr1Uz8vplrkr1WBTq+LpNBdJwkbG3QJXUfAi2PUixxk+ycw8YZrxJByL/LakbnyqvuS6Wwe13YfwVx/Hs0BFSYKFEFPephEGL30DHjRZZv0eTXJpNEk04k8CGq6U7VkCwKXvjZzakiq/XjmWIj/72+OwY1uRC9tIvMCDKoVARg3jxWwXNZqlVxRUrNQrFX4Y9o8nErAizZbZCGi6uLw5Bp+9F11HJrU9hCJCqmHWOQIQg9ZRtuWjcM+Dl7qxOCidHONvIxFC+t5lK+iWDHyJpa+fhL+o3W0BlPSq8a0oWy7TevJq+7G7p3QRY+ABS9r97Qh8iJ4tXw4BK+6h75HNq36QdipcNFfaN5g7YvEAb3VOvO2H/+JfxXvkDjvZQSvP//tMM8nLxa8BmUuRA2CF9U0hjl/A15sdu6FDtIDE5i8+Si6zOHupQ23Oveu6PfNZKfxus59mOufQZjUJVlX+V1UAiTcGFHDTYV5SWiQ2hBIxLDgVQp4yTrOSEVS3HRGJgwFSDCJTnYQX/jK8zixOIEzqzVEjf3ISk/aOuLIB7KegJZ1itYeMZWBsr1ieZqhVvPg+SWypCu/97wQDfcl/OPv6ePW66QrRzZw9KnLshQ+a3RkA5q03hDDhv5ZKm8lX+fkSCRtSNPVEF4RCXCxHobSx+CxLvp3AVPJLKo01+hLdo6qWr93XPkjcD7w4r93KHfZ9FFdc+nBi61O1M4kePkTk8tv+vCH/mV9enZHBvSygddX/uw//E5UFO2XAy9eobWA4LKy1unIDjQOQ1aujfq1Plysg9HXiJZEBKzs4ASm33Ct6Bqyb0F3vPrnyODv3FYP46+7FCn/8z3/mxMy59Kt2+ux2fo8n0tP4oa1e7B/sAwnr0kEpOClvV6cDiHBS4yaM7HXoSYHGXoEK/4tZRRkojTx03KoZegiNVHXqdVZfP7LL+D0cgtFMIsBTRLcUGjnVUXD1I5aoBgx340K8ZSDohai1n2lvkuQ4l9RQx0v4d03LeIdb64jDBl5DRD5vmh7BlKb4lOhiiBGRdUohVgLFb3GyimQealEen4eDQ0yGZXxp3quwsIXMsz096FIMwRkg1Ewm6nHMRubrd+JvXeebwTO9cxfrv2C+iRqQtlMa8lUdQMXC00HzjVzWKTCvJHtlIbmbe5fOD+ZDWC62p+YXHvThz/0L6548PrSn/7b3225XouGEGzCVB8m0uKpe6BpQwterK13swRJf4CQmluidiOGR2KJQsHeICvF1TX1HSx7OapDU5h+wzVYDSspQMpnnSN9P+7jdTkeMTth7GfbiTncCQ3D642bXDvJ9vpstn5XCF43rd6LA+ki3Fybg6kCXzgJiqqARyWBwirIb5SJIngVbo7M1z6rIK9p87LTkfRbhkn0cAiPvxDjzm8uYam/D5nfUhkoMTkJUJUJPHcg6W2nrEnEo2zFXKI/ifQoeyaN0qpmL8wsIY0UaOAMrpucxz/5wI0Ig5MIvQ78MkcxKBH6LZSsv7l96T8THUOp4wXG40wNPmWescYn9TaCV11+zzQpiSdhUgKn2zj9uQKt9X2S0YiJnlkmaiGSN9oDsK1Pws1rzqYNtPUPPNfm2qpZbhfMxs12ubnnDJS9kGG7diIPS5wWV81gvlahbIRwMmWbUkJqO98vfbp0Omettd1av/3DH/7fXgPg9e9+t+W6LdYP5GEeAy8OKovKdndMGbluniDrDVBLSeMkxVitqnOPgjYOokwp9QMUYkQZHp7GvhuvRZ8qycZORcFw46G6cVufmy/3TjtvxwFLcHkTYI0D3OaJYut6ak8w2mDv/f2Vx2OiOImrO/dhupiHk5mb7NNpm4SNXEg+0rsrTEKbeDMsO5GMypETvGTRr4nHl+Ouyn3InBZ61SE88FQdX7lnGavZfpReG4XHyIxkIrZuUCEjM6DRGDY+y4bN66Jw2R9GQXmPfEPZsEk0JC5jCWpYwIHoDH7qQ7egXjuOwFlCSMBKKwTupJApCrenslViokpqfCREFEZ72pBtxHmdXB2ncwoFu0LgYLQXFw7yY3U8+QUHYWcfQqdEw/fgpwl8x0VP6shWHFgzFVYvb+/Plx+Pc22YtfVCF4Dx9UHv3+jYnCXa6grF76MLtqmciGg5146Q817Ay5P1MmuGCI7MYrnhol/l8DJqxbJeunXwEku872bwkpvsVkiyFGmvjzhTSZ+ENGOGvOyR8X15CCmQKoMdeKhPNTG9b04pxbyBwz6dTeA1PmG2OkMu8H2bgWnzJH65j7F9RXt/GscO8/C/3HiE7kk0/YcR+2dQms2NS50xQhcdXqmibkgNm8FLd8KshZE8wdpYUxYBx+0K4SPxXAxwEPc8WsNXv72GXjmH0m8P+6M8h6K8Yq8qWyaHLsUS/TOVR5di1qC0YVpEfqvQiP2qKStV78NqARPO0/jIT70JrcY8vPIMIm5gchq2tuS9pfNK4KXXwdQhgTHMlKZMwJMkaemis9DCo/eEyAdzUkfzKA+V9CQCdIMQhfP/s/cmQJZd53nYd9e3v96nZzAzAAGCIABuABdJpGiLjJYSJS6KGK12rFi7IimS7MRJbKdkJnJVXKmynb3sSiqWyrFkbSYV7aQUWiRFiSRIQVyEhcQOzNbr2+5+b/L9/znv3e7pGUx3o7sBYm4V0DM9795377nnnO9fvv/7NX9203jan/F4rfV81T5gPriXh3OYtIV4dcbgte+P4MVDwIvv1POkM0fQaqJs+OJ1FWWJjuMzgI6sMI7FDe5x9Y9dBV5zc4P73/2ef9ZefonnvGzY8Pk8ryl4JQmKSYxGIQRgAa+MGlxNEw5KciVw0DJMM5TjCaokg8vfG+C6FoDtfi/XmkT7Xby87t4NK649E3ZP1sO47AeYb19Vp2ThJXz9+xZRtq6IV04pMYYKCVqUVdIeVvrI1wQvl1pwHry8Y1iDEUo3QeKXiLCKB77QxiceGCAql1AFcygqXputTHyUFQVu6VXNvDp6XZLf4m+Fhm5lqLhVUF/QNKwUXY6LmHMfwt/67vsx31tHmV0W8GIIBlTD4OdN2FAAapfnNQ0bOsqmlKLsrKmSWIa0wpxb7pzHs9uvRNW8DZXvwmE41Sng+T7S9OCb11fVZDqBh1G26OG+uL5/8M8EL14ykH2U5gvzURUQpXjy0a8g47pIcwGvLEokFXPQPeirFrz+6F/94s/1Hbf/fOAlEjqsU4ljFFGiFgMFJd1SXkRSaWyWC7IBDy0vQJfh+rUB8kub6LKmZZfX9XwkiGsRJ/YbJqGNz/xcPSpZ/+76xJwC6665KmJARxTWPNyyePGfPepcwiu+awHl/JqECkWUlDF/hgi5YE2vrKufxOSKZNxVpULyVaLkMhaFebIQCV4PPtTHn35mE6NsDqXHPBQ1AQlJgVBCNCzISUDvpzItfrhhaL8whvK0b9jsLjTUB7RwCWdaX8b3vPsu9HvbKDN6Xg58fkcWiPq75M5M4bUUg5p+XAqOlIPSYujMZ6iUuY6G5uBAz89BVHhIOrfjWf/1iNrnMS4yZFUuRBAqeigz8uZx0BHYvfFPjaXaBevv/kb2hAPfCxS8eDAELlEHP0AjBzqDFF/5zF8iSEs0SwddL0SRqeHyQoGX1+8P7nvfe1/6hI0/+r9+8Wf7rjt3PfCaNeArkccJ8kmMUIK4LhLGaZnL8rlZmJ5fjO0WpPw6WFyP4FzaRpgyNGKta/25e7LUPSrx9F6g3BKvJRtFbWPaDVIzy78WBK/NTqMmdND5+rI+b6t3CYvv76E4tYUyYKiQGoHan4qCuiKFZLp51QdKw2w292UEfMtQclHq6WTIXHbgWsFjTy3io5+8hM3RHDKna3ofe5JPE2/PKMdoHzBriGioUAgUBfNc1kPnZ4wajFehXV3C605fwje/fRWd1hacYlsEqunVVTnV31knxo7HSsUv2XurDOVRhBnJuykZSi+RCFHFke/jnKSGI/8+qZpYb57F463XYLt1Binl1ihDxTAjFW9I6b95HGoE6s6TtUN3rPvanmRNhcN6XPaG64Q07mtk1Frw0s3QQzOtsLSd49LnHkInqeBGmarMGOHzgz78Xp7XG979nn/WfemHDX/xP+u57sKNghdDhlmcwGcymvkGp0BOdqIp8iTzkNa0lxZYTlzcciVBcHmIgOrzFrzMWzgu8KpPlt2TqT5Jd0/knRvpwS2fg066r5bztrtXsPieHqozAxStAhmY56G3Q5ah9CgWb4iHBQ3b+NESHYT8QO+dBb0EFhIkmG9FAwmWsT48hY989Glc2FhGnHeREVA8Ctuyj1EOX4hHKv4r9WFSmDwbYYbAnYpUehXclf8Y2nQrdJyLeOe9Od54d4hWuAUXE7hlAZ/5tJydmPk97C9mJHzETJ6Bl3hexvqJ2cVZkvcMT2rejQohWXMBF7zT+ErvHqwHS0L2EJ1QhpfIyMxnuo5fLfPiuJ7jejms3SmMvUBrSvQ6xA3XCSJ1w9wSOJIKEqla2cyx/hePYC6qhKyRFBmCRkPaTx302A1e9Lxe/573flWA10/3XHfxRsKGXGxkGqZJIvkuglcqtTOVkDSYvygDtXbdrMBS5ODspQjus5toFtRLrG0Wh4wh7+dFiqXNCNWu3NdeYYLrhTL3G668+XkNiWx11zD/ri5wboyymyF1EhV5ZsFk0QBJFYQhG6bju90NXgQsCe8JzZ2WqsosFU4DKfrInDP4vT96HE9dWMEgXUDKHBJTUn6MssjQYiuUgnkDbXapqhpWiop1Y1IFJnRi+QRzTW4Oz8nRcS/hfW/r4FVnM3jeAAEZgpnWzYCyVi7FhKn4sRO89D4ZcSjh8HMOw4ba8NUKC7PYOnMaGLuLuNBYxbML92BTlqMahJlMyFJYajej1vtZ9Ts/ew2mvDo9e0Rk6kauBZ6Dhu0ErHbduk1l0LPifExdB/NVgOXLMZ770wfRm5ToNVpChGNUyy12VibuZyT2YBtu3v++9730i5Q/8cu/8p8GSbrCZnvXo8rrWy4RD8dSoCwahrQoad0WJRrmzbL7pxieVYWFGDhzYYLGhQFaaSF5sumksH/YC8SOepWyZuZGj933JxvSDVDsbn5uOk6Tzgaab/Xgvj5E1RlggrFszC2/hXQ7R6PRpllkwEstHAKD1uDlEo6Dk6riRdGRQkuloKs3LJt/0cAoOYP/+1cfw6S6DWVzFRcH2+ifaqAsIgRxBb8gmqltLYXI9Mp8fi+kgaXvt1EQWaoCAUOA+VCaVN6+WuDb3j6HtvsMPD+G5yVTQVWCkrAZeY/TQ/UMJU/lMA9cwrXgJUoh1owieFaIvSYG3ilcbpzBc53bMPEXEDAWzzo2t5Jwo61HvNFpe/NzNz4C1woN1tMWNbv7xi9sPqns1trsEIFozcNLuREJHGRmJ5WA1/qnvoRFzpe8kIa+NI6YD9shw7ePuxBjTWoePYlAOL3e5fv/w+/839svdXmoP/3lf/vDfpKcvVHwmoxm4EXWmOs6cIpSKPKy2NixUxLiwHwMnL4cofncAJ04lxdQP3ZAyO7Nfh8v54Y+uiPgLQ2c9ndMi0Fugtd+wTtqb8G/r0Lwpi7Q28LYG4rxEzohyrGLIGiiBIuF1fviQQJFHbwIYpKTKul5UdDW5oCYQ3KRk5GH0/jEpxI88MUYkXceeTiHjXhDuiC32TOMbMXCkwJkkahCigwpUirNB234QRtxVCJ0K/SbJSbbT2Chl+AdX3sOd52N0HTX4LDY2VVleiGRSKdlAqFS//Uw4CV/1nCf9bRUHV8JHFIq4FWYeF2sB2ck53W5eRqJOwdfG+sh8wohm9wEr/0t12t92lLVr3e1wwDVXte9Hnjx37h1suSjkwFLFyNsPPAQlkjhPiLwQrfz7Ju/+7v/j5e8MO8nf+VX/4YXx3feKHiNxzPwIkHDglcr3wleNHB7CbByJULrwgD9qEBzF3g9H9vwhZmue1/lesWHe4UHxDGdhrNuFonup0h20hyhuiNG5+tPAQvrmPjbYFtyhg2DpAHHZw1TJOAlvbwqKgFojkp/Z9uhaJ8vzX01jWejHhsCD+OsgUlxBh974Ar+4mEyum5B7LakPU9ZJUCh4Tu38BAwbClEI3o2LuK4guuzHQp7Ho0QVJewMjfG6+/p4b5X99F11uE723Bc0utrXhY7PLPj8y5riG1a9JhthfV5ZQVZyZYc+H1cbt6K9fAWbIXLSJwO/CIQj4uyWGRJChPyKBfEy+Ta1wIva5vWGcX2fYnRZPQpDzpMu9nK2p5nto8QvHqZg7lnh9j+i0exHLtw81K60VNdhSmXF8rzKtvtx7/u+//GL73kW6J88t/+6vu9KH7tYcGLnhdfcmE8LxbcdTMHy2sRmheHmJvkV4HXbld6rxzRQSfLtc7breSxG6jqf6/nyF6IWo8X+lleKtdLwjHyUzF637AKnN5A2tiG47soSAcuOrI4My8WpQvrlQQkZgi5ItdInwnBuU6ksktlaxY+lNCig3FWIeis4LmNAJ/4bITPP5rAaZ4V1XmSAkmPoKagXwWyEYjsTsmsbYGw0UElxI4cVXwF860NvPF1fbz+nhY6wTYaZSRqG5bMocQO24TSahjO3oiClyF+mByb3RhtyIifpmrGZjCPZ9q3Yz08jYk/J3qNqAIlpJjOyxQvnubJXiov/kV0nzdSt7kXgFmDtV6jepBctqRSdpXbWLkokSZzXHRzB50nNjH54hNYjDlXWUOraZgZE3b/g1oPGzJiUXZaD3/93/yBX/GbL/FmlH/+a7/+Lmc8+Zr9ghcFeLn4mfNi2DAQNhiJEQ4K03W5l7tYWI8QXBwIeLV2hw1roTxrEe3+uf9XtfcZ1tLdz/XqiiD7Oe/mZ3eOANuApHMTdN+6DLxyhLyzjcovUaQFmmVX5JUyP5pu1NykG1lD2YFT8CKYaX2XtHeQOiqty7K9udzAxyhn/dccBvFpfOzPLuKJZxxsxR3kzT5SnkM1d/gCYAJnLtub5KJ/6FYTOOU2Ti3kuO+ePl59e4Beaw0hBtKaxZGaNNGml5/Sl0v8IQte9VosQ7U3YVBN+muwkc9nWWYMea6FS3iydyfWGqeROm3kTlM6TBO8qCIiLVikFczNWq+jWFu76zf3qgk7rDyczBfrixsXeofWoeOA+2XjK1eQPPwM5hNHdGKtLNRhyCIyE00zSoJX0Wp9/u0/+Ld/0/eVEXvUx5Gpyj/woQ+9tdjc/pb9gBeL5qi3JnVd0hKCGuBGJYGyUMwBVBXmchdz6xEal4boTrId4GUtoeerozjMS6u/lIOA11G/1JfL9VmPFXcm6Ly2AbzRRd7fUqJEXqGRd9guGGk4EfAiMDFkSPCyPbDUiCAjkU5XqgQOs5ErhZ5ZrEDCgFk1AWnHXvscrmw28fAjMZ5dc/DEWoykaKFiGxIqzZeuEI8o/0SF+sCN0WunOHOqgTvPd3HrGRfz3RghtlBmAwTSooXl0UokUfBSmSm1zo3q9PSl7gQvm9sgWBHshHlLJXl4uNJYxqPzrxLPq6oayJwQiUdFENLxc7g0BuVLb2ob7idcXfeQ9lpr9bTFtQQR7HmHDdnu5n3x+7RTuGZIORP7JBQ9cgH5YxfRiysRP2cB+2EKlHn/dfBiqL5otT7zDT/yo7/DvPNxHEcGXl/4vd979eTSle99PvCSicAuyuOx9Bqy4FX6jsr9iO6a6etVss15hfnUxdxGhPDyEN1xJpJS16ulOqqBVHWQmbClqJpfhx674z4skeSobu5lcF2K6qZhjOp8hs472igWBqISzzxRkDJEVgMv0tMJXmlL24Qwga+wYAAAIABJREFU38U8k7wvijo1tFmlaBKqTiDrxehJsQsya2LKMsM4T9GeW8V40sSVjQoXNnOsbWS4eHkbW9sJ0swBPbV+N0Cv7+DcqRBz3QKvONNDvw0U0TYCqr37HpLJEGGotWgsTZ6Bl4YF1fsz3RcMEUPycFKwrIdPg45Q6RH8qMChHaRp9l1pLOHhhXtxJTwlbVIKJ0BsCCDNKpWCaEoEi+zUTaKreq/7HIe9llkdkPYyoi24WbLMYap77DXq30PwIgOb+XRyAfvsP/fQM8ifvoIu2bG5dqaXspJD7BMWvEQ6PXdQdFqfeOeP/PhHDnHJfZ16ZOD16Mf+31Mbjz39E66EN7RWZWpW1ixKLR4tEY/GKKeeV4HSp0YAiRsaVuHy8ooKQV6hV7jobUbwLw/RG6WS85qFeXYR/vYAiR0EwX0N184Py3W8WVHqNF9xowBmLvdyloeqL2QZDhMOsyMt/75nWIttP1JkfoxocYDFb10FloZIvAheyHpA9dzLgE0otT0IxXMDU8+lIEDw4hd4KKqWqmW4kTSknBU7e/C9ECmly9pNZPlQiufhtEH1s7xsI8l95FUAx21IE8u84PlsqhrBd8dohxmQj+AUMVpBiJLsfEqctVoo87ESQ6iRaHc9KnWLIaTe1E4CktLbrWaH7URO8oVGE1wUjo/UaeJyYxVfnrsHG+GKtFJhdJ11PySGtEoVBCgrylzpFrbTEld43NMzEPDXN2T78R1iGb2kT90NPDcKXDaNIXPugCOwmxxmt1gLXpJuqQx4ffEpFM+uS9cO7qF0Cg4LXnrbnHdUQXLgtDsfeccP/+gnDvg4+z7tyMDryc98qn3lscf+iyqeaHEm2/CJWaOv11qUTGrTe4lHQwEvEpWFKu97osEmQqJ8u3mBFjyEmSMvoBWX8C5vob+doE0Rb1PzUAexa41G3Vp5IZiJu8Hnhbjmvt/kS/UEQ5iQZWDo3sbKMRR2aVhl6pukB4N5UheFlwLNFJfcC1h6ywIa9/ZQdKi2kaHIYwm9scur5nQoA6UhMmEZ2oaV4t1whhqBUhYFG7/GEhnqOSEpGpZprLJScp7MWlXZsHKourMzaJMJWIjqxTQUaMFnxhy0xchTFiGV6HdQ42sv2HRqFpNOFkeKoEjl+4Rg4rewGc7jcngLLnXuxqa/pBqM8nWVkEf8PIGXc1SoQk+BYf333NR+aQMWrSWbkYr0GRlyUsDj/4Uu8FKdfUd63zcSEjwocNVvvF7uwDTGjv2ncqW2K3rgUfgXt9HOHcmLCq9gP3Wpe4yUkj0c5MwtByG8fv833vk3f+ALRzqotYsfGXhdePiv/C9+/GP/YC6g1poVLVXw4h6ilGW6tVeDFytlKEtHZiHpyLIPZApejdRBM6tE09BZ28bCRopuqkvJLrLnU7PQzUdH4UbA7rhexsvye6xXxVCY1A3s3AgZBlO0mIGWvjgNnyVlhLg9RnWmwPw77gDmtxH766gaGVyvhJsx/OfBKZVlqOoXhVDlZYM2ua2TGftZwbFGJyxV3rRR2RHUsawkC+Qa7hOFEKptFPz3HLFbYivoYr17HhvNW3HJPYOJ2xXwYhdnKWzmmV4pAsCiASnq+KoWIz+nMSh+1gKYfQ8EeQteGnC9CV4nM3tkGZgwp6mR1550pr2NXTcLuYf0048KwY3kNpLgLHgdJvcv+y3LRMIQQ9dBd/nUv3z7d33vheMajSMDr61nnsKXPvaxnw8yikCySHTmee0GL+YoJuOZ51UHL74UsRCyAk0RmdTGlBSbdNe2Mb+eHAi87ADf9JKOa6pd63vspmiZS+ZztdDYzLI0YrTiwZgVSqZfM8cgvIz+azvAvSGwHKNoThDlY/ieJ4w+FhFbWjxV2lOfphET28EJU8V3ey0WnMy4TMPuGvqcgrh4ZsxraFEzw4KpCwwCB5uNBVxu3oHN5hkMfAJXCyE7MxSFaCeS3JH4AQqfnc3ZTHO6GnZH93doQmooVan1JJmoEcjk/03P66RWkQUvG/2xQuFTUKpczMVA9sCX0boyRsiyDzoQpiTjsODF+Vf5Pkaeizte9/p/ctfb3xEf11gcGXhNNtbwmd/5nZ9vSVJQrUYRGDVR9LrnRfBKxiPkWWaCETPPy4KXk7MXrSvgxRdAxkywNsD8lRh9emFG3f1GvK6bwHVc02sf32M9q6knpkUoClxW+kjBi3kqCUWzZivvIo02Ua1EyFYn6H7zbcDCCLF3BW4HKPJUNtzQyknwmh5V2Ale1EA8SfBSrUNFAYIRQ5ESQzADJ/L4+plpOLPuiSo5A4WHqvSRBS2MGh2sN1bwXHge68E8ogZVRly0mS9m8T9yCWQOvSZyj3T+WK7PAmuNXuxM4WsodFaZqJsj89AmT8ZQ7z5e882PvrAjcD3w0qiSi84oR/65x9Aiyc2Al0w5kn1uJLZ5jVvm9ak9O8kypJ027vuG/+ADp+++94V9wOtc7cjAKx4M8Knf+uB/3SzLkL08rwVeVLYmKYM5r4LahibnNQ0bGkYfVQwIXsx5UQ5KwGt9iIWLk+cFr+ejqx7baN/8op0jIJ7ElDcHkFnHTVw6CGsIUbX96uQKLkjNXbG2ik0b2bW46A1xwXsS5/76GeB2B3F7iKpLHUH1LBoMj3HDlfAYe8Vpc0cJKZ5YnVMdvAJ9/h0tSgxoTcHLhk8NcJAp6LAw2pdwUVZ1semewVrjFC53V7Hd6WNYkhhfISw0vOj6bLFCyasmClrflqBiPTmTX7TFq1ZuyjI01duqCVad2NjdXEz1EbD0fa6MOvOa7629lSD7i8fQ2U7hZ1p+xFyVlCQJ+/RgB7/HZ+ugokDcDPB173rfBxZvvfVgFzvAWUcGXulohL/8w9//O+Vo1GOcXTajPTwvacvguoiuAV7aYJAbFTvPKniFJTcjICR4PTe+Lnjt1m67meM6wCw5qlMEoKznoTkpKkDsoIyLZ0Lvw3hcFri4aZL1RpZT38FzyeNwb6kwf18XzVcEyHqRCPV6PiWhSB3WBpF286VwrdRTTbUMj+ohr3ddC1763ALcBDAD3LYjw65OllMiB8GXtWeh30Cj9BFN5nFlcBs23FswWFlCvjyHYRgjcRNR/GBhskNhYDeQ0gAdDHpeNC5NWxdpJMOctBKlbBjKqvHTW2NJge0bdbPI+STmzbW/czd4+Yw6rI2R/+UT6A1zkYYieJFtyG4dhwEv9UgAr9nCWhYX3/y9f+sX2sfUy4tffXTgNRnh0x/60A/7eXHWrWYMLuum2rDhfsErIFum0KRjc22IhWdHmE+uHTa8JnjZWMfBDY8X16x9Kd6NNHCcic4qOWMWtrIhwzohQHwufo4MQS/FwJ8g6cZI5zOcf+fdwK0eUF7GMF2D1yBXmDVbBDDN1VjmoFqnSi+f3cNJDKIJyYnXZTxK0zplZ4mJYR9OWYhKsU6RwvMbcLI2xhunsf3s/RgmZ5HMdZCechCdjTDqDpA3ImESVmRIVlSrcSSXHEhLDIIR9R55TRUFoGyUVSeXkDz4ripkXi5dplUIGAhy7RR98ziZEair9dSBi3djjTb/yhD5g0+gF5Vg+oXg5bueFNMfFrwqtthptbCWxvG7f+jH/knY7h7bQBwZeOVxjM988IPvcbL0jWyaN9VuM2BhwUvotmxXvofnRa+rFKFTWtgltQ7gFSomyY7LzfUR5p8ZYiEiI2pv5uC0ENDoeE09r5vgdWyT7FpftENRwrAMta6rfoZtYaK5L/XgtbNwEiRwzjnovrIP53XngHYMBEOgkSEaryFLJzJnZvVSqpphhUs596iqcbLgxWc1rEP72Ds8L0uNtfkwQzyRCGIu+TunnEM+PoPJ5Vdg/NxrMBydRkxB4V6M4tYJkuUB8sVMGnZSYi0haHu6rrxcB5vvot6bTou0d2rflWwQK8CVCxCKogc92pvgdWJrqU7UUG9kdiukxEu4/OI2is8/KeoaVV6I1xV4HqhodGjwKoHUcTB0nOF3/OTP/NPjUtc4Us8rT1N89rf/n7dgHH2bI2xDk8Mwahl1z4vglcUR4jiWsZTuyUKiJyIZqrxRXqcbTOkTFiwvxCV6j21IobKN40ozP55D5QvTUqJefMk1p334zFs+RMz3xGbsV80XMwelrLmiSlGRSkBNQNZy0cMQ7jb/na6AgzzMMXZGiLwJumc66N4xD9zdAxYKoMUXG6PwWf1bokxjZOMxwNyo1ENpiJF6hyx6J9HcoV4mVF3+5I6612Lvw/ykEr7rosjVY/I8Ups8Dfdwo/I5bhWc5DyS596E7Qu3YjI8jdI5hcJvY+ikIlaczQ9QrUxQribI5zNkjUxqKTM+u8/O0NJzWjpDi/UuOyC/l99v683UeDAysLNi8pvAdXJTpybIa413ezPc42jktwsf5VNXUP7VM5hLHGQFG6GqahHnk+S9DnFwbqLZxmaeXvjOn/65f3mIS+371CPzvMo8xxf/6CO3jS9e/k+8GltM71CtunpBZ5pEyOIEVHkjggl0MaG8B3iJRVhW4nH1Ht9Ab5iK50Xmi5uRkaZy/xa8bKmQfKMFL7Hw9btuHic1AtSxBFzPM9HCTBo2ygZJj4D/hRT5zJE3Cgz9EaJ2jPk7FtG+9wxwSwMINoA2O+oxLZpKOMszos5Ic6TjSOnkxliRFiOOynhZg+pkFU4seNVUaPg6dtHAHMdTo64kkBl6PKjfuIDxlXMYPflmxFu3oaz6KL0+sooEDsAJgMgfIGqvIV8coTqVwl2mQEiFpFFgPR+D6a+ASjHIUIg6iCrbqODvjAE5I3EwuKibnlU1P6kZ9HL+3rrYwl7gxfRKK3WQP3kZ7sMX0M8c5CJ67kqjX99IRB1qDN0AMedjp/Xgt/ztH/3goa61z5OPDrzKEo9+4uNz648/8bNeVcDZxWEnAIkEjom9E7zE86JFLK3TFbxsFbg23lOaLl8U21fPJSV6T2yiO0zEGyOhg2waMRwFvBgeccWAt4fE860BeRO89jldjuDjvoc0SeCUjjSPFBTKqBZRAU0usiHiRoxxMEJ4awP9N5wDznWBbgF0+KK3ORkUnMSKlMJA/a+skI8nQJ4BKQniXLjq7GWVsvBYqHvyhyFuWA/Qsi6ZjWJ9lkcvkY+XS3dlIoaDBpz8LPLtu7H53DlsXb4VVX4GvtdBybwWVRSkJYay7wtngjQYIWuPUSwmcM/EyJdzDLsp4pCeGP2wWHUdfTXqCJglmRnSpNOX3GFdDIBGBrtG36TKn8wMqoMXvax6Wyb+WcBrXCJ57AIaj6+JujwLRAhepYQPD2e4C91KZKFa8DrdX/mG7/+PHz7OkTgy8OJDXPji570nP/fgP/REDd4UWe5StRB9LdeFBS9JGdPCrPId8iV18FI2FNCLC/Se3kZ7OxKxSZWPMla2AS+HYRdGoWqKGlPwEg/tOIf75nfVR4CU9bzKEdK7ygNUEcNWHtAIADfFpNxC1c8kXzP3miXgriWgm2qIMCwQpQMELeZc2MrE5o24U9feK5Un0gRIYpRFJiEx4lVGMKCwExffiYe+uPOox6P5L3o7ZB8a/Tmh9aeqioAmPKeHMusgH9+OjafvwWTrNuTRChxnQaYzUxliv/mK54ErUVfkVYkJRohb20ipA7k4Bs4FSNoxqrBEHmbI/QSZqx6sqtuzxMAT8HKpyGGQSj1XWpM3weukVvVu8BKHQAhICmQULG+MCkQPP40u98ncEaUVC15iiBwCwKTqsnIQew5e99a3/+Pzb3zzruZURzsyRwpeG088hi//2ad/3qXFWBDzjTdF74esJhMGobhtnsbiedFbkoVhZKMYHhTvbLpolMrLo5+UmHtmiObmGF5Wom3Ai16ZoBKJIqK2rVaoYFWd2GE+drRDfPPq1xoBoVz7Ot/DitRtH0gLkXzK2ynS+RS9V3fhv2EZOO0D/rZYLdzICVBOM0BZJuJhuZQbE71BgpdpM2DdbLKqkgjIEhRFLh4XNQA5R6ST8Im6DqYImGLAVkFDKPPaV0wflGuHiMSarhUgX0E0mMdo4zw2Lt4NpLdqH7EykEgrndBCyIsFwsrTULl0e6lQBY50UY7dEQb+BpLFIZzlEuFKCMxXGIcjTNwREj9WL1XGhmF+f1aYrM6fOQ6XM7m5Og4+AtzX6BhzlrB0yMpC1cGrPSgw+MJjmGfn+ZRsUUf1YnMrx3yI76dyJ/fTZhtvfve7PzB/y7mDX+wAZx4peA0uPoeHPvon/6VT5E1SlulNWQCx4EVrkInDzIQNCV5yMNRI0DK5CtusfCqWCqCblFi8HEm9lxfnaJWuWBvKoNLkPN8sNyrLpLoWK/EAY3fzlEOOAD0vt+FiEo+ljs9v+Mi9AlkrQ/f2HrxXLwJ3dQFvg8F78QrSPEGr0YTjhsjHY/ihp+FlgpfUfu0WreSmn0vosCJ4pRlK6WdEEgeNopPcfGvahk5iwMsUahO8RLSYoKalJk41B6TnkQzPYHBlFYO1W1Ckr4ZT9CRPWMijODOhjjxFw/HgimAh1wHJGWqZ0zlN3QRxuImkHaGcy+CslCiXciT9CFkjQUYvzAgM1EsYZHke8t3fPP3wI/B84MVuG63tDBsPPopTWwWaSYmE79/T2keGDa1M1EHuRtgFfoBJURXf9IM//AthmyLPx3ccKXhRIurB3//wj7hFdotsEiamXy8UliJkKsgnMaIomm0mzwNeHKJeWmJ5I4N/ZRvOJEWndKU9yg7wktIZBzlfGsONNyAjdXzD/zL/Jm7OCSlRPopwhM3GNtxzHhZfswK8ch7oMeZF8EmQFylc34HbCFAkEXJuzM2mlFBIboZUH4NDNHQkGiKhatKBTalGXqCIye0t4KS6/VJd/uTYhqY4Weq6CF6EFFuwrGFDBS/VNCzTJSTbd2C8fjsma3cjG9+CAF2xvil3xS4MZGiwhocOLb0tH7mSL+CKlVxUhYwVhQF8lyQnYJKnGAabyOfHqE7FKFYyZAsJ4naCuJEhdysJI+phRbBnyig3gexk1jHBi2FA7mn0vPhThZU1bMi9MLgyweaDj+LcxBMx81jeJfvAsVD58ODFQH/h+xvf+CM/9j8fVwdlO9pHCl7pZILPfPA331vl+f1smsfOrfaoI34dvKSo1CTbSfLY7XlZC5CXYiuU5UEmrVGCQSLgRc+L+S+lQUl1pfyx8JUfdRO8di00Y1DMggizQmGtz9MNa/bz2gWpqgpvDlNPZd+XMvpm/87tlKDhBiW2ywGwDMy9YRW4pw8sELTGKIJMldBJETcJHLJYXYb8GP6gN58XYvwwZCilFUL5UI+dIULmuByfJAQjaptUqPhfTJIHw3ExbJsTvXN9PmmTYjaBnfc+o7FzYmmNk5Wz0ivYvlp2zGxB9Gxw6uK7Rp2OocFawbZ4ktpWE1XRgpPNIR2vYvvKWYw2bkUxvgs++tobjJT5ZoXMySTHRbwOyhANyVkpBZ7Ca6XrSVdowUejGxAQG3l+CMTBAKNgHXFvhGq1gHPKQbaQYRImUlNHr1jBy4gCyMNqKxm7sq9mbu70bGdF4kbiSmr3am08rle2UMtN1tQfTwY5XgTfupfnZfP7JLB1WDXy3EA8r7NFA0FWInMqE2rUtI32szvYQSOIrV8jlF9690/89K+5/u6u3we77o2edaTgxZX073/9l7/Wy4pvDeJUrLxGo4GkyEUPK2g2JJyjFNwSg8HAaG4VCH1f26lfI6FI5lMjrzAfVXCeW8fcZoo5JpV5vaKSjsxVlsOheUkLRZpGOgJeljb9sleUNwW/Sr5k5ZPR1jPde4UIIdR1fsKqpOh4ai8Gle0CwcOrhHxRlPSUWMEfwCOgFI7WKpHiTYknn6ZhLpqDk9YYz3Wfxpn7z2D+NXcAS03AiQEvAajBJ5vlzJK0+UpFCG0HYsGCbT30MHJTVJs3kgOVE6PyEl2sBeeciyLNgSJGnmzB40RgawfHg+eGyLJCnLawyWaR2hFBCprZn8v0HGNOljVofkmGpLZakT5hEqGrK4Wwbo2Gm3p/AooFu4Tr/ToEaG4grMdxPSkels8VDHM20fDOIhmuIr58HoP1U5hMTqMoVuBUfQEOaw+WLkWMNVyu5CaTJ7YfMK2I6hsDP31VKw03RxpEiBoDDNsb8G4H8lO5emJhjLiKhQnM9cX3W7Edkct7d+RawuEUlrASsQic9UNZi9qGhQcBUeaF7XVmDJy68oo9X4CP50oDgpvCwGIo0JArK0mZsHYvcXXcG2mJxczD9ue+guZmhOYoE/ahkDUYYjb1tOwyYPOaM8Nr9sZmpoeaC/U9k6osJYWfA+93v/EHfujTx1mgLGvn/59o/+hGke4gn/vc7//u6dHG2o/NcXOMY93EfFfakXOhs4rHgtdwOJQ/k1XFNunXAy+eTC+rR+vi2U0srceYYzU52WUlKdAOSraAkKpnLlJanqrOscPrO7jhcZDheHGdY5UcZLukBW37SMk0lQ3FFctsJu+lO27tMRy+wULCd7lTwAtciAWWVwICKD34/LtbIa0SpA4t+AyNfgD/nIvwLQ3gVAV022ZlmPgH96Yql81wKjpqSiWm4CX3YnOkppjZSdW1KFsi8FuJKnuGyjXgVTWFvUOvrSoSlMkYVZmjoDdWVWgEDVV0YYixzMXrI1NWagal5MOqfJRwqPYiGoGmT5iAl4boaAxwmMqSjShN3s02uYQP12kaVm0sTED2G2NYj21N2Ak5RBd+eQrbVxaQD29DunGrgFiRLaB0WhIWlaath2jkTlDOCJaVg7AweRCK9ZNi76eYNAcYdjaRLScoVhKUCwXKfi5FzmmVIitSNIKmjA03RKrh2NrKq3a6KctYAZfgKhER0ZhUT06b1tr/1GjRY6akb5XvmbOZque8uFbVsd0Nn9/yAsKSkaUKE6+Setd2QhEHYOvTj6A1SBHEuZQSiSCv0H+UMn8Y8MrIEvcDLK6u/ou3vO87L37VgdfFL37e/cKn/uy/WQ6a0lAyyxL4rQZEa55Axu7JUvFdYDweS/EcwYtFk1QSuCaVs1KNw7ncQXhxgIW1CfqSNpiBl+ZDdLMleHGx0J3mYRfGy9v7MmAlAG7ab0j+xRTCabX31fJF8nkDGl4DZZrq9hIEci69FY6vgBap78I2TVBQtqmbIl8p0Xv1Evy7l4B5em6xMgQZy+JmSs5CVSAvMwFDtbL0vU1p7fXWKdLbi/9Y8w7JvlPVPsklUZBWaPjyex6kphOXfSkDo4PAMGOeToAqRRBk8NiwkpYpSUOVtk5xqeWiCTXtXMxnMz2tKhpk0O7KEuYUmrnxugQ8zeYuah+M1bkI+bC8AXqcvo/S72JSLGIwOod4eA7R5VVU8WnkcR/I2gjLAIQ2eQLOb1HAOPhhGWr1KyhFnrmRCkk1Qd5MkfYi5IsxCubElmP5exRGmDAnB6BZGv1IeX6GMIUvDN8oqFh1eqVy2xYvGnachhJ3hKdtEbn1ZPUObZ2Z/dvL2fas72E0ynnEXoXQ8dBJKlGR33jgEXRHuQqZi0GqRo8IK7uMRFnf6nn0KffonULwil0P93/92/+7W95w/7Ezn47c89p65hn85Uf/+B+2Cnht15VEe4YSeS0HZcGLhI081cVAa/S6TBgDXr2CAr1jzF8eozsu4BW55ueNi6tSN1wwNpeh/1avkXj5Ahg9FLuZc0Oh12JU3DlIHDMZN1U7n+UmZtYxZYvko/zJhIpUx2b6Z5Zv5TGcZoXIGSPrZlh47RLwxluBJYbdtgwVnFxuZpFtXILXZzhJ3tSOnXkneBlgFcC1dVJ2i9P4O8HLGkAs8BUVeYKZECEaKLGArGij0ZgHnBDp9jqGw0twvW34/giBF5uGjaSKB6YrMwuoSLnP4Xq56iOaYl0RvgXp6Sq0S0tXug3T+2OITIRdGDb0URUhmm4fVU7KcYncayP2l7GVLOPiximMr6ygPTqLRrIINw8RVD5oYdOnYzUIR+YQZTqykUlLeBM+5DPohkggUk+Ma4N2QuznGDU3MZnbRHEqgnNLgXIxx7Y3Ru5nCEotYNaZwbCUMTocE9o0YV4WQVMbsfCopsLvCGv1Y6p8Ug8H825sLnDPbfbEa/QObjgc9sz6HhbkWlLEsGHoeuhFFbzLAwwffFw0DRsUATChZDoHqoHNCEFhQoEHA6+s0aje/I3f/N8u33HnYR9n3+cfOXixNconP/gbP+Mn+fxcoyGWaloWyCRcoDkosqOqIkOapkjjxFhYz2NTMa9SMilZSb+aucsjtAcpGuxbZHPqDheUDSvRy7AWulLn1cLcGcfd9wi+pE+o52YY2lLQmBXLcidj/ZQhJciYaf5LQj0S2fPh+6R1FyhThsgIWg3Z3MtsG3kvx3ZnCO+OAIv3nwZeMQc4Y6m5QoMb/PRlmZ1SPTDODYdel9Hxmw7zdLMyL9C2EHGiGVtPWDoKXnKftP4ZKmQuRjZH9cYqp4thuYyweTua/TuBcBkYpcD4EqLoKxhPHgGcZ+BiG6xVlLlatRAggE/PSrZpthohg0/HjcBkQZIeBUlKZZmhpHYjx87zUbkhHJfA2UFWthCXSxiVK9hIV7CWLGMrm8e46qARdzB/2cFi1EYvaaOZ+/KK6F+mpoMMyZgHrbMnONlIBNm49LT4n4CXDSMa7VbWjSVugWFzE2lnBMxnKBZiOGdKRO0IcZP5lhy5GEAmg8qcmIQUa/QKeuZuicwsUoKXForPDE77rjWHR/DUQuhpHmwaKn55iwJb8BIDiXVbdA6qUsojCFjp4xeRffmS1PUTvESFg0QmhndJeCLbcNqSyBj319rPruF5Fc328Ove/e5/2j99y7HvhEcOXrTE//CX/s//qF26r2mT7cTNivksQ11n2NCCF8OE0Xhi2IbapPKa3pcBr0ZWoj8u0Ls0RGszRoctHqz0lKcRXg370Csw4GXqvmyy8+XredXCp3wvNhxoEuMapJkRNCTUIHkdFbMVdfbSV+UHITt4QF6+JcNXAAAgAElEQVQgyyOgWQD9AuUZoPHaZeDVbUqiAM4EpcMGkaSYcQc2VDWhyRmrm0Bo9rur4uh18JJ4cKjhQm9icnP11iLWNZFiP7O4CFyqmZQ781jPz2D+1H1o9O4Cii4lspUwUjyNdPQI4vjLQLGBIh2ijGMt7qSwLxVgOLdkE9Zux654dCqrxHFhRoxAJpsMW1C4PnKngQxNJEUTcdnEdhpgUi5gOz+Hzew0hukSYvSR+S46hY+F9QgrQw8rowbaaShEEgmO8jF9loUcHLxsDbeCvOa6lJyiOSmpBTJOtoT7qEwS0vCMpeYuag5QrSZIFiLkSw5y5sNaGVI3kjwi1xvHw4YFxUwx4GUp3SRwqM6pvvCrC8YNgJmO2kqKqdEIJOx47Pvmi+ILp54X51xWIPB85GUh5I3epMT2Q0/AvzgS8CJwUcxcUpw0KGQPPBx4pZ4Lrzf38Fu/4/2/0uz3j31Mjh68AHzqg79+TzGafDe7uXJSU7IpNROQ8MJBL3OVv5mMxjLhqcihyfJrzEyhKVMCpcJcVAl4NdYn6GWVvCReSyjUsilXcEXkbTa+BamP1G8j2L1cJ78w5zLjgXpS6OuKNJERxOPoyWc0qa67i/6c5qDcAlmSInADuM2GkDIG3jYatzXQu2cOuJOgRe42t1zmdYiHBBCNuVeZbvbTizJ8KCJtDM4zFFgLZxiGo6Wic4PVXZzgFRvwCqRDsq2N0jyXqZegxyVSE8w3tRFVp5D0X4/W0r1o+ItI00oKmOk4ugQwjIByBKQTFJMh8mgLWbSOLLmCPFtDlY/R9Kh6QZM2EY+RDE3VHwxQVgSqEKnTQuJ2EDt9jDCPUdHFMG5jWIYYVSHGVQNR0UNZ9eA5c3B4DokeWY5+Dixsl7hl08N8LFkLMBUnVnQt/H2QnWNqTGtFyU7gkHdO5XEqkaeGQejBA5U89BWlfontcAPp3ATeUoxyNUZ0KsakO0Hkp8jKDI2KYUFtbqkAyXxLPRSsLWrqJTBXA5k2Dt3B6DTXUNmqgzz9S/+cqefFNZPmCl55LiVD/UGOiw8+jO6wQCsz4GWU5rm/krCh+cdaZGrnats5QGay1EshctdFuLj0x297//d8zBcB7eM9jgW8nvjsZ1pPf/7zf6/piC2qTfSqAkEjlI0v9AMBLwLVeDjaF3gFZYX5zEX70gCNtTHm0kr0DWmBCPgxbMSkuQUvjYrgJnhZYDLgVZKQ4MOVzsLqcam+nfa7sowwrZMjS4mfK6QhpBMo03CEEYr5Cv1XLSJ83SJwnsy+dRVZs5R7Q3bIwO9lQp/MOw3xFZRxqtTjlu4CcuyOxesmqGxIo/slYcBEi5ErUv7tObyOsD80F8c8C+WliiaKdAXD4gwW7v5GJO4ScgHRQEgmQhYpYinXcKj8YQkhFQFqG8ivAOUakI2QbI/h5DmyMkFcJEiyAkleIskCZGUDudPCuGhgmAYYFW2Mqz7Sag5JuYDYaSILAqR+A4UbComDnpTIOZH/QtJLWaG3neLMlQorcYhW4QpRiZ1fOKTW1jjItsHh0/A9w4cawhcvSMaXIcQChZeySEDzU3xXeQgn1xAU7YIkACbeEEljA+nCAMmZBMVqjmy+EFaittyggagx+pn3ri6dbMC19zzrvabenzWUrEdoAcxS/LWT80Ge/qV/jgUv2eeSTPfRJEMndzA/yPHMZ7+IXqSsbBqbZGAz78XiZJLl2NuNnAABJBPRuGbmy0QQ6qOWeS46q6f/1dve/71PnsRoHgt4jdbW8MDv/c4/bFWVZ9ktU7Fc0tpNOJE5L4IZrQerLn89z0syMmUltND5QYrm5RFaWxN0qOfmusgyw1ZjmEeKUCxlTSVSbua8NPTEvk0MfXueJlLI0hTrmFFA3+RzaABU3DhVYZwsPdnt2hlGzgbi/hitV7bRec08cL4LtMVEmREybGxdyBWyncl83xkCqoXA7IZkf+6iTYu8k7AfeBVTmSu/2A1eDfXgWDeGBG7AedFDOrkNndW3AHO3I3G7cj/aAqS+fMkWnDHcZHNHCkfUMCJFD4K4fK2LzAvEk/rQR/4EudtHijYyIYVIQYj+FA1C5gQ7At5USKBIcMLeSgwGcNjZCYbvgzk6t0JvDJxZLzG/DfQSD22TeD/sns38FtUz+A7YJ4+5J9cQL3Qzsh2TbcdrFQ0WIBJle71HDgEVPiJ/iKQ5RL4wAc5kotQxbpGtWMp6k2gIO+/S+3JTMXhcn3SWSnJ5QrNnWyMSXqQWzLZOmun2KXjtoQJ2ErvnCX+nrfOS9iZsMMl8a5ajlzoIL2xj66En0EnV2OEhOU7rsUtURd/x9cDLkp1yEwJmascPA9mjiyDAPV/ztl84/6a3mG843gE5FvBiY8o//41f+8mwLJZL5rgkfu7IAJBpSKBhLox/J2FjP+DFxUOlje4wFdZha22ELinIps01JYUIWjfBa++JJeQCYYJx5zT5LdY1GW8rr1L5va3Gp8dFdXFiEQtWx80Req/qIXzdPPCKAJifAGw5T0JExXq7hlrQUxCyf9CCXrsZTbsG2Nu8IfCq5emk4JpfM6vyFwYkm1kKvkTS26pwHEzieTTdNyNYfiPQXELmslbLaP5xf7bAqg7ITMzZFg7YMBt5hbLyHdGMm3jAAMC/+8hjSL1FJGiiREO+k56kFn1zE1GxXKl3MptIQiPCSPtwk6G1bJl+rRRY3CokfLg6ctFhPaNI++yVI7rxDWRa5yXPQQ/GgFcNFVn8bMPGNmQkwQujoBIUqtTAoHAmckUx8vYYSW+ASX8E9zYHUTdC3sxRBgVcSaSx5i9DXibGu2drFXpmDBmrcr2q2WveTYua9blm5A39+8vV65ouE+auSgUvAaa0wBzzto9dwuTxC2jnLKSfFfoTyKas0BsAL1kX2nRPImXiYEj9rIs8bODrvv29H5g/d+uNT7oX8JPHAl58+D/91X/z7WFVvZmJRckL+NqrSCaqYQUStOh50WOSAtnnIWxonL6Shd6NcoRrY3QvD6Xei4wbWiRULNDE9C7PyzShfFlPfiGxcNPgBk8gUMV1uhuehGxMjwW7S3qVtMsgq6xqesjnSiy8+YyGB1dagD8CsC4bmBuQvMA8Gj0NehxGJd2yFd1ENiIbrpjm0HaD13SyXyugYRUcNNQ5CynyRJNTa1DpYyS6iFERIEpWsbT4TUD3NSpvZC7NobACzpoP2KVAa2SMrBPIKIIvJznIPCDygHEJ/LsPP4FMwKuNnCojJgzHcdWib6Ksp+xFk3LIPW1DIuGwit3CQwE4nsv2WmFaYXmQ4BVXCizG3OCNgO+BuYazgdbb0xzy9GCk1TzoTO9Yb1YElYWZqu1S+EEJJxsbhc8QOwWicIikuwnnlhTV+QTp/AQjf4yUxexowPddJNVYSgg0EsIwv3I4hexhPC+vDl7mHc9qnI69vOgF3H4Pf6l6rRc9ryApMB8D0ReeQHWZbVDUGCBBjj/VozclDTXwmsl27bwnFjJzPyZ4eYHm1MhWJJBNymr7m37gh/552O4e/kEOcIVjA68HP/y756MrGz/YYBuUlBuXI4NBbToLXnRJLXixOPT5wEssL6p0FEAzLdDYmKB/YSD1XmyPwv3YCooKeEmNzazB5QHG66vrFAteQpLIkVfUEpQImIaGpLUMAY4MAQ5yji02NOxVmLt9CeGrl4BbW0CDZAkmYSIKSxrZFEpA5XAqApcJl4mHx705F8ULZSzubEmyg/a9Iy62F3jN6s2UCcI92NQXWTYCV3fgClU9FSLEAtzgTnQX3g4EZ2ZlZCYUNVVtMOC1Z2jOkgXYEUFCXg4y10fiAsMK+K0/eAKZu4wELZSOZ8DLUPSnLig3FUeGlXdceLHmmKSiI4BHFqUBEOmtiQLzoxivvFxgZcA534RXGLbmAWelGHW1UhELA3zm+jhML2/itGo0qpqIeKkmHCXZUtOcnNeiWsjIHSDubmGyPEC+GqFcASqK4JO5iFTmgTy378g4icduvtClUWsYcra+j983NSzk+17e4FXfz+hVUTm+N8ox/NyjaFESinFpkeHSQa23TtElYrUl7brZNZko+yXhXBJ3dK/mvs2NdzNOPv/+n/l7v3nA6Xfo044FvHiXF770heDLn33g77cdF0VCfbQKQRBM2YTUf6MnxiLlJGGPphsHL1VVLtHcTtB/ZgtzwxydQhO5hSTzZw0H7Z6m9Nybh+QBVZtnpndGMJMqWPKylSmYemNEvRTNO7tovG4VON+R8CB1A1lwKhJHPE8Intz5TazCUuGtFJWAlwsylXj4xvve/5uwL9D+NPJWpqGjhiptXI309wCDuIkqfAXmlu8Hwjulzqt+TDdv63HIPet9TqeLWfDSY0uo8QXYozlFAwl8kLD/W/S83GVkFbsaG+qJqpRJwbJ6mbzujJYiah22SFj6eZnibwHkCqWfohtluHWtwMqWi7lJiFamubSDHrZI2eYOLShI82TTK6peAyz6IcbLsvJMUh9m8imiYs8Ikz6oAnEAjKsEYylSj1AsR8BqhnI5QtFl6JAaltxcWSemxd4kEnAecU9g9IQe7hS8BDDrogMv74WsnbbZObtEo3LRTSp4lwaIP/84+jFzqDo/GNbmn/YCL/77tRqy0guWmku2rWLNJRnanoskz3Dmjrv/xf3f9p6LB51/hz3v2MBr8Nwz+NLHP/YPgiz3KeHEYjoZNCMRYIuJLXiRKn+jnhc3YDKzusMMc89uo7eZSNJSwi6uWnKWjm2bt0lxpongHHYQX9LnT0GFs1snelUUIrLLAXTbFbaLTQSnA/TeeB64qw90JkAwBDr6eRaeM3xLsVRSzQuWHzDMwOJlynWZhoqaQNLaq1IYhmQt7r35WCPj6rofM9rW4taUk8lTaTRfN2NDl3dyuR/4C5gkiwh696F5+n6UZV8UsQkaMvfEOzTXngJUjUa8cxdH6bJmTWlcvI6Cl4sxwesjTyB3TiGpWlSQ08sa8KIHpfk9oSRNhXG1HQqZuBwbLcCWz8m5hehBdvISi4MSS9seVjcb6MeqbHjNMXqeiWk9L/vcFrxk+GzY1FzDfo8t6rehJ3pXxqFWjqqpOxP5V+mI7ohqPR8pcgsMvCuY9LaB1RTeagmXqldsu+JXQr2PHXZyZpiK56gBJWqR5p1q+tSSa5QG8/IO/VsB5BLNykUnrhB/5TkEj12R9AkNSY4ZwYuH5FJtNsDO8+uAl4QNC+bATV2YGJ86p9/63u/5QP+W4y9OttP62MAr3trCg3/wez/oFfl5h60sapsWXV9aWZL4TTPtqLwP8JKEpeegNy6w8OwAvfVYKsy1e2xhPAqNpxO8JNfAvYKbGl2Gl+mhbCWpWoQrYVWyBgoUVYKiVaCYc7ARbOPsm24FXrMEtCLAGwBt5WpH0QQNL9TclrhcvB53KuP1cDOWHI8J74kAq828G6/GaBBOX8HU69n5UnY0jbQMQ9nYLWtRw0n83BS8SCNgwWwVIi+XgeBVCObfDnRuQ8K55hEsVNHFoWDvzAkVqSwCjUg8Mb8kzS5n4Fa6BL0cQeWJQnziuhI2HFXAB//wKcl5xWihYK8xjbMpsBrWpZBJCGBTnUSVwxLBWulZoqoTRmQenstNnH930B8At110sTQGQsNOPOgUtkYCH84qWthr1QkcvJcpuNVboJBQYQRN+CqkP5/kmGf3z6VOJXoSZij4S3Bi7nTY3oJ3Z4RoboyKPd2aQB7kSDwyESnfVci+IOqGdtrQdxXPcBbmermDFz0vplwIXt2oxPpfPILFtQTtCeeMJ3nca4GXXVe7PS87L1grS1q9Uus1T+Pwd0Wx9a4f/7n/UXvsnMxxbOBFxuFnf/tDbyyjyXvoeTEc0PDZtpxFnTPwKrJcwIuJQZ8If51+M5bsIcQPDyJGufTcGL0rY/SjUvp6USCUleSsbRAvwfT0UuUAE6A/mbHXb92tzVYv4DS04PrtKcgISpifhwyb0KIie4jj47HfT4YoTOAvB/DOhmjcdw5iwrFatpWhcGPKrgrdWcaQdcS+KVDMTPycgrxOKXVbtNz0MJ62eEbcCS1Zg6BX6wN0SPBSz8vm0fidbK/SxzheRnv+jXAW34osbyPxWcTO8mZVoXercFZ4Lb9J5RkUCFn/thu8NJzlm9bEQnd3gG0AH/zIU0hq4CUbgchRzTJotoZp+v6tGLImBQU0LU1f6r44VXm/DtCcALesAae2gQWSkwpS3tVdsv3qZqC09+S2YKR1V8oonL0j/T6SMSwIiRNkVDgMR0UuTDKvdHSRvJ1RvyDRgp6j5Ku0O4GKmtALKKWLDn3GtBXjUvtJ5IsT+Esh3AUXWS9D3IiR+ZHqH9ZU5mW5iGr/TvCS1WCGdrbKzfKq1fztHIlDrpsXaM+oF/1eD4R3c4fE4DI2kTD/qKyRO1icVHjmkw/iltiDN07heoHmEo1tSX6AffdyjesI84qxL9T4UJwN5r44CavAwyiNP/m+n/rP//AFGoYDXebYwIt399DHP9odXLz8d5PtLfSaAQhURB2Z1JZIUZSI4rFQMkU2yoCXRrqvDpFQqqfyXMROiV7m4JaNAs3nNhGQvBE0EUs33RKh0IBfZNRaK8NkC87kAY2q+7Q/lBaR2roaLRA2Le9roGBTH3X2kc4IzlwjUOcxuWD+TGeCWoS8FunQDXbTjTDpJWicbWFBuhkvAj5DhCwAZlsRvq/aJrcnm2HnPNy9iWpL0DqL7zCWW4mSqhbNNqqYRc/a9kZb6oQo0wyuH2A8CeG270Nr9U0oG+cRUZWBNUbMr5hM1MwosKO2a3O7yshQQKbgmUzRitp/Cl6/+eFnEAWLEja0OSnmurQg13gMdc1NM2R19uXsPFO0zPUhr9NRTkxU4NQAeOWlCvOljzHLACoW6FOfw4jtaipTh9sYBRY/uZ70fjSstEN+ZrrOZpqD9q3a6+y+nr3GbP7NzpXvJEDumBomRO1UiLwxJp0B0qUxyjMxypUEeS9CGsYYFzFcj3WbvuYPSR5gUo39y4TCHUovNmpIUpBL8rRU+qfBSo9EkI75UGMU2OarZiBOkvBRr1eze9tOEJ4NWB1w7NsSR2haqlChz/5yX76E9JFnxd6k0lDhaWjaEoNsyFAZsMazp+Fh/j5bjTr/qcRBI7Tf6CKLSXpyUTYbOHPvq//5a97xTZzuJ3YcK3htPPEYPvfxP/n5U90uhlcuod1syeSqgxfVMKgun6SRTL5p48irwEvlPlkLQvCK3FIqy89sV2hdGKCxPkLH8UWtm0eDNUe7SumkKPQGNuAjfTumE6/m38yGaQBMlS1q4GUKN7UpnymOrYGJ6MbVoqDybFZ2nK1m2FiRXm6jIZTCKkvEY2UWd8sfIppLsfTaVYQMEy5WKMcX4bYdCb3axXX1WJysBSuNN9hKJMvEypS25EUhfbnK3EGeBai8W+D33wRv7lVIgwWWGcOnIjzHdqoocsC3bDwPejwsr6FOPsFrEixJnZd6WEZTju+H/ESGyM373qH7VwMZezfUCBFPlbWKDGGaLuNcOEvDEnc9ByylLhK2EEKFVkbjpha5tbBUAy/JDJrN20DiAR/+cKfxFkggYCleFKYYtzYw6W0hX4rgnCpQsX9Yt0DkpojKTMlXnjtVQZHcqqOkL8kgcp4yJSFtohnh0rzqXuA1A+uTm78WvCwtyOYTZa2Zoa3nM+uGoE3XWxY1gZx5fufzTyG4sI0w0hpa1g/yszbXJcxWS8YRBRf9IkNKtNytKQuR+4PITrGOlr3bvBBX4ghv+67v/MDira843AQ45NnHCl7xaIA/+uV//ePdIFilSG/oOsgLtaSs50XwYtiQ4CWirEYV42rPy4Sh2JmWIRu3QrtwcWpUoX15jPbaCM1Ucy7aIopMqZ2jddLgpewyG06bMX5scnoKZmJq1cKFtvCmlkup55UUwBSVabVm7K/lemg02jpRBxF8RsvmXWy1LiNfKLB85zJwzzngFEFxG/DGQC9AlZE/ZxWDTHZefmEDGSe3+PVt8n5zFE4GL6TMmMb/A4nVtzAaz2F+5XXA/N2Au4zc6SCXVi8MZdlipkN4f0cMXhIaN2r4U/DiY1MWbVLh7OUKS+MKjZyhOjNPWORsAIyFw/b9yeZovDJrFE3Dl4fcSA5yurAoK0p2adF1UeVIECNvxigWEwknVqdTxP0ISTdCElBULJfSBJHyqiinpc1CSWipfNbJ0VeghioNU3Zf09ziNKdTC8uftN26WylE1uuO8Ofeo1q/b69iyQXz+5U0nYweeBTz4xJ+lAnIc1/kwXCh7bZhc/+yeszFrgVe0gw2L9D12kgTGhA+nLn++pu/473/S3f51EFe+wt2zrGCF62Dj/6bX3pry/e+pVlWyJIIjhcYtQAdRS5QUuUJXnI8H3gxIc60u1uhWbB9BIRt2Lk8RGOYqpaXLFqzmdfe/EmDF2vQuOgIYMwNSAsNUV8wm+k1exXVNtspM04bMdKinrYrYXI7qxA2m8jo0eaxFIZ6TEkVOaL2BI3XNdC8dxE4u6itSqoRQIwLCmTpRBaA5n1s2MXSy14M4GXuhSr0XipdsyvJ5vvSpHGS95E5r8Tc6huA7jkgb6BAQ6n69GpFmFlljg58HAN4CfiId6G9vOz9duMKi1ulKG8sTBy0qetI5Q0j3MvABW0Uu0nVwYvKGTr/rw4NHngs9nki52nmxLL+g7KhNX+lkcsKRxi1tpAsDFGuJnBPlyj6qQBYJB0BOSld6SNG7zv3qMNIqSoTqRCtRs192g26VvAgd6pO8SEMl30+714fv1bOa685uRfYUtKNuoad0kP13Abiv3wcy5kHP1ORh8OAF++XRJtGo4Uqplasj4h9w3rtf/+27/2+j55UcbIdx2MFL37pUw/8eeOJhx76r1oMF5JiLS0kNE8hBXBwpKI7Tiaa73oe8GIsXBr5OdpwjTqH/WGO/uURwvUxepJ05hydvfoTDxWa0b8ueIla+q6jFlacAq+hhJP9xr5SklOSRUuLM5R282RVSsffIBHVg1EwRPO2LubvOwPc3QOcgaqiB1QkYYtF4dgiIPEiYyjGhClrLVJmbK+T9Lw0JKTCjClKMlRlh26iLDsYpEtoL70d4dydgN9BmbO/ViCbdkImpE9SwWEqpQxN32yQRxE2lFKS6RrQlCPXCA+GgjrjCnODHLdsAXOJB0cof0paseDFc6T+yjiaYnmbRXCS4CXhVJu7YuyQQGpqzDitc496idtIuxNk7B22WqBcyZD0MozDCeJqDN/UvEjBA3NiTigQP6P2s65OChBkTouWJg0XGUEh9584gE034+uAYR24dgAejf8oxWLhY/zQU/CfWAONmobnC8WdyiU82HR0J0Vev2zKIjVgbg0cC/QMRasmpQPHDZA5PpbuvP1/u+9d337lqnZFLwCY7+cSxw5ek60tfPq3P/h3umHYi4YDNAJSrRW8ZJBdbwpe8rvnAS/KlpDGqS2tKRxeYiEC5q+M0bgwEMV5Kai0Fpll6Jx0zMDI7OQmn6SLjU0ADRljpskzY6nYXJhpzicyTqInpJ1RZ0l0enCsW6IhUMFveSi8BEljDOd0jvZdPeBVPeBMA3BGKAKtqynZF8uhNBeJHGo4iHr8NExprFQhRswmfz0uv5/Jd/jP2o6idCEy5Bk9S+5HXSTpIlLvDvTOvROZszTdpAKGp6j+QA/1pQJeHKhdAMZfEZDCgtT5AufWK4k6SPhQanum1BhlKpr/hCko79pGIk7O8xL4MEaraDVq9yKJeIvKCzt9kAjjTTBpjJCyb9hyjHwlRblQoOhGiPxNlGQ5IkBZ+ChouLFti+zMpZQzELzU+9IwPYlHLISWZrg7yE+Hn5EHucKNeP52u6oDlzyi68OPcywMCww//xh6GzGCSYZms4kkYwG41gva3NZVBCpbAnEVeOl4uYGPNMkx35vD1nAENFq496//tQ+cvve1B3nUF/ScYwcvKi/88b/+pXc1XfdrpHKeA8T/18BLmlLGY8ldXA+8pO5EShhJtTeNK8tSAGt5LUb4zCaWJmTdsEyHlPnZhvviUdiohS3sDL1WKIMJf0+7GHPxafGmSiyBGoIstOXCFbDhzCYtrcCwWkN6KkP/7j6Ce+eB0y7QYHuPBCVZXNSVqwoUJRXTK4S+hm+UqmXChTZDbPCi3pLi5MCLmx0tQs2NlsUEboOqDF2M0jvQXvlaeEuvRZSTOMGO3TNOjFWGmBYCH3RZHXHYsM7qmzEFZ/OYbS66EbCyWWJ5UGBp7KJVkcDBHBKp/LPQmVLMZ0aOtbwP+ugvxHkFFTS4wbrseq4JORKEp6QTemD0lIMSSThE1Bgg70bwlyqUKym2F9ZQdCgeHaIo+czaJb3kojdEGfU8dRPXbtG5CddzbwimzTJfiOfZ7zWmaWtz4pTNeQMXsuzVbu6g+dQm4oeextyE+a4cfjNEUpjIVi10Wgcv9brUaeA+ausMZ5xYSAqn2+9jMqGwdROF6699/fd9z//anl+8gTs82o8cP3gB+OIff3hp/bkLP9WgWjnbnxhpKOt5EbQYNmSt142AlyxSV3NfjIYvFD5WNhI0nt7E4qBQRpNvYuHG83pRgNeUNVjbVY0w7jVfO4FL+mypLPkUvKhzJwW/vsoMuQXSIMLYXcfi3Qvw3nIGOMc2Jlso/Am8JuvrgCrTc1zRd5JfSIJWNhJSjeqmnik8EvCctnGvJcOPdq7ueXW+cwk9S66rABou4qSHYX43Vl75TSiCFUT0Rnztj1UmGp5mgVJu2kMcKul1xOA1C3Cpfb7bUOCmT9X5+QGwtJnh3LYrlOmU2oFFgVAS+rOhe776r+N8hbwXqd4gKSVX9rDk9Iy6CDUEpDm3yLyxgLlEEUxE+Lny2fRyCOeuAslcDLSA1MuRuAlyP5f1LjV/JHeIE6aFTlYhnwCm46m55pM6dqcw9gNeAjolsFQGKL/0DKonLqMXVfDzEgV2HcwAACAASURBVGVIL9SS2mZ5PzX463/fC7xmHAFK+I2jWDw8r9VCXJWf/JYf+Yk/POmQob67qvpHx/3itp56Cg9+4uM/j4zSpZxcuqEI45ChKtdFUWaYTCZSzMzDEi4smNFDkNg9/8fEOyc4c1+BKy1RljYTzK/F6LINdskq81K1uci8YdsFshwpNHmCFeLiIRXajkPru7QmzbZK14ltxOPkM5rfYcUMc3gygci25MLnBuBTWihB4kZI5nLkSwWWv/ZW4LQHzNP8IiGDua1KhVCLCiF7S0neyNSX6RLfe7eTL1HglJokue2TAy+xFImvArbcgKgez87Eq+jf+q2o/PPSxbgwagzqZXHTYlhVNyxVvzjECjhi8Hq+O2PEou146MXA3GaOs+uVqIqzcaSsJbMbWkr8bvA7STAjkGjujQXvbLWjyhx2BvKPZMFN75GdneWZSHCiNxZhrbWO8nQG92whFPtJdyB1YwwPskCeIUTZF4TWobVmVJ0QpqLsOZoLO6ljL/CqZzQo4sCSIYK6RKdI3LF7FpX3c2A597H1518Sohpz/hybIvCQZFora/N/Ct7XBi/9d91L6/stW/r47Ta24hR3vuH1/8M9f+2dSkE+4eNEwGuytYHPfvjDP4ksWw6YZJcK/KvBi/VeLGRW1Xl9pbPFp/2g6O4SvJijEeJG4KJVulgcZljYTNF+dgC61QyLCTgKbV4LlrXU/zA71yHfnoCXic9LnIQJVg0LWuFFj+oTjMtLjMDG7qYNpVCxvTrTZEGG2Bkh8rbhLTtYuHcZ4H+dGKD+bFigKhJhGQp7mM0ByXOQcKPxuvZ8nF3jIy9A8wb6Pk4u4c3bJlFH2k+KG9nFMJ5DZ/k+oPdaOM0zSIWNRi08W0fH+eZKblEcTdMV5sBv8qTBCxVCuGhmQH9YYnWDzMMK3cwTerTKTc02pboCh92yTwrAhCq/I/c2y7/Z8CbBzdZBaTNFVeLnfwz9xp0Mg+Y2ItaHLY9RnUqA+RRpK0PqZZgUmShCIFAxBAkvU1KrVI/UyPwe+PUf9sQ6eMkz77ogAVf2P6tzqY1otFdeQZKaD399hOTBx0VNnnsfjbmSTT4ZkTKWmSVmXH2/M89rN3gJOcjzME6oN+mjajWTd37X9/337cWTDxnq3nMCnheloh74g9/9mnQ0eldICaGagrz1vFhoyHovtkjhYSUIrwVeXJQCXi7QhIe5uMD8sEDz2W20xzlcyk0RtAS42JzSAMEJYpfmpjRkSM9QEslC4NDlygJEhrkCtwmYholqJBqNF+YCshxe18GouY1hawude1pYfNNZ4FQIpJtA6GnsRXL+CvgMETrkUwsJQJs42mWjG5nR15uysWpqCarpXbNWTy7kIsYLczq0X9jMNOsjru5B9/zXIPcW4ITzyMVz19YdMsYOE/gugvzFAV7XomrvB1A499kOg/Joc6NK5v3qwEE3I3HDqrBrY0eb+xGpJzP39/Ndh92s6+fPmG1mRml3lR3MYPmM0ZxU4NWb5u8oyUWAYi+0CimKRoRyboJ8JUZ2OkK0mCBua/+5nEaeWf8k6rAukL6YX+g6O6ljqtlo34WNBtRuSIqwRclO9y/ukVy71LXslyG2H34S3uNXhGXY9rVhJIUbBPQM0efa73jWEkVzosbzso1S8wJBs4GJ52E7Sf7q/T/1s796knqGO+fPCYAX3d8nH/h09/GHH/m7LRTwTGdOuTHSfOmFoZCXkETsFTUDL7482Wql26+GDbUTM1Q8klwEuGhlpYRPmlTbGCQIo1SEK+Xls202MULc7xcB7dDkkEQB3xYtSyM+BjgCbVErGrFUE3FEtJQFmexThQawkV9B43yIhbfeCtxJBuElxBih2W8CUalJA4oGMfEjQEb6JUGLMjrmOy0N38T/rbK56A5KXkAntdrxpoNxrWXISSx+bswsVs3zUurRhvE8WgvvgD93F4pmG6n0ytKEvBaEahGrgJf1vHapp+/7OQ7peR0WvDTfpzqTJGqwtdrcdoazm9Q9nLUCsu9PmmfWwkcnBVxqOe+UJ6prJ1rSgHZSNuaULFVJMkyJJ0mZIfR9sE8gUw1RtYW4O0R6JkK+mqNYLRGJVmKJ1DINKdbtsauzkFRPNOdVt51lZe0OdDA/KzJESkpj+JCpFO5cFGVoDXJc+ctH0N9K0Uq1zVRKrgD3TI/pEfWsrpZ/MsFSs+5ljcgnZ8aB5CBLIC5LVP0OVm697X96/bd82+a+18gRnXAinhefZXDxOXzpz/7s72M8DOgV2XovC170RqTea6LFyiruqZbHXuCl8etK9N1ooYVFiU4GdDdihJsRmsMYrcIB2VkCXtzQyas+6WZ2OzQMlcqrDRoJXlxdTVS0pGh9tVxkQYmoHCH1EpSdHP5qiMU7F4E7VoA+TfAREKoWIUV22R6c4CV1X8yZibdH06BE6XNM6cWptze1P61klTANVWKHiW+d2i8e8NK+GQGKwseEucPm7eitvBOFtww0QkRpisBran2T3bBrRBNb93SotXVI8JpqHR7QhtLCbN12Qm5uBdCz1PmJUudt+JBv0ObA7Hgc6tlfgJNtAbENlFtgtfuoSGOZULXWaZk8r5mtjMgouUhb80hYkKr0YYa4FSNeHCM7naK4pUA2F2GCMbIi05yX5yBjJqwuhv0CPNNBL2GBazcjUKJRQuvXoaA3xX2wX7gon1jH4OEnpc7LS9kPzYCPkRWraxnyunXKvMya5wGvlh9iK4mRt5v52973nf+4f/rkWqDsHtcTAy+GDj/2a7/2/hbK17o5KdparGzBi718hDI/tsXKSrYQz0mASnNYEhbhizUafiRiaNuNko1/MTcu0VifoLUxFjAjeLm5UUR/MXhepp+WegazvJ7WV1FGXMkZVVghC1IMnQGSZozuahf9V3ThsF5rwQVazIspaIkyq1sgyxP49M6Y2NV4zLRmi6ETTnTyMy1wWRkinSSy1Zm2HTu7Hb9Ywob6PFSVmMNaMofFs28Gmneh8hfFVc+yHL6QXGYp+VnyX0OfKht0iLDRCYKXJOKN0UZCAiMQ3Jw6kwqnNyvRPpyLXbSpwGR2Ribf7RicZInDXhv83qxIBa8pwIgXbb0Dre0ULQND+lIVEg0sxF6KSWOAZHGM5PQE5WqKcj5FEWayd1BqKvO1CehJHnuBlr0f8U7FiFQJKKlllShIJb27si88jfLZDcy5oeS60qqQTsdUHkFeSKqET5cZVfk6eKk3pixPy7jk/LChWhp3eZKiu7KMjSL74ju+/wd+PWyrxNyL4Tgx8OLDP/KxP1naeOrJn3KyRBZeHbzo0gtlfhIJy4b9vSx46cBpK5VpPke4ZjqZuVmznTgtzv+PvTeNsiw7qwP3nd8Yc0RGZmVWZtasUqlUqpJUVUJCEkggBgNiEqgNpg00DW4bu23a7l5evez2sNpu1vIy7ulPt7txL5vBIBAYBDIgkJBaFiqBEEISVSWpxhxjeOOdb/f+vnPeu/EysyozIqsiIjOvViqzIt5wh3POPt/37W/v+dRB48II7QsDtEeFgJeoDdjxup81L9lmmmEwmz8QFobhErv0OBpiGPSRzCXo3t5C5/6jwJ0LQDQEnJEoaUsaVIgLRoHY91AWmTaBm4hJotcJW0m8cc0Cbva+pplzOjgZ3cyeY42ZuI80Y8u2qKo1jJoPoH30DUicBhyvA7cIrxhUy0ZBFElyaea+kovsVU3QVwi8rhZO2SvJRYjCvLwuSqR1MmC+X2FhK8OxviumlVzM+ISl/4uG16ZNYL8BbBJwCmfoUpnglxIO5uiV+o/pUWLpiqVsmTb8PHnOJWL0MQp7KBbHqNYTlGsZxnNDxEGCPOAmbv/Aq54mtJsKezaWJSjtA8IsLBEwuqZIQJoh3I5RfPZZtLYThEztuy4GeSKpQ9ZApbZvsg4WvPhzHlMW56Xgxd/L+BDg9DAoUqzef9//+uC7vum8KyoAB+PYV/AabWzgMx/69f/OS3MKa2ijcU76uu4imQ4h45DgVWYquDlNHSp4iVUCKqHCErxC04zIYi6VIlqli8bGGAtn+uj0MpHUCcyCWxEUZ9iGVyMdZaWZrqRLJtA6Ybfpg56I7Qpg1bUJra/VZXTWnFJ6VkgJpiRO82iA5msWgTsWgG4GlJuo/FyiMmbDeb9kIWbzjJgscQQrG1NIIcJcovo2t2IU3Czhem1zPqaOpQm26eicpZLXle9nr2WPY3oH6dHeI/N9yj7T9KWmLlPTlL2AYbaC9ol3oGrchtLzkZYuAroY1zcoM2m5wstVU1JkuK4WKi5zgfsMXm5ZqCWQS+WQSuq6TabNxyW6mzlObwHLIxdhzujZQUbwqpFL6zTqPT6+Xb19Fry47Z8CqsCTfm79+dnzpw2KqPMoaEny2wjCGAa+OMVJBd2JMQr7GHW2UKykwHqJcqVA3BiJXqIorQuhR9VHdB3Qhf1yh5bfdO7adeCStWNiv2IGohnTUhaQS+J79TtnjzqABcw3ZWQL0+rHR4OSeP0RvLM9OF84I5tyRllBFGHIbIvvS03fbuSFG2Ca018KvKYQboIAghyzVXNd3PvOt/3Dtbvu29UzfqXetK/gRVD6w1/4uW8rx+M3sFG504gwHg4QBb7IRrHPqyQFPstUbcOkSVj/YtpQ7SI0jcCmTD4spki4g+N/K4mIqRNg8bk+WmcHWODDENEYMvxYQzNlSjM57Dia9XeyD4BEBrvIWmqrLWxaWxOV4NH6FWtOExzjCLIWHPIhJYpQAdkpWFzl6RJspGsTo2CEi+4Gund3sXD/MnAiUlPIkI7Gqj9IEoZkwK+iZjJJF+3wkjIL947FwRIyXqlhV/9cvf+a/jXFeYmeTZ7DqZBXpDsHqBwfZUK/qhxuMAbKFjbTU+isPYSgewqV20VZRaicSJTHJQiV1VnHgR4WqGb/e5fXukfw2oswLK9EpM9qC6+9Ci5ei2MX62dirAwczKceGiUZllShUNUK5teuWO6ZJQ7MmMLaX19/S5UZlHqZx2LHvR3bdTCUt4q6vqYecydRZY2wQBmVGHd7cO4ZIl4YYRxWYr2SByyjcs7mKLJU2jCk5kSmoutL7xhHToEUeUm2B73CdFxpw7Mp0QkocYNUTEBRGMSFpyLclIHjt3gEVq03WwKLbM1U6lGqAAQrpDlCz1egHCZYRYSzf/wFdM6NZM270qiuU+R53rbGKCBdu7dU9Oc6xB5YfknFQeJ4SNhI2Wl+4a3f/b0/35ib2+UkeWXetq/gxUv66hNPtM88/aW/k48T+E6BiBYeSSweMvSfystKWIdklOmhkYFpMRXtPT5QC17sd+HvUk/dZVkv6iQVVs+M0T47xPwgEwFfkQfiYlmzGFdWk1nirkCfteBlH4dNObFXzdqbTIU/6f2Yw2MtQka42RYK0UDBK2P6isKXbJzkwHFyJE6COEqRdBIcefQO4KijjcbMB7ljwI3FBkT7vowc1CszPl6FT50FLxM9Tny2mN5jqxv7Vlw4RYBQdrwD5HkX/cab0Fx6HRqtJZRFgLJqioAos0my3ZFVgZ9pUp2mxjXx0dpr2ngfwYuXV1dM5xDjmLeZARoSrlzIsdovsTTyMZdpLYTrEkWEDyZ4Xf8hZy3tpEZuzW1dF3Grh+daTyE8CTSPtpGxZ8zrY+yNUQY0K2XSgpGgRvxSvqi074w3Xky0jaknmcFKtNJ6lGxsObfJ6JV+Nkv5ZzO2gpdERCbak480XSuc1cwcCXgV3KwR9GyKFOjSNeHMFoZfehbt7RRNrajs6qBwA9OMRF2uVUJmcwN4jidGrb0SWFpf/dnH3/f+L+/qC17BN+07eNHj6zO/+Rt/O4vjTsNnBJIjHY3RbjYldZimmYBXmqqRoqS9TH5cKdsKXnbXzjoXD9EwMwoMzaTEylaO9vkROheGQuSg0B2ZidxH2d3bBLg4eq5QyxEKuQU4aTIWBEThF8hd1WrkIFRpNb6WA2O6T5V6FHdlXgGHu5o8UKUPFo6DDD13C3E3RveuBbRfcxQ41tJwkvE+1TFIyuANELKF8aR6BQfIq/XRdcbXtPFZKGTSYEotRzZdek4AehghLTEuluGtPQ5v7k54XkeEWRl50Q5FWmGsjp8FL7kYfX43CnjZ5yO1LxJLzfBkXZfDZm4EkUhb23SEvBHJpoztFlOQuzb8ng3xr+3dr9Z4st8jZEVT/+LPLADx31mQYxwliBt9uO0RvLUE5dERksUEvWiEoZuiIFBwY0mlesn4KBAxKhEPMqiUmtSIBMD0fvBZ6D+VPKbCyNpTxayMJGFYm5PnUV9T9MynqUht75H8TZKJxdOy28DFz3wRzvmeKsjPmOxe6z0WMDY5T2m7cHzZF8dZhardKh9+zzf+o5VTd1zrx77ir9938CLr8I9+/VfekifJu5PhAO0oRLfZxLDfkxoYLR6k3yvJjG2Kgpd0aNHHSbhFZldTu12Wucdfh3EhitvshWi8uIXGmN40auImFPwJGNU/4PJ1kB3gZRl8HKw0wpPw3wxUDft0eyuHsgbFLK9iXY/Ao0oPTMwPnR7iaIjGqRDtB48CJ5tAi8ZMqcoJTHqzePHs15I7ADB1sY/yNnseoaZJ28pO7TAOFPkLdtYyNcpEL0E+QJGFKNN5IDqJ6MjDQOOo9LFlkgtrSE3PzudLUqUGwGyNXheiPVzFPkde9voIXkIwM1lnghcXtUbhodvPsX4RorzRyDxZAIWxV8s0XP0dOFzgxbKDMpkncDaJvmTD23CRlClydwNFp49seRvpSox0rUS+6GLgJEiZ/jMlC0mOMJkoYZOxceIaYgSQOSttH5p+I6MxXRMs5V+skMwA9A142ZrUpCnbvFwSlpZkNU4l6mr0U5x74s+l1tXK6YV29U9v9pVcB7m+cplirUwkqMQmyEfueehl6VPf+hN//f/xQ1KYD9ax7+DFm/XsZ59offXzn/+puXYLg61NEVAlU4bhLIuUrHkRvCSsNZEXBwl3PWTL8eBk5YMXk73aXoZ99TRmaxeuyKe0n9uWhx+ZfgkuizuOa2TP2XTAFWsXDAG4jWGagcwmyjKJPw6JE6UQLjbyi3DXAyw/cgK4dx5oUgp/CLQJgLQpETXDSVuAejyV0tciAH8V9a6DNezs2diCFFdRKqnwXhm5rMlao8sBKk4wklF8DJMWHOdutBZfC3RvRxXMoyp95LknWpUW82RxMouWNQiZiLCae3aYwUtJLHqj7PXJGsn5IA3aJEF5aI1KAS8qb8zFHlrCkd5phXKlMXQ5MoHdjNlvPphjy5ylibwuPUcFtZI9kNICWSDz6ePcR9Loo1xLUR7LkN6WYLsxxMhn3yS1FVWZxXELibZCqV0xAcMWhHp60ErZ6QOaPiv1FrMgxd/ZTQcfi43i7HqW8zl5Wg8O0xJLmYfRk88jefpFzOXaGjFNHV/7k5jUxITjVSHPFAn9oAGEDSyeOP4zD77n4DQm169w38GLJzO6cAGf/dhH/tZoe3Mu8lyETIllBXzS51lcznNJGxLEhKhh7BMIXoUxnpuyaDTfbKVnRHW9UBYWdyqd8yNhHzaTXGpfqi5f37pcG/NsEt5PPsdSy+3nGLNEUTJnH0aGBKn6i4U5isYYy685Arz2KEDbqcYQIBmBhAyhvytzkENeFhKyygh67HMj+8gJ9kb1vvbxfh3fUQOvieevsv80jcidLXvdMgVx30fuhEjyVQSNRxCuPojKaaP0SNAI9CmabgGRrbRBr6QN9bQFvGpgf6OAlx3DAktGUkkXTU+UF5b7EMflpQFLp0wfMkVf94C7/GM97OA1rXfNXp9STUTwllqABiQIZJmXYBRuot/ZAE5lSJZjpIsFshaNWnPkQhbTjaMn0b4rEa+kCm2HpCVu2OZ4o1so3ykyXdYcdJrutSoYjKQYNfM5pu7UO4/OL/ObKTb+9Ek0e6luQoRMsvuD1x5FkZBP0iJH4EeS1RkzLZ8XW9/8Y//Fvww7B4uoYa/2QIAXI4iPf+CXH3NRfiOlogoSNpgCSTNEQSCRSp6qXFQhfUvcUWq+OWfuueLD1hXJ9i9MwMv0s3hliUZaiXROdGGIdi9Fh7tTaQzZReposgBabUIWZrWepTUbTw0hrfCt9FuMpV9r3I5RrfnwjnhYuGsRONoCVprqZlz1QRq36A/yxFifkxqczY2yBlQi87Vm5sbUL9vL8N39wN/7O+vgZavOWsgmeGlKl8wLU8l2GkjKNorgFBrzj8Ht3IVcCgccI7p8G2svqXnZjgF9JvZsdYWxtObDDF71Hb3NAPjGF2+ykFIyqnTQToC5XoW1zRKLsYNuxn5HJW9czTELYpOI7yrffzXf8Uq85srgxT1hCZftEmrEIuOH8b9S7qlAEyP1+yiWx1ILy9bGGM0NkIbxxP9qJ9XdaGia8TvZEotqjt1UKCNxWnNVqrxNG/I9s+DFei8bk0nA8Z86h/ipF0Rwwdb393LfCF5hGCLNM+EANNtt8QEbU15vZfU/PPa+9//RQbA/udw1Hgjw4oldfOovvD/91Cf/fpXGaLERLs9MSsyAUlqIMZqCFxU12NvBGpJubULmtrnW1ywUGE4ztcwIju+jrxdp89H5gZA35gsPfrZLqk59MTSCuqxnKQGE7KQIrqjBk3vrovLYzT9G0h7APeaifd8ScM88ZBRGrFvlyPNEXu6HLJhWIkocEZyltqaFX14km2ul6dCjRh9B8rCClwmVZBWeUtepmML6IO+JU1KLkNcaAXkDo2IFbvc1iBbfiDJYm8o+mbeLRYpIwVXwqSJiLC+m4MXm7xsHvCyAWXNQyqLxWjk+BNAMW00IHIMSRzZLLA8crCSu+tzZD3iZFfCwgpdcXi11WAczgpdnyFSlUd/nVJLXaOAvPadJsI24s4V0bYDiWIxisUDeKMQ7LA0opj3dHLHlQ3rG6ildUa9XG5dZan+93GAJRozMpMlYlDE8aRNqwsPcqETyx08jPD9AkOrn7dkVg7qgYaBZLaYnPQ/98RidpVXc/+hj/3D9vvtNfX0vEPnKvPfAgBdp8R/+uX/zw20/OB4wpkpihCQmsD5E8MkrUZnPs2QCXhTitTbXs1YPNnXIn4tRZZXLgJCm5YsjdF/oozsqERlR0x23tz7CpbCtFFupNdnfGdqsE7LgqfqLAjriu0PQ9JUVx34yL0cvHCJfybHwwCL8160Ai4woNoGIzEOVBVDqbN2inQO0FKv0aWbTdLg7tHiwDZ17qNi+MuPq2j91UmtU9qZGREzPJGaFbaPI5zEojmP+1NtQRseRVI1aIf4yX2lSj5Nm04kUlO5+edQbza/9pDViNyVNoZ9vAfjlDz+HUbCMhOQRWfVV6YDRJPf5rI3IImaaXHf1veZNpiI4cQnnZk3qwaYWZucFexrJPlzZKrG4WeBIv0I3ty28U8bKy9VPLYgdlsjrpe6tTa9KzUn6rfhqYz9i1ew5H0W8OkXsDTBu91CuJnCOJ6iOVNhyB9LkLPPcuENI352o+bNFxgPFECjPxXIHa2UiS4VMqfCIpO+rTpOXLZ0Zn5XrSQmlnTtonh+i96kv4KjTFIWNeg/XrseQAS8CJMFrlKYowwhRu/PlR7/1O362s7Ky649+pd94YMCLF/qFP/zo8rNPfem/mms0BLyETFFWEjnRe8qCl+7XVYTX7jxsmtBOPksZJrOKP2MTnihwUHG+l2LhxaHIqrSyUlQ5dIemI0aZQTUKWq0/ZAJgUocqkBMUGw1p8U+THF4QynsJlgQtph6yTorozg6i160Bt4WA32enIdDkdxRKnzWCo6IHYCi2bJTUSM4sdpJPY+TAOhi/h1tDdmUfYvCy586Q0x418KJ0qugXFl2k2SoaS48CrTtRddcwpK/TlWbIBLgEoozry5SWfKNQ5c2+ZwJWk1sou/3pTj/3HYm0uoMKy9s5jm2qdJqIP9c8n2T5folU4I0EXvZap/1WRrBAFgNS47XRnVkegkvmFEj8AeJ2H+nyAPHiEN66i6yTo4yoPZpg7IyQknxEpws2NVPZJFcxBVENcthSkwg7meSikuIElYonc925JMIlvPG5xRUGf/5VdF8cIOyrikZurKT2AhLSW2rqcr3BEFG3iyqK0Jqf/z8e/fbvfu4gyUHNXueBAq90NMInf+1X/gaKdLGMYzQDRl6V0NqZ35B+r0TlojigVJh3CjKyNJl13KYPqQXGvK4whIyAbycB5s+PEZ7bRictZXAo9d6ABL+TE3pnjkHvnSSv9TutBf14lCAKO/CiJnJGh0jgdFMxyWvf20Tr3g5wsgU0yJhjNdaX6ynHA7ihRhoUt5rqDKq0lYKTNjkKSYPZ+dKHSwPLgtRVUo1Sowq/lyG8T++dAAy3twQvE0cIu1JTh0LQ8doYjloIGvcgOvoOVNkcik4DiTjv1hbbyVCoN7TPXptNsV6nVOs+R151phkjBzbfc4gKC82ob9iaCjdvJG/M93Ic3aiwOHIQFb4qjVOwugZcL8c+tPi2ly6D6zPqdn8mfCczHbxWT3QVOedSnW/MP1chnIxagtrxwrg59cYoSJ2n8HM0RrEyRr40QrkGpAsxhu0BYncgqjCs1TacphjOegilTlY6GZ3nUHmZgBdrbHXwskAyIX4UDuYqH+4LW0LUuK2IUGwOEDQj0zq0tydgjS3jJEVzroN+kqBqtJI3v+sb/seVO+66Po/oFfqUAwVeBKUnPvRrD2ycffG7lrtdpKOhNOeR1cOdMvOyBC+yD8VargZclh5fBy/eMxI7xCbeiNESoDgYur0MwYvb6PQSNKnxZwuqgkqkxDLfbahr9ZsvFib6A6nKFI6ydUx0V3oZhm4P4TEHcw+tAvdFNFYCjZbyYoyK5pGM/5zIfKpS4VV9g2DNv61VAbfPnCj1pkZfVEXc/AaIvOrgRYq87fkydEAuJ7xblTOHUbqEhbU3Ap0HxSZmxBpnoIy5ndN3FrguB1LXCbhk677/i8tvzgAAIABJREFUaUMLNBa8eFrckIkdPLUMRRVCtT+ZiWC6nE37FO9djANEpkAzm724HIBNIi8zeve2dF6PVW1v4GXnsqRXyY4y4KUPNoRL01KTzrcRmqYWGY4Bfe8Cku4A2WoqqvXZWoK8HSN2h8LgY9qQnnNOGQjBSgCTfnxVjpzz2rjs2sjL3hFLwKGlDRuRe597Gs7ZbSxkGqVpG4jaQO3lEOD2tKl/nOUI5+ewOeh/8tt+4ic/dJCjLo2a98GM8qVu9tZzz+DJP/7Ufz/e2HAYeQnwyGAh6aJAlsYi088Cfx28bI3LfnY9J68Cvrpg8TNaji+us43zQ7TP9UEFDlFQpuI8QdHUwbSfyrboK+NNUnxmMeBOKmh2ME5GcMNUdmJJN8HCfQsIH1gGFnORdMqLnjTZBg1GSwGKJEVVelIozatUfX65ZRbFDsPv5vlycWf0MZMW1GvT6xFG3t7G717G/t7eKzUf2SXU+rsMMUU2BwEKp4NB2kHUuQ/N1dejqlaBMMIoK+FSg84aQcuZmGbQHbWs6whUl7vafQav6UjQsqiNvKTgTwIT+wpN+p0bOcqUUWGmPcix2K9wpOehkygESeTF2sxLRGAHF7zsw7l6OL2k5kVBcCNaQIAQpRzqaRrS74T4a0mypudUGMTRtviFFWtjlKslisUMaTNDWsbq0VcYY1BGdK7aEWWsf3laLyPDsC7sK31d9GbLfVRnNOpapGfXOEPL0xS7NBTv8SgIWGEomY44LzCoCrzha7/2H5985LE96nbs8cSu4u0HDryYOvz4B3/xWyIHb6ziWMgWOsh0ESrTRFiHZaFCkpMhawucNako/s4SLaTRj2lG9kaZPHK7n6H7wjZaw1zU7PlzSd4V6p1zJfBia7Q2FpbYLmP4cx68VobmsQCt160CJwKgQSfADEnaQxQRtNhAkoEFWIfd6lWJOE3Ee4fXZ0U0JuwjLujaSzrpW9NrJbWWvSEaa1Je5tCCl7kemzblhUrqxl4nmsiwjEG6hKUTbwHCo8ideeRGoqtW8pz06u0kYuzs6bpkPlz9OnflqXQAwMuenG2E1TSY/tTWfjlchLxE7QTOpyzHQr/C7ec9LI71Rug8M35O5r9nx9aNBl5SMzRCuJaxKc3Hko6me7FGrtKEbG60RGByf9iLqpvNzBkLrT5pj5AuJChWC+SLOZyFAnkYI3dI0hDXNXWyoHagKG0wcWgyP7UePa4v1CzsDoHBk8+hfPYCupKV0bVJlOWzTBqY93Iwq0WafCNqInUcjJ3qS+/6Kz/673zW8Q/4ceDAi/frq098svXik1/8Kdp2kG1nba+l4JnmSpln46qk6jXyoMwKB5UIkxrBUmHjMJftsaVQGYMEKKp38N+0SV85M0RjK0YWJzKxG0Z5w2Pn/WUiL36O6ArShiJKsdncQHBbiKOvWQdOd4HGGPBHdL3Uxlp2qlu/BuHssjtNuxQd8dsy8lbc+1DZ2VqSTCq3s5Ydsr/WlUbCTStDdcBH2suc3g72monIqqqLOD+CcO4+eKsPIys7KPwQeeki9FwU1CmmHJIFwR3fYSb1FViFk+/b623bZ/Cy18GF19a6eEk7qNqUFxIGbIVQqLAuUreStOFdLzhYHSpg1dOGFsQOH3jZB3qVO5PLZC3sPSWASNJDWIFGZsqmtE3NPS8K+J4H2pawTE1iWBbGSDpDjOb7qE6kSJfGiBdiJFFKLXqRlqJioR47MyvaA6bPQhwyXthG/PSL0pdKejxCH0Weo2k2rXbDstdhXBYUTQhx5J77fvr+d33DcK+f92q8/0CCF6Ovj/7iz/3VlueeEMahASqP0VNByvwYRabgpTvG8orgJb/3XKT0PWITnqdCuFRTXkSA5Y0MwcU+ysEQjaxAq/JUwZnsIFvQkIYP2kgUSL1CbEzyCIjbI6w/cgTOKda1ApF0KsMUbsQdUoEqSYXfqOxAX2UOjd2JEjEYgCk40TqBP3O1RVJ7t2QWWYacHeymAWWHxcfedl+vxkB7ue+wk7DuC1hWC+glJ7Bw+mtRebchC1pIqhie68EnwYO37BKSBr+pdj9uAvDivZs2KeudVn8qHW5qHcR9U4nAbObGXoXWGDhxpsSRgQuqN2jqSl9rnZfr4FWPuq4SGl7usV+H318pZ351Z2jfbVsMDHdlAv4S5Ev7gW5G7f2Q+pVkRtRbhEobopxhSCBJkGLY3MLF5jngeA7cBmQLGVI/FScJzRpRdZ59m1NHComORXbKRSdx0f+zL8M930c7LuGkBarQU9/DUYpWo4msUMq9roM7b+csc/FyN1s39yoMEMM59zXf+/3/W2dl7To8l1f+Iw4kePGyv/ixP1jcfOb5v8HgdTzcRrvTQFZmyCgb5fsY9vpSDyONXmzuTSCijsF6qJPWTvpp/QGL03IeIuwNEZ4/j2ZvjLnSQ5A7yEpPQI+DLMsSkdUjtX0Uxoi7KVr3dtF9zZJKOvmUc+KMN52Fs0K5E1Mpc241g8VLnXhqdF05+SsB07Sp95UfJi/xDbYeNznPlwNS201sTDiZ+88KBE3amJdCwCgLF17URn/YRvfENwPe7UjCObAtqQJrhAXCnHtdtW14yV6tva1tL39r9znyeqnxPbuo2VqWZR9y/C9kDuY2chw9n2E59cH/sTdNkgSWul27hxNArP3sahbJl7+R+/+KyfUaMtbkjCbmnbODaac+pH29gJFLFZwEWZRg4PWQdGMEay68NVcIHYk3QhyMhGIfVzGchoOqLFAMEyz5bSykIfIXtrHx+adVx6BQLUUFKZYLLMVd6bY2cp7eRW25sWc8O0dsep1ZrKjTQu6HCDudn33su9735YMownu50XFgwYuU84//4gd+JMiT29oRLTFyjMdDJTnQ26sAsnF8CWHhWiYSH3hQ+mgMxpg/u4m5XoyFmLuoCklFF2Ota7mRg7xIEDsjtE/NY+6R48AdlMLYAoJE6K+2/lavw+3/dHwVzmAv4CXETgqPKjHHC0MUCWWvuKNsw23ciWD5a1B5xxCHjqSEyQhzqgwNgldFTbmpk+2rcLWXfsUBAK/dXjfBjJmNue0MJ88Cq0Oq0AciG2W38/U6z9Smw0Z0mqK/ljm323M9qO+zm2HxnJP/mGqrCni4FVJnjCQcI2+Nkc6NUcwn8FddBMsuttHHyB+LzimVc4K8wnwZIjqfYPjUC8C5gQgpuMxJSm1MTS8JXvybnmG26d2mfe32dxa8pMpgHqgFr7DZwDBJMYITP/6eb/pnK3fdc1Bv9SXndWDBi2f6hY/9wcrWM8/+tWI8QhiofxXDXKrNJ6NY5JOqGeLGtd55pg/pSrp6IYP/7EU0Nsfo8Mk2S8R+jEGUoVf2ML/excrDdwEn5gBnG3lzDH8pQhn3hGRw04HWFW/0y0WK5o0G9Ar27IUNFHEu4EV5kqToIC2Oo3vkDUDzFAp3HrnnayOuRAS6C2XkZVNm1/rcr9vrDzl4sabMBlj6fS1t52Ja2cpZP9bqKxc7gpbIkVnfKtNPaTJqNzV42XGkivLanaU1K43KhMnuldrA7I0w9HtIG2OEyx6ClQDVQomkGWNEcHNjhF6BxjgHvnIBg6deRJcWNiUJWlT5ULKWX6gsHMlapNtPFFtmUof1ethsnkbOjQzDIkNK0fL5hY+8/a/8579/0Onx9Xl7oMFrtHEBT/zWh38ydIsFpDGajQjJaCx9Vb1eX/q9IDYpNdbhNfQ+kMJKD6524mB9M8D8Zo7m9gBe3kPs9dALtuHf1sTiHUsITy4D87SNioEGUwIl8ipBQ9iQNp43K9l1WxkP4wddG3jJFUp/F326GH010Y9JjX8jwpUHgKCLAhEKGuRJr8JUq85YUu3vTTrk4OWWBVq0Cxq5olh+dIupRF8IBXZYE7ysLT0p+HWNPnl8V1de2t/n9Ip9u+ZXpcFD3JIJWlr/sqxP2WBRZ8FPZUM8ckdihJk1xmisBaKVmM2nqBoJPH+McmML2VdeRHVuG+3ME9Ja6heSirT18CaVOyisTAso02g9e4n153Il8HJaTYrw5g+9853/ZI06hofoONDgRaPKz/zWb9yXj0fvi3tbaLi0S/HUD8v3tGl5NNr17SZ4BRFQbCU4MupiKXZRnjuLZHwG7WMV2qebaNy5AKx4QIfus33k1QgOFZ7CSHb+ZESS4L3j2GPj4K4vaF/e+HI1LntStVrXjvPkPcyBqIkiATK0kAen0Fl+G9C8TfuUZFEw/vaVOrBpmsYoquzn4nnIwYu6axR/Zp23s5Xj5IUKK2MPjYKLo1LEpfnZ8IdugVd98FqlXVbatfnLRlzSI0aBXRJnyELk24IKhV8h83NhHSZ+jLEzgLtcoVxJEC4x+zDE6PxzSJ45i0acIczU7T31SuSeRl/EMAEv9r7WBICnUaD+q94FZmfphHAiIuYORmRCR+FHv+GHf+x3D0uty17ngQYvnuTWM1/Bp37/9/7uWrfTKEdjSloABVk6kD4pAhwfzG46zUuHlPNMrNGX0kW42wmKrTNYWKqw/sACcLoBeFvAHGmkBZJqKK8PfQ+U1EjHCSK/NWX5GBHffcGQffvSPYCXlAiUcCOUf6+L7fEi5tYegdN9CJk3J87TZGH6QsqhRk8ob8nM10qhet+uff8VNvZy6XILRR9P2WadYYXbz5Ui2jsXMzXFOqOCV70HSvivZmW8FXVpX6IFL+1VNA3OxtXCzhC9j+qEQWUNRmNpOUAaDTHqbMKbH8BtbGO0/QLKjQ206ZYhDWXqvCxRlnFrDwoVl6ZQwoQFaibC5VqXrwReeaOVP/j2d/yTtXvu28tQ2pf3Hnjwotr87//7n3sUafqepkj9Zeg0W0hoH4IK4+FQm4+pelHrOGdz4cvLp+TIigFCN0Sr6gJZilaQ4fTdi2gcZ9rkDJxOKdYHpcdJroJFYtcigp18DeVf9nX53JeBM/3SlwOvmalUVwuxIRRTvUUpFiep+1o0Vx5GFR5D4vpGXT5HUGVwpEmTslgQBXceVuxg327CIY687P2TzkHfQSsB1jeBte0C69sOOmTdTtKCesPt06y7OOzbvd/3LxYFTsPq29kQr/oCVOspENA8l2lDOhVzBaFsF5U2KOMVcCyP0XefRRKcQeGfQ1pcgJuPJNMkjsrmzrO2ZdV2phHUTvASf7HafbErkyVoiNegOeiFOPLcP3j3D/3I74Wt1r7fzWs9gQMPXryg3pkz+KMPf+inOo7XYp8KwYNOxASrZKxCvbsFL5d9W2WGwG2CpphZ0cfakRCn7mqjvcjBMkBaDTVcF6VoNnxS6FflqYQEZI6bE8SuB3j5KOBjWK5ibu3rgcadyLyu+nBKEzJV4VPjgkyBU62zMOMhqvL7uXe4AcCLjfeZzwZ9B/MDYOVigRObJZYS9ZWTGk6lBA5J1xoRgGtdbG7E1wt4yYWpAkedks5xiyqDy/4PM2ZFgNsJtH7LnyUVgihFHr2IsfMcxngWmbsFx0ngOUbphwzDybZBAUyjram6jtTVjGhD/T7Pgle9BzLz/Oret7ztfzj+4EMH1rPrpcbMoQAvgtOnPvirr6tG8XeWoxF8F2i1GhjHQ5Fv6fV6ollIFqIFMgIJ/y19YFc8uK1JNXxnOtJ34AdcKPs4uu7jvvvXUSbn4HixZLXo2Mt/EOy4hxJ1h73Lix3yOX2VBI0rXaVY/oYYOR3k0R2YO/ENyLNFJFWFKPIlS6xOyPZGq5nkdMewz7fvBgAv3lmyCV3HQTMDlnoVTpzPsbhdolUFatfB9JSRSZqwPtUQ4aY+ZnvDJl0G7L2SSlcu9kgCNS5BKJD2kIJ0dyqfZCU8f4TcfxEDPIPEeQ5l0EflZtLPyFS5Vd3QG20ivZnG5Dp42YZ1vprqH1QP8jwKA7P3yygRkezWbH3yrd/3Ax9qzM0dymd4KMCLd3a0tYEnfvO3/yZGo/l2M5TGYUZKgediPBypztdM+o6TjQPkpcBLZEs9IK7owePAITJWQ6zMO7jzjjnM0XvbHQAl/6aSdCTuvAUFdT3KvFhDyEP5/K/DSe8BvBhWVR7yooWxdxTttYdQRffACZcQpyWC0DWpYO40tZ/LukaTgcVDfND28zjk4CXK89y1i8qY0ry7I+D4+RwrvQILYxetXAyCjGGqJM7lPZxatvF5Px/BQfjuejPwpJ9KVKOZFaK6j9YWSTyqSpKQHBHc8Rz2iW4hcV7AyHkBuXcOpd8TNwkeovRj6mgWvBTCdF1zxRbKZCLkR+p6IXR9QmeSotvtYjxOEEQN4QmUzGG6Du555NF/dPLRxw/t9vvQgBdrX3/8W791ZxUnf7kYD5EmQ7SbDZR5JpR5dooTwFiHsrWues3rckucNPXR7NL3kVQZKLjruD6KcoxmlGNlrcKd9zThNYdAOUBepPD8SKwNGOl5Yipm5ZoOwhTaj3Owd/Zq50BduokWERGG+QL8zoNoHHsISdaAE86JplyZV2BaV9MhZFZpmkQt1Q14TeSz9uPaDzdhQ3bmkpBSF2EhZTD6SiusbBdY6wFrWwW6CecUW0JIAVflBgrR82/xYr6Sisk+PZJX+2tnL38S+dh9s6nFSx3M5BXFKcMr4IRbGJUvol+dEeAqgi043lieivaLyfZYesimiil8DlY/SPu8RKzbEjZq4BW4HsZjthc1UbousgriIZbn2R++50f/2n88jLUu+3wPDXjxhHsvvIA/+f2P/DdunjXp55iNxxJ5MRznA+IfUaE3KUMR8rXuyJcZ0W7pwKcmGUNrJ1NnZieUqApugqg1xOm7Q6weBbwGmY09eE4IhzsXO0JvgZe5s9cOXiWaiMsOcvc45tYfBxrHUbgO4gxoBRGShCkVWgCqWac1DiSysXFT95nCfXu116vp9x32yMv0RU7qWS7nRCWNy6v9EusXClGdYcQbUjpNVkjaeVDr8xZ47QAu00QvEZMdISYCEpdkwz5UbqIDJxwh85/HsHoeA5xDEfZR+fQwTGRTzY041xk2jOfCNNQP5QaCQuTCNpT6l4KXpCzN9/Kl8nvJu1NuLRLLk8Lz+Gf8pq971z8/jAzD+kQ/VODFGtbHf/mXHkGefiuSEdoBG1tTAZ84jgW8bOpQlOhr9a7Z5U21wDhRVeiSEk8CXi6lqNiXQVLINjpLMe68u4vlI9Ta3UaRq00LxDzReITPahnu31K6/9884z021WackHUn55hhHoNyDa3F1yFafD2QN1B4FfKyQkD1eLLkJ5NSyt8TmNLklSROboHXHp46E4Kyv6NChBAydMfPOtfiGFi5QNUNB1FKHzCmEBn9KnhxWWTy4WaOvOpgYVxk5WlM7omVY5J2HmNV4xRK4gg20ceTGLtnkLk9lH4M+DHKUtnMvksRcY24ihrT0GMqkYa0VwFegccSS6bsxiBESjeGqvy19/zojz9RXx/3MIT27a2HCrx4lwbnzuBTv/PbP+nF44VWGIivl++4kjokgDGdp1vynU7LVwIvp/CkUM3+LclNc7dDvTz2ElVDOP42Tp1u4/aTATx6dBVbJtHfRCkAyT3O1UYd+/acX70vvlrwqlzEzhJG/muwdPRNgLsiPVyS+m2ESLMCbuDpwnqpHioq9uiZmsCtyGsvj1frXHa15U7eHp0UWNoqsTQoMTd0JX0ozcsU7jW7/JudsKGCUDwm/EGTSzYEd+Nla14CT/oWE9IMUXjnsV19Cbl/QUALXmrWIX6qJBaNvhRTtKptqAxDrRXrBNDIyz43ez7WVkXY0CSK+A0Mixy57w7f/HVf/9MSdb0kmW0vY+rVee+hAy9q3/3ZR353rXfm2R+vkgSBzwWODqjM4yqAiQLHDA/qcuAlfCDWUpiUcnJ4TBcaCrzrREII8ZCh3U5w+ykHC8dob7otC2cVtlEUtGIhYeMmBq9ZsJodt5eozZvlrnIxdo6gWvl6hN174YnTbIgi9ciJQSKpW+b7lV1ozRWtm7VNkzCdta8L6CFPGzIlxSiBtStNsSsNmynaiEbgsYOlXoEjmw7mRhSJcOGLXdBkXX11VqqD+i0GLUiUJ3lCDcB4F1nPdaT/XrBGXlfA8UbCXi6LPpLqLEbu01L3CsRxUI0paVjL91O7R3ILFdczOsrn8mEkKfH3UrlQgv5lU4YiT+X4cGg4yfdxsx8Ev/S2733f58JO56De0as+r8MHXiw2pik+9vP/9n0N17nPq3LJ60p9CyVGo5GAGAuV1sRyRxhf02Kj9A2ZNzSQCzmwpAGZih0OPJcmkhA5qvH4HNaPl7jrvjk4nQFKbyTGbSy7+KWaYe6wNpEBPCPOIot4HUJvEMC7BLz0ulRxQAvO+gMricE7E6GoOhg6t2Hh9LdgkM2jyfxTXsHzQqHHO2GJlLqVLv3QpuAlZQVZXA2r6hZ4XfVkv9wLCV48LPGCosfStOxpMMY611w/x20XSiz3aZDoiyKNBa/LKWxcyVeq/tobJtVosgJSYxLfP7X6IZuQA5X30hIpKi+B4w0BbxtZsYlx+TyK4AxcfySq8U5B8HKBgGsSAacQ8LHg5Zk6b8HM0GXAq/58J5GXED5ccUnOXX/rTe95z79cuuOOHSWVPQ2gfXzzoQQv3q/n/vRPoi9//ot/r1lkcLJEi/keMBioYK/PsZPl4nBqi5e6I9KUoNCDzUpo+Dy6s7EZlIo8LOqSFWhEBcrqIpbXHNz92mU4nRhpfBFhw0NFx2UE2qTIhk6OGoqaVaTyp3Clk94HyogVAiNCK0N6MtD38fnv+at3eEYJkDH1ynkrfhBwGFG5AZBR7M0Bb9U4n8PG+Chuu+ddKNwjyNGWCaqHgtwkfTXjZ8bf2sL1NGWz58vY/Qcc8shrx4LHkWoWyETsgNgI7mAuc3CMyhsXC6z2HXQyZfTahble97G2HBacbP+RbW623zcrV7T7B7C/75xkXKXnbZrfJr1d9mymmV5isZCEiW3ExQtIq2eQuxdRBQNJI5oW58n4t/dNPsf4dU03xFNVDa4vpVDxTas0X1trD6ocHwnLG40W/Gbz/3rbf/YDXz3stS77xA8teMWDAT794Q+/Pb1w4R3dRoiMu/SQMFRg1O+jzFIEjiuUalV41unCNGEdvFQFWsUv64OjLqPiuAngDNHq5Dh2e4i1oyHcaAAU3EVJ9/KEwCECMC796QmEhlQgmnzNGxy8BFaMv5DJzkth2ewUhDlVooxa2E7mEC18DVpLDyBHCwWVjg/rccjBq7754BMMCk0bUkWejcuJ46BVOFjrOTiymWN9s5LeL6YOdT5NzUCFhyitDFPCws0AXrLhVaiapLAFdAyWyWbLq1B5faQ4h6x6AZnzPEp/C5WboHJrMj3XOA+k09Q6h8p9N5kPUdzQ7Tg975wg+srbvvf9/3drYeEav+HgvvzQghdv6YWnn8STn3ri7zvpyGs0GtgebIv6RjwewS3I6HHgFLlxIDU7+lrkNYmybMg/SfWZoihLpi4VNWI4zlhC/s58jtN3LWJ+PUKVbcBxWWTlgDELsOgsqnKHQzKHVZgnO/FGThuatKiovQkDQC3TtbjMO52jqhqInRWkzm2YP/lWoFpCjuYt8Nqn9cE2t1oXXtHrNIsfwYuRF7X4mqWL+TGw2CuwulVhcVShm9JnykEmqg1TW5S6arm9rFnh2OnOeZ8u/Dp+7U62IUFMwUPBywF9cz3mZP0UaXUWCZ5D4ZxD6W2i9AZaP98DeFEijYxR6dVn/V269rQvkmdCU93SD3H/I4/+45OPPrZ7lLyO9+x6fdShBi/u5P/wF37+jYHnfMv5M2dxZG1FdAfTeIxxv88mB+37qpGsGWPZ3eDkJlK3cAfpYsroYQhOOSjXjVFiAD8c4diJLk6cXITfSlGVG6icWFKHdASWvoyKCzWZiNfrMR3gz6k5KVdSpBa1Qbgi6ZrLM0DAtGGGKlhFLz6GzuqD8BbvRJFFKL02SvOeA3yVVz61Qxx5WWIG9xoUgJUMhSVsGNIG1SCYwWhkQHdYYb6n7MPVoYtmQQGkS1XN6zfrhqltXWEEzFLlVRKK4EXShSMaBsyal14P4/IZpNVXUfkXUXpDjbpEhWP3Xd5sK+EG2xJuLHiS9MGoOKWNVKv14cfe+z0fb8zdOFGXBh5V9Q8O5aJhTnq0sYFP/uYHf7wRhGsU7U2GAzR8D0WSYDwcwDMIYoeHUOF3HLbWMi22Kh3V1KdkWPB3GSpnBNcdodEqsH5sDsdPdoDgAuAMUDH9qAKIJtqqKU+YWpBlIsnXz9RyDuUzkOK0TVOEIHhRp1BEi4U5lUntj/0lRekiLtdR+Q+hs/6wgFzptVA6wS3w2qeHb8GLX09mofYN6cnU04lGHApRBrQHlbAPj/eA+cQTqSP7+qm+nn5GPYV4ORLHREZpn67/en6tmijz/7Qp2M5vLf1myJwXMa6+gtx9DgjZbpOgqFheMJT3XZ4Me1MJXoyaJwQ1ktdcF4lbIXP9+IHHHv9nxx98+NBT42dv0aEHL17QFz/x0fkXv/KVv0lVbKQpmgJeMXpbWyL9NFVh1pjg0sPUuwxTqA5eVeVJEzRp80wRMgJL8210ugFO3z2P5aMZQAYRMlRG3d51fGWPTPo01DdMwatGTDj0ADa9nsoJUUlq1Ffwohgp+1ncFGXpIA9XsD1cw/KRd8Ntn5Zoll3/WUHK7yEOUQ955MXUIOHHgheJT3aEahpRZwuVT/jvKIEI9p7YKLEYA5E4/ep+X5tp9e+Jvp75jEmrg5kBLIVagNvlun2g3lYna1g0F3B2M+TOJuLqWWTOCyiDs0DQl/WALGcle+1u/Ms9nwEvarlWohhUYVxV8BuNX3j7+3/ozw+zDNSVHvQNAV7pYICP/uovfWPkeI81hOhHS94YQeCjP2ReeSd7bbagrDfHKjZYgDONgKUnAEjWYQXadJdIs778vbAM0T5stGN4Eb9Yu+OFzeNEZhXgt1nwEpMP8yxsZHeg5uA1noxhTQpXKkIhtF7tS5HVjIBNxezA0E4OAAAgAElEQVSygcQ9idy7G/NH3oYKiyhQwAtc5AUbLHc3ea/xZF+Zlx9y8CJY2bQhA4e6My8BJyAw0XpIZNgU5LqDEkc3CqwMHMwlnvyMBwGLFHELZBacLAja6MsKAWvL7Z6yZq/MM72GT51ElHV6pY1c6VjhX0RSnUNavYjCuwiwzmVShgpyzOzsbvzLJoOOC1SnJyWerEJ+FsXKyxKjMn/mnd/3g/96bn39Gq7o8Lz0hgAv3m6SN/7s45/4Oy24bfZDNFxgPBpgGI9ropaMCLRHZZrGMHumSQd7HbzIRPQFjDiBGX25HsVi2VCYo6g2cNc9C1hcrdCa5zaL6cORFk8rHwX7lpjwlkFmIy9bM71RwEuXoAoB2H8iPSkkqUg6iV4aKVJvCdvpaawefxsQnkJON2SR4jrkwCXPdSr7Q4PMLQC//OHnMAqWkaAhahTcsEhah1JXrAta6vMk0t+fBaNOtGDNi0cdvGj3ExrwoqwQkwlhCTTGwPJ2juV+idWBj05qVDokqmLvpPWW0nkmUkes/Zhhwe9gxMfvt6aW+3MH9v6tlytXySOn8oW/hcx9AUn1HDJcROWNhMhVgMrutCnxjFDv9QGvsuB64yJ3XIzyvLr3jW/6p3e+9Wvru/K9X/AB+oQbBrzYuPynv/sf1wdnz/1Yi9YDNKwscxRFhnEaIy+pAk/KeoWKTEQ48H3KS5n8/gS86v1GZobVTN/YJU9bepme7hhwtvHaB2/D/FIBx+/B8QcoqzE8v6lBVmnAyzYw1tOGsvPa3cA9MGOIN9AXcwdqpkkrF3eAjvw8RF46GGMVfvcxNBdfj9xdkN4hkYc0YqUH5lp2cyKHGLx0U2XZcTZyUusZHiRw2HSfBNK08WA0lpZoJiWW+sD6hQorZB6y5kuaPaeF7ylTke83NPJZ8Mp8zUBQZHYPfIXdPLHr+h7ykXxWCZgypQAGVS9kOvSQu2cwyP+iRtAgicmmVTULs5fZL9tGOjSzN68kM9pDwfJ8FKHy/d986/e//z+FrcOvpHGlB3bDgBcvMI1H+PjP/fz72354d5llQpsviwxxOkaWpRpei76QqmLwYdMYTg8+dRsV2YQGf64ANpUgUjkWmfQOXVJTuEEf9z+4ivkjjL4uCqilcYyw2TRbzNoQvaL233WdU6/eh4naKCW6colOaXon94cz2W1iXHThte5BMPcoquYJZIzQzI5bmrpf0m/t1buMXX/TIQcvJVQrcGlr0hS8rEpDnXghtGxSsvMSC+MKJ85WWBlr6jBgpkFWb+0v0rSW1tRsZMcf8fkTvPh70u0PM3jJUmDU5CctAf4IpXseqfMsEnwVpb85ZRaalhl1QzCdWHu4AUy/cw0LghDjJEPYbKGXxBuPv+eb/9VhV41/uTl5Q4EXL3bjK087n//EJ/+uV2SRz54rRl9ZgjRNpG4l0k9Gz012/pO9zyx4GeCSO1jfH03Ziczu+56DUXwBS6sl7n3tCloLrHttweVsFVMqvnfKPqrvdnUbtpe918s93lf+9xVVNLjTpNCoeJw1xeiO9z2jBFR6DN3Vh+F370fuLEghmaaHkkajJI68+RAfhxi8NH2uTclar5qO9QnrkIauIoOm3l+cP3x95hToxo7IRq30gFbioJU7CCnXZRyX67UvpeHrIVGZdyOAl26+GPhIxCkqPwVyl/1cX0XmPo/KJS1+gMpNlcFZ+ShJ0qDiDlt0yMidbJqvfR6wHp8VBUZpCq/ZBNVY144c+Z8f/rZvv+j6h7j5/ypuxQ0HXkwf/tnvfvhkf2Pzh8o0RUQFDKoppzEyEjkkOvBkElJYV1deFc2c8qwsQF0OwOq/0zx+EJboj57F+m0h7rx3Hs1OJpXtMh2YXi8DUIccqC4dT64Ij7oS4o7F7tx1WoDjI2PbQrGA0n8AneXXw20eR1L6qDy2FHCyE7hUEe5QHzcIeJG4oWzvad+W9YeSmlVeSWqQkRd1JWMfaGZQxQ0aVo6AhTxAO3fg5qIzo7Uvg1iTyEuUHzTy4nG404asfzsomB/liiIqGhcxLp9D6nxFVOMdv9bPRQFdEZomeFFxh/s8qvfsvneYG0b2l0bdLs71ehT1/dw3vP8Hf6m1tHSop9XVnPwNB14Ep8GFC/jU7374hxuee7yKY/iclmmKdBwjLzI1gvOMrMqOZpM6MNVrX7PR1/TWOgUHcAnXHyPJz+PkHfM4fc8qiuKi/MwRCwTzWZcorO8Ewqt5YAfpNdLFX7mqIFCMTX9bpEoaVQOJs46FI18LNE+hdJpIWQbjvGVWccZv7SBd1zWdyyEGLx3VOgbFRVlKYPoPalNKGtGwET2SAYR0UcoGJPEA/mxp5KLbK7DYr7Cc+FiI1cySdU0LXgQwW/OSrL0I/6pP1eEGL917ldyIuax5D5HjBQGvDC8CIXULGXFR71MzMZIuJMOwotYp3871Yffg5bs+RmmCLAjRy5LeO//Se//F2l33XNMQPqwvvvHAyzyJ5z/9Ke9Lf/Hn/22YFx6DZzfPkcUJ0iRWAV3RJLTH5UDkJcBrUieTDJnU1YLAQVEN4AYDnDg5j2O3N+A1Y6DqKdPQHjeQujzBiyZ3jlPBK2LTBhCiKJrIvGMoG6fRWn8LUM4hEUdYBTohI4oygDFCPKyzR1b7w8s2NGi14+6Tcs1D1CF4bSQjSEZdGZMEOws+ZFI2Cg+dQYm1rQrLQ4KZJ2ocbNoneDFFyMOyCu2ss87Aqi16eAeAMgtzIWhkznnRLSQtnrqFrp+Yu6WpWbmvkjo0YgbG7mS3N0DuGysTvo/ED7B625Gfef23vHfzRhHefblRccOCV5nn+OMP/dqJ0fb2X42Yty8KlGk2qX1RAYy7y52CvLoX2nnYlJ+OvnpdgLtQT/QLC6RJjmYrQJxuwo8GuP/BI8JA9MK+shIvAS9T5d1hnfJyj+tg/V7Ai5uAsoJPdiEj3KpCns+jbDyAcOFBoHU7kqKh3lxSazQO16rTW/NLP1jXdtVnc8jBqyIf3qphWC1KIzEraUPDCmUdS4kbSnYi3V/iBcdDO3VwdBNY3sqxMnDRyYwdSJ0Sb6jydnapM7C6mR/mg2lzqmXk/vPIqueQ40VUfg+lMJFzuU/qkVZbR8Q8UhnsulnYXeqcH52nObrLy9hKkk889t3f89udlbXDfDuv6dxvWPDiXWDz8qd/49e+18nS1/hZLlTeLEskdZhz5azRhC0wiaasDqsdN1LcY2vgpXYcqson/mHCstMUYlH10GiPcfdrFjG/TNaddtRbrx/Tmmk+v8ZerH+jNC/K6lBrbL7+aca6DND0us33zDAjSW6p75IlbUhQYic/8/6sWNMhOV+C13kUwZE3imp8Bl/pxKx1xDk8x4MXOEhzrRkc6uNGBy+T5hPVFG4+mPgycyQngHkOmrmH1R6wuJGrcG/uS22M+zLT5jZ5j3LsDLNR3T729dg5nneeyqXyVVMlQwvgpTQib0mNKy2fR+lcAIJY0oiUf+I90zlm2250p8D3CWGjlLyQfHGd4zx7U3ZW4e0Ggv2VIRuSNx5699f/q7X77r8hfLqudkDc0ODFm7DxzFfwhY9//KeqUdJqh1TKyLC5dQEBDd+EfThluwnL13CihChIcofRRuTO0zZ1Wi8wte5SRWdhbdHLSv67gB/Qxr6HR958mxRxg0ZMLjGQcNCyYBBCXBcZuYm3l8l9y06MK2JU674n0HKnZjzAeGHXgfxRb1JloV4msl1tJBc/FQ2VGoi1IK+B+8SqXDYDEeI8QuYeR/eub0WSzKMIWpI+4qInSgvCRjM6IxOG29UO1wP4ukMOXrN31G7Z6ovlpYu4votRG8HLyx10kgpLAwfrGzm6/VLSiS3Hh5fRYVg3KKyrSRO0/dJ9Bi+NJM3ZMM1ZOzfLwBSglvOUsNTMETbjU2w3RdF4HmM8h7S4gKLahuMN4AQpKmQoxQvZyMRNqou2ty43Ygm64asTZnh7pOXAHEEUYJAlkp4XklOeIeTneSGGfgNr62s//ci3fxc16m6q44YHrzJP8cXf/4PVrTPnfiIbDzHXbuDixfOilMGOPgUvNZKsRyEcnKIbZmj1nHI7wUv3SQQvDR5KVY0w9CrPL+D6MTpzY9x57wJa8yny4qL28zJlkjtwwohufwYkEo2wrOqC9IMwZ2MjMEvlrwsI722sXhm8DPOyZtVgwUt1H2tRKXt+XDoXMu8/j0E6j9bK6+EuvAExFpB7uigw3STMzMKAV70GsLfL2N9332DgdS03k+OHzEP7XOfHFdY2Siz0cnRSF90iQEjpT9mskKU4BS/LQtypdnMt3773107BS1HrcuAlMROnpcxNgpE6JZPYwv6tUfDnSN0zKKqRCHc7LqMu2pzQWYIXrmlB7esyh9E41RSsgpcFS7spteDFDXaSJWjMd6VftRk1kIyHWGh3sTGI4XQWP/B1f/kHPus3Gnu/IYfsE2548OLziAc9fPKXf/WbGoH3ZrfMEbgVzl84J6kNz1G5KNkZGu8tDjrpBeMuR5La00MG2YzqtsZKTJ+x50MjKJcNzH6GPN/G0eNt3H66g+YcK9lbmkIUtY8aOEnkRWLHbHRlXsPiAw8Z+LVU4x4isJ3gZVI4/Ly6gLBVGZe7pHdqmmrhRGb0GKIsAuTVIhDchfDYIwCWkPpzkPKHSX5ayw1NO5lUySHPGh56wsYeFiwlK2iMxoi6nQLz/QqLvRxHeg7aKbeGulmxi7GdO4zA7CjYr9ShgFfN06SUOpz+QPo/JRNhpp25VoITqgxFmaJwNzB0nkTBJmSHNa4E8Ojjp1kLBS+jXWjmr4K2neME/p2budlyRRRFSMmUznM0Wk3EcQzH18127oR/8ei3vfffLhy/fQ9P8fC+9aYALz4eWqd89AO/8BOtIFil4Z54LicJCqbxzCH5aTZYGvAia4dSR/aYMIZqz9sxjbYOVK+vqjLRPSR4EcR8rxIV+mMnmrjz3kV4zTFQbKr2jvBsbc7bpAYnAGY1CkjPI4AxjTjhM08nwB7ASyapWURkzk609urZd0OdtulUM7X1Fug5sumywCLG2Srmjr4VaJ4EnCZyJwD1/uxbFOQ1XWIjSrsDP7RT6CaOvHSR1349pseiAmjFVJ3PcWwL6I4oF+ZrdsIoaVh9Q9sUvZ+R146NmKTIqVlqILWiN900jyjYJXTLIUpsIysvIsMFxN45wCclnvM9EyUNTfHb1D7nr2iMyI9kNZmxSLJKJno+GoVN5qXjYDweY67TVZFxz0PYamJYZtlr3/D4P739zY/dVHWu+jpx04AXL/q5P/lMdObLT/29Ih4L+3DU29Z0l4muLH2etS4ZwoaM8FIL60QlogpkAlN5XtMLhk3k+siLMVyvh6PHGzh9dxde1EeWbyJosu5lKF02/rMRmG1etAOfHfmSSpwZ/HsEr8m1TaIty4oykZbsGG2Z3U4/k96UuhiVElqIi2Nwo3vROPo1QNEVIoetDVrwktqJqaW5pe5Ib4HX7phmBwXs6+Ala3tZYWEAUd6gaSVrXyI2wwZn87es67WIfF+vxUZe4oieGR8/Ag6tlLQNggkY6afnWHd7wihM8RRSnEXls3mRvVwq1s3Nq1V6p91JNVHYMel/M89Kk0Gx9URuqKVlv6bsb21lAi9EQcIZhXzDCANumAP/37z9+37w6RvR6uRqx8NNBV55HONPfudD9wy3tr8/LEoBsHQ0BHUQhawhdG4laghGXIXu3kSfzyzyjgj3srCraQN6Wfk+04kDeOEQ68d9HD/VRNhNgYIsRM2hKzBNjS/Z3KhpRJ6L6cqXFIQNlczvJjWxq33kV3id7BY1wScTSsDFpjUtePFcTMqDejgyoVn3WMKwOI25I48DwWkUTqCirCIbNd1Fqn6egrqo+1e3wOt6EG/2+OT39HYLXvIsDShxaB/dqMT3a2HsoimPXPu5ZpuSa7yEPZ3Hrt88AS9uxPJJDcpmBkTEyuwvSmckvVy58yxS9ymUzoaKUjNFaBV6TBpVtEgcD6XkRzl/61mTEpeCl5KaBNiF3KL/zscZFuYWMR6MUHk+xhW98dzfeef73v+x1srKri/7RnjjTQVefGBxr4cnfus3vqPth6/vXTiPBkpkaSJ0d0l/cHdFU0nZbSnZQEeUDj67T56x75mOBXFUNjQ6M5CrqlR2Y8X0wiaOn2rhxOkGHH8brk+bBFIbqUIf1LpCLXjZ7nvZl10yCaaEjl0OR1vj4s6RBA1JW1B8VQFzSs4wAm47Jil12iKMy1UE829GuPIGxGkLLq+VQq22fMbb4eZmcbN1s8MdcUzu9k2eNrT3gWw82dr4bFx2MD8ElrZzHN8A5shFUm6dgBfX5YnJZS1FtssRvKe31SvauhcT6JhurDgfXK4HA2Q4g9R9DrlLb64NwGNjvt2cTVtvZP7LeuHXIq+d4MXsTJ3RqffDgFetRaXT7ODC+Q20Wl1xJO8X+TOPv/c7/vXNWueqP+ybDrx48ZSP+sSv/MqPLnbbx5x4jHQ8kKKoyEaJ0CabC68MXgSuSZHZ5X6p0OKsDH5Nh+miX8KxO6ictYESnj+G6w+wfsLDHa+ZpxOZFnoFuGz0ZQbyhB5/JUueGcHfa57GpvdELigV8Jrm/CM4pWd2orIHnOo/yuRi1bApta6Lw3kcufdbUPnrGJaBFJS9Qst6lmpc0cdIauAEPLI0zcneImxc81M7SG+waS8R4yWABS58x0FIx+VegVPnKiyNldChKhsKYKHZk2W19qdX+7o06iPoTv3IFMA4QlVJhNmHyh2LvUmCZ5A6X0XubsANKAlXSbvNjgXV1M1J3uIf15l1Sq6xhu12uNaLoBGZMji5hhRZiVarLdJq/SwfvfZtb/mfjj/8MFwyfG/y46YELz7zC09+yXn6M5/5W04cd32nwKDXR5lrUyHTh+PxEK1WC1k5XdDr1hDWZJCaZaJbNhmIOliZNpQmRFcHuMPCtechzxOh1LbnEiysFDh9V4TK7cEPQ0nBlVmuBVjpA7O6iBzJE5OJ2pC9HuClaQ8CKJlWYphIBmZJ8NJCPAqyIzmrc1RCiffh+A2kSRtxdgRzJx4HOnchTiPkUSAA6BYVGtKTYipmbiqpksIJd4KXIv7hPW5FXnbky99Md9kN0MIYOH42x2q/Eup8SHYtN4h5ibBQZ2YSevYrdWhrWvzbdnty2gp4SBaG8yJFinNInadFJT4PzgBeIs3BO2vB9SFs68YmWzL5le2bNPOaG9zSg+v5YpjrBT5GyQghNdTyQhu9Kw8uI66swMrxoz/zum/61s2buc61Y6Pw/0cM/+Dwrhy7P3PKR331059sPf/kUz/V9EinHyFLxoY6X4EU1a3+Fmg5MIlGDE3c7iCl96tmdaBpPSVVKGFD60PSuOz4cB02SRdC4PDDDFFriNX1Arff0YEfVUiTbYSRI/m2MmHNjI7ewZQevwPA9gpcPEt+BqctQ6QMpenr0p1oqOAlZTDuLpWcIQVst4ECTYyTBQTN1yFafRCIljHKHVSh1j6cooBfeQg4OUWZJEfJplZ2dFf+RKvY1s12/yT3+Z23wGunYZBsftjP5aKdAUc2aJlSYnlI6jyzGR7cjHJijND2F7ws6tpWS5kRdiMl0k4jFLgoUVfqfhWldwGF3we8HAUdEipPAWZy1EHrMuNSJpPdkGqPl0/B6jxH6TvoxyN0Oi2V4coq6eli+n07TVAFwa+/8wd/6NONubl9HvAH5+tv2siLj4AEjk//xgdfm6fpdyeDEVq+j+H2Foo8RUDVeUZh5CzI4qtd9dqzYjTZRC3a+vQ0DBBwAE9TbEr+4C6T4EXTRlNTEyNGphA3cOJ0G8dPtuC3EpTFJlzJuXH3xYnBE7DFI9Pfdd3GD3d+BhydDKWn6UkmTVwBGIKXzCSGhBoheS0UVQNp3kZaHcP82tcCrRMo3YoyNXCDSKsGeaLghXAicCVRHXtgSDIx6uW3wOtw1/4uPXsFL/4JCqCTOFjqFUrgGCtJJygc+Kx9mWaL/Yq8ZJPJdku6qxuLHs5RcUWuBuLLlVZPo/DPoXA3UZIGT3STTViiAt/05qp80/5xhRSCVdC1VS6HwKXrQpk7aHfmsDnsI2g1EAQBelvbklqN/AhpWTE6/dK7f+RH/l3YuQVctyKv2h1g/9fH/sOvvHe+1XkwHQyR9HpokEFU5CL7RKO3SSrNgJeQyDk76+Al/jyWLWgjFUZdyjqyChySlmQevOIin6OicWWwjROnmzhxmmSHHkr04VIMUBQ7ZplKFsDsslEv+14rqtnIi7OYPSpa69PIyOwppQmZgBMDboDSnUOcsNa1irB9L6KlNwP+HFIkyNmc7WmnfyWpUtY3lHKvWnD8nlQVIW+BV62v7lqf28F5/ewoJOXbqkWI8gaoOl8IdX65XyLKfSF0CHixqb/Wa/jqX5Vqa0qNW/o1mSHxULojZOVZZO4LyJwvo/I3UMpc5/jVOV56Y5CIxf5OAa8JAs/ckcsAl4CmbX4Gmbn0AXOR5JmkDhtBQzaOSV5QMX7z9e94x8+IK7KRqnv179PB/MabOvKyj6R35gV8+iO/98PlOD4+F0bYOndO0n7cHXlBsGMy2rqXgJdNG07ShYZSPhmwSuCQTFlViK4iqcWuQ2WyjuzcQhZ9qx5K5zxWj3q44+4FhJ0MedqT4MuxatQKCZcZRdcDvDRtKPU72UP6cAuTThSnVyqDpIDfQl4toB/PIwhPobP+EBCeRkpwrhJULuW0GoK5hbU8MRI4UyUDAqGRy7HSG7dqXgdzddjFWRG8ZKSK+CwjdQ90BlrfKLG8XWB+7InjciTsnUobgffrMDUtMozV+yVHjj4y56LQ4Qv3LAr/IkqHqhrMxJDSZfu1tFWFGRllFup1WEuZibHtDHjVr1YEPCaaigp6jUYT5y5soNOdx7gq89c89IZ/furRxzOpid86dtyBW+BlbsfGV57Gn378E38d43iJAr4b586i02wgJeCYEcfJKAw62TkZ8JLf1RUpzAeaNwnjSHiwbGLMJpIxDphm5I6NBo0lsmITlbuNI8cCnLxzHg1mCEitZ9Ozmk/MHPXG4d2O6jrbkFEXwcuXXDwjL/E2lzqbUQ1w20KLT4o1tDqvQ3jkdUirjlT3SHqRalfpiUElL19aXORPKRFYXUlAdueyBd3tuR+Q993kNa+6QovOiyl4iZah54q/l5hVbldY7QNzsYsGNS4ZcezrAOC8TMHeTGJQ4fSRVmeROqTC888mHJ8Cu9y8KYuYTceaSdF5T6KFHnXwMhvK2ibWgtm09UTniBf5wnQu8wqtqInBYIT55RVsJTHac53//dHv+f6zt4Dr8nP9FnjZYZjnePazTwQvfP6Lf7scJ1GVpfCcAklualrGDmUneCn1W2tcNcsTob1zp8SuEVapOTmoCq2RFAFNxD2dAEWiVhNR5CMvBwJiR483cfLODsLmCK4/NH5gdpKYiXO9lDXqfV4mZUgShzYpcxISPFMp9BVoISmPwW/eg7D7MNA6hqFLVREgpKQWF65MTSeJfRl/QTKjgJfRcbNOva5t1NS04qE9bmLwkmFsNh+qoqELOqOunLUks6hHpYNW5mJuq8DRzQorQxfNwhUn5v0EL+kQkX1nhsK7iMx5EZnzPFL3LEpvAPixqXez5YVkpQqiDMP+x7KpGRnx7dL+yJ0gZnODSn2vg5a6RlBJnrCoG9oWszHyMR5Kz0evyj/wjf/lj3/W929FXFdaG26BV+3OUIH+yU98orv1/Av/ddrvIU+YLjAmi7XXTZZacYE1i7xLqjkbeadahELu8EvkBam1iRSHZfdm9RPhwXcjYRQVRSWNzK5LEc4NLKykuOOeecwtkWvO5mbp9DQ7PGMlbnZ/U03CXUJAXYh3IiRq9XsMKLsO4ryD3DmN9tIb4HTvQ1q0kQm7sEJYqtOuqFt5Cl4Jb50FrypXEdJC0y5s/JyQN26B1y4f3P6+bRa86tFIadVpihKBy7qvi/agwvrFEmuDCouxh4jsVOv5NXMpdRGAerLcpp/1u3e2GL+8wO9sS7KSpgp3C4VzThyQM/cMcm9bBXb9EvRYZTqc4CWzlyzDkkzcpgIba18iK2VEDGqh6FTHUC/OphSZtVENwxJ0lJZSVk4Yd5GTv9hq/M6bvuO7Pta5yRU0Xm503wKvmTtECv3nP/Lbq1vnL/5ElYyRDYdAkkkM1W63MRoNEEShFldFM9saNE4tVezOSjelUpJWyrwpTqtMktmXEuCEsUQdNN3GU7mabsxuuIG77pvHwkoJr8moZiAg5/nUOWygyqgwbQV91fJW1EEYBZFiT9IHdZp2HDalYc9H0490hdYTrGmwmV01tYk9v4NhMg8nfAitow+jDOcRS3RpLSNqCt01w0H71Vb6ZmIzf6V068uN2IP2+5s48pJNyOXSviZNLFqGjgOaViZuhSgHlgbA6maO41sVFlLd6NkROm0LdoSRSPxLTPpZ+ngBEf/lwUW/mDrHyqZumpY2LR78qXk+su1j9GQb7EsHpTtEGjyJzH0ReTFAiSEqbwyH7S+sAQuJYwd0TttLqkBShmyVkR6tSTlBz8+mzdklys2cMBNlc1cicjxEboAsSYSo4YQ+xnmBzPcQl+Wfvf3bvvPfzx0/ftMK7l7tFL8FXpe5U+lohP/3gx940K3y93pJinw0QplmiAIygzLEaYJGuyW56kBqRNYtdeeH7dwJTv3AREbHKG8odcGDWxK8SKVX5p/vx8I89KIejp/s4OixBpwwQ5mPFTDchqBFkQ3FvXliV8JtHBlRZYkiL+GR9aHTyfw9lbGxYGoBSFcRSzqx2oVkXzUQJ224wSk05t4IdE4jDZtS62Kq47CXra52slz2dTc5eNl7Uo/COO6poCHlTscB+aVx4Ehk3h1XWNnKcepiieWRCz/XDRCzyQQBApD6g6k0G7tFxMCS9SH+XMYo05IEL264Ju3FxndLkUNr0ptmdLoAACAASURBVHoOSozQDaPalZBdWCIPzmPofg6Fdw4lQyxqG8prbI26Lgxge7hq5pLSdK/50iuBV+U6yPnZTEI4LhpegCrLkQ3HiPwQftjAMMuATgPnR4Nnv+4vfcf/uXLXPXsakjfLm2+B1xWe9ODCOXzuDz7yruHGxa/x84IqZRj1eggbAcIwRH80RIMGcLNcilra4HJpjAlRQeaYKknLwKYMjXFv5mRwhXaeSL9Js13gyHoT67e1EHX46iHKcqSgZemzBVOPhezWqD6tPST631PwssBlokE5B1N/M6Z4Gina6Iy/pzp8F1vDJcwvP4hg9QGUZRcZG5Udlfy5qY9b4DV5/BbAOO6ZELCBUepUSAlecKRxebFf4NiFHMskbySRLPwJ91uGEKV9lPqxE+sUMYRU4FJPb8ZpFHaejm+nNhm1ZmtGPjtOpLmef3KU3jZyaG0rxhmUkpZn7ZnUeW1FUYX4K0VeJqdSS13W1XfkLC0hyXWQFjmazSbyJEUaJ2j4AQLPR5PAlaTwmk1cGPQvvOnd7/5f1h948KaeTtdy8bfA6yXu1uDcOXzuI7/znfl49Lr+xYvoNCKZPEk6FuASPUTp+zCTROzCLRwp6ZxHHcTqaRaBEEkTVjKx1Q/MFIbFe7yE77vI8gGCMMbqeoSjxyN0ltgouYU8G4oCiOZGyIRiytCwnthdPcmZmN6wiYzVbCpxpoYmW1XJs6CoHMTVInL3HswdeRBOZx1FHqFEU/pTXDZt3syh1y3w2jGD7Pi2AMTIKyN4yXB00CqA+WGF5a0cK9sVVga+SEURvDhh6DAyqXeJHYlJt03U1jU6kwisclBQS1DGn0U8m45nGp09XPq53MPRa6ty+0hY28IzyJ0LKCj1RDsUgqKgrW7eqHhI8Lq0tWonwcjOpNm5PtnDOo5oPtp57XNzyZ8VBbKihN9oY1wU/Qfe8ti/OP76Ryrp77x1XNUduAVeL3ObRltb+E8f/MD3Ra5373B7A83AR7+3iW63i4zhvqGF211iPQ1vJ2GdSzcLZMJGlxewKVoHuTARhbHoirxhFHkiVZNXG1hcLnDyji7m1wguA1TZyEyyEGAtjBFcrhbkxK+JRJUFLmNLbhuHp8Z5xm5F8pam/gUPmdPCqPj/2vvyJ0uu8sqTe76l9qV3tVpoQ90SCDCCwRKLMWaxMV6IsWeJGTvCMf4z/BdMzEQ4PD/NeJiJ2bwFYDxYEsZmsSUQQgKEEIuQ1LSWbnXX8tZ8uc6c7977Mt+rqu6q6m7Rpc4X0SrVq8x8+W5m3nO/7zvfOYcwc+hB2O3bEBcE1Cas3JNzEz/NGrwkAqVO3waAv3r0HAbeEkYIxy0V/Ls0u/P66An5qok2u3rEr+9G1Xu72nA8jkRY8+KCj6QHsmpzJRM128+EOn9kzcJM4gi4cRHEiG0c+NM0VhaEkkeQ9GHKyb+AkD2oQpGa+29LmkOFbmzbkEy6EyGzL2FkvSh0+AybyCym5nlN2LMlW1dWm6p2PFnzMmNZ/dbbM2XHkWOaSdRFI0lqmzZaTfSHQ+SOBS8M0R2ko9veeve/v/uDH45r4NrbvVqD15XGK8+xdu4cvvPVL//rYhTdRjCbbVJzjP0hJpGxM9W7+kxtjcQs5GKhwlUj8486367Bq8g98QPiTU+2YVpswHE7mF3IhU6/tOrBaSZAOlDpS9a3bB/Ita7i2G5cqwMIRVezIbUaiCVNyNpTzFifjx/kBqJ8Eal3G9on3g84y+gMu2iELenb4sew5FCDl6rH3OzgZaZ/IVfotJ+4k0vtqkBeSBchfFLnR4WQN46+nmEuYg+gqlMpw0r1UNK3wJV8n2qrYIqQqWpup8CLtWNVE9vS9Sgi0ypyYlqQGoUjWpow4rI3pA2GFy2nssw2+X0DWsotwtSUpzMWPMvtIyV5pGVXinPb8gwnRY5eNITbCOC3W1jv9uJTp+78j2c++olBDVxXmoi3/r0Gr12MGRl8G2fP4skvP/JvfNu6NR0w4kngOlcOOcqSkFoxqkZOSSbKJ6s+MRV56btdQNE4sAZeU2zA6dAaNLiS7CPNN9GedbF62MPRYzbcINFPr+oZEUo+l7ACYuoMTG1LGeNpk0mpuRG8Krbllf6xFLMY4RTChfvgzN+JGC2MKLhr2SLvo2eYGry03uXNCF7TsYiZ3sfpcUktq3YKozfvEKQKYG5YYJW1r76NmZGNIDXMXaMfyjyCCsUYYYmoM1mFNHg1IKfJHLL+qogJyD3PdKC7Jv1btDNJsCbRFllGDrMcdopsS11LB1+6EXkreE0CmGqVqdS49ICYtCnrW5ubm5idmQPbnftZDKfdQDca5bfeeud/OP2Rj3brJuRdTMLbbFKD1y7HjQDWu/Aannz4i78XdTdvCUhxzTJNWGAT4uSBpGCrHybdISIblACmDevY5Cs5cRN5VY4jFXD18CufMcpLJeIRZoujXwcrKwmOHG9hZqkNFEPk6QA2qV425ahGijIvEKZZUtrxuWQVsg1AG00KaUPV0HLLxQgriO23Yu74e5BaLSRFAMe1pC+NDyexW6aWK2P4Lkf5AG5W17y2vWgm+uJzY+o8/H9FaFXRWBgXWNwYYblnYbXnohlRtNcepwp5f9k5o6MC9P3KbPrE6ZquxhDDNdzi2E2dTncDCV5EzMZjvILc6cOiQDYd09lWUlBVRpEyVBZFvW9+KlNJHUaOw0mT19R9XblSyjAEDbOZAS/+zLMCfhigO4wQLs3hYq+HQ0cO/cn9H/+N12t7k/0/8zV47XHsLv70J3ju8a//wfqFi0fnGg1ko0jZf0gjpgWHxek4hhv4yEhXFwNGeWK3gpeAynTVoNqZX55cCY6ljhqsIVBcxOKKjSPHZrG44gMBo7SupBnV4tER1iEjPMehgryFnJJXUoxWD56kOKR4xWiNM4aPYdFGJ17CoTt+HYW1jJRqIFrHrVrLu6mBS1YjioZ9s6YNqwSk7di1JtNgasFCf7fVP7fIMTMqsNQtcOQSMNclG9EFXYFEHzNTbtyky6vIS8mzjbs+SNzQXHi5jzWIZKDx6WuilsGIiyCmmonVAlHO2VDsjTP4+Dmcdsc0CUnTQlJNIzJhkkvfJ49Ja5NRQkcKF80wRBrFlKcXX8B+ROFqW5r6g1bzv7z3t3/3ZzVw7XHyndq8Bq89jh+bmC/85Ef44Tcf+4O1C68fXWq2YDMUoU5bliJLUiwszGE4ihAlMWyPRnMKpAQXjDI9c/yV53DiNFSyvCwgC55plpOJnPjTSuC4A6TpJaHTHzsxi5VjAbyQih4DWE4m0ZpNUc/CQhpHsrL0AkZXGdKEUZwHhyr3MbnNLGBlyJ0ZDHAYzszdaCy8Eynmx702ch7VKPNmjrpq8NrSpLxdjVfqWPoG563DKCoRgkYOLyuwOChw9PUCy50Cc0MXDXrAFSI6IVGY9EXqnq/q7SZZDMkAqFoxPeMycTe4hKQ4h9ShzNMlDVxylNI4VvvuqVqzeVWBa6c6dqUop/wSlJuyOKpTWDcUIlccRSJgQODaWO+gMTOLjIrxCzN/8q5f+8064trjvLvd5jV47WMQCWBrZ1/Es1/72u8P1tdPND0XWRTDsYGm72MwUAzAZruFKE109GXAS3X/lyrr2zVKVfPqpjnSPLYlVZfHydIhPJ/F6QEKq4+FJRcnbl3A3JILOD0UeQ+FFanmSyV5oDs2uY8tbCyHtg6JSpuwJDZI2yga96F1+B3IcAipRbsXdU48bxbOzVnf7Nh1s0dekpKuaBwaosI0w9ak0bgtgYjgldgEHaAdFTiynmNljdJRFtqxp+STzLHJ1NSWOlQXKwWySZtXzcW8PynzJNqE1nnkFm1MBiLtVIjJaqp/mgd+m2fMfJlKpmT76aHc12EfVxzLs94bDMZO7J7ny/93Oj205xfQ6Q+wcuLof7r3Vz52Iax9ufYx627dpQavqxhGKtF/65FHft/NsxN5FMO3LQSWhVE0lEZm0S6jCYoEK9uA1zjC2ukktlsJTnaWcOVna7Zilg+RFwO0ZnMcPd6WpmY7HCLP1gTcHNEKtjSVnmr3St0giQt4/ry4N1tBgM5oBq3lB+HO34U0byK1yBHjS9pC5b8m3VmD182dNiRIEYx4j0uSWgcmpnl93PdlBFtk8QOhxksq0C0QphC3ZSpvHF4vMBe5cHNX1Xl1EoLHlZQjO0gc6mjGsMVeiLWrIdK8iwQXkDg/Q+6sgyl1bpfr9KCShdL/JjIbU2zBah50DGKGbVh9TvViTvzAqGTjYDQawQsCibyobBOlmRhNDrMMYRj86QOf/p2zdarwKibcqV1r8LqKseRNu/bTn+CJLz36+3aBE3aSoAELJHOkiVKjVxRfNe1XKcRCDaYfWFUUt5p337IKrPagKCAxvVp0gmWzNBuWKQKc5X00WwnmFi0cO9lAcyaGHUZA2pN6l+2ya5OUeiXIlowyAS+qxg+TEE7zJBqL70XhLCNzVK2rjLTUedTgpW+cm7jmZepZktLTjuMELeES6RvGSDsRL4TkwwhK5NF07Yv9TjkwE2WY76ZY3cix0CeZw4cv7gbqVpf1GcGO9szWCHYx0MamOeJiHQnOSdMx7C4KNx6nNkjPV/VmEwvyYNosVi4h2bcVbv/0fFAlbEz8TdXAklypZ4yGSrat3W5jo9MRM1kqZ2wOBv2Vw0c+U6cKr2Ki3WHXGryuckwVjf5F/MNff+5fLrVmbk82OvBZWOb07lCwJtsCXuqhVxWvErxMenDMnyrPbFxI2NpnQh8gm2QReLqpkhFVhkIo9etYXHGlH+zQoQBumw9yBORUqNfFN8k9WhhlDpzWUVzqtnDo+ANAcDsKtNWqupIWUrOJrsGJCsdVDuBB3/0mBy8TEVEhg7eDAS8CkiFnEKhMrZdEWL5Mf1ZuqzR6kGWYiZRh5UI3x/zQRzNxlUuBKG1ocowzEHk0Nujn6CEuuoiZItQ2JnLvU3OwyHVExFCNO5sIazfgtV0/19b0PRem7BETIWzLhuc40tZC6rvth7i4udm55c63fubeX/7IWh1xXfsHvQavazSmpNF/6X/+9381H7be4iQJ8iSGS0qwFJJV5MWXWf+NnZjlAdB/GT9kJsrSK8RKdJbLQ1i6twauh8GwL8cOQzo0WxhGfaH/NpouomEHQSPH6mqAw0fbklKE3ZG0CjxWxblM9jHIgDw4Cjhn0F5+G2DPU8ObZCkRTSWAjVu7tM6cqn9dowE8qIe5ycGLgRDvgaGn7hGCFiMvA16sbZl7h8Amgr06KhOVQpJcBZcyJR01SLGwmePQhoPZyIObKnBjZCempkUHKNaRFZtInIsYua8glftZFZItO5PENvsiybG1baJqydCVWrMonOgMgjBoq5HXJFGqvC3HT656Szsgu76LTqeDZtgQ4e5Br4/m7AwubXYHC0eP/fkDn/6dF+s+ruvzcNfgda3GNc9BGv3TX/77P8y63UMzQSApOhNdCTlCf9bWyMtQd016g83DalUn4jrbgpeK0IqUKT/lKZZS9YNrTOqjFTbiJJLaW5b2pebVnrVw/HgTh462gCAGEj70CeCFiJ0G1uN5HDr5UQCHUaA5TnWa9KfqZZl0RNbP8WVHcRrfqhJaBx78Djh4lSUedZUm2IJ6oi8vrrqDy0UMm9WVVO7IVYs0RmI0JZX3dW2rTB3aol04IeZMFizH0MlkLdUaFVjYTHFkzcbSwEUjJmePKvIkPvXgYB15fhGj4hIS+yKK4CJypgmLQCyFclGVIUlDSTsZrU9jFlmq3Jg6FpP31S9unlKdYTBfXjfvj/s3ze+MuhxXefRlmdifRGm2Pnfk2Gff/Vu/fbY2k7xWE+zW49TgdQ3HlizE1374g+DJ//u3vzoXBGeQxSJcSw9irgId35NiLgvRrFGxyEsDTPXsjB8r/buyUBEQ06wrM3FUe8NU0/NUQdnMSOMlLqnzMWwngesnaM94WD28gOXVAE7YRWfQQ+KtYvEoTSbPIMvmESWOqE2p5Gam5HQEIn1lIKijLt36teMoGmZltTfMMNLGzZ0HOXo7wOClxl9RvM2CosoWHDfUK9tFWUwRoMo0sgVL09oVoCm1d0d7V8nxSSHnxK6UnkWAWraUWpSugTlamDcv0IgtLA8gppUEseWM0VcPo2IDkX1RlOBTdw2W00HhsPXDSJ9NR1Dqbr2cS7e6J43SzWQWgYCpeB2FNFnL4pA3PokmbJoGzVUdhIUvQjZ8tpmM76fxK7fee+//Of2BD3dKR4drOMnUhxqPQA1e1+FmGHQ28Ld//McfW11ceDdI3ChycUlm7xd9wMhKylK1UvMDd2LiqDYzjxd9lZoTH8eJxlAxkuSW1Zx8SVQWbbdCK3OI9xBBjI2TIZozOW6/exa558BpHoczcxsQnkCMWSSWo4R9WWRnzSJPpIbA2hoJH+R6xFzkmgzm1KrdnHt1UqycpUwM41XsdbgGb9ghDzB4CYiM7y1t4Gj6EKtqMBXwMilA2Q/cR2UAFNCRBSh36Hj4mXaWZi2Ra6JhpGn65Rvq3qUy/EDCMRuN3MZClOPQeoKFzR7mBwOESQeptY7YuoTIXUPu9rRaRgY7J2N2p56sK98F4sWnN5tOi/M7MXMxoP1Rw0e3R3uiUEhYBLDQC5ENcvHhGxUZgevFex986M9Ovevdw1qr8Mpjf7Vb1OB1tSO4w/6DtYv42p//r4f8rPhgMhxgniyktXW4vieMJHbi03crzVTkJRN7peWrTN+oB7MKWJMdKiZHb5qYq/1gygoiE43DXPy/iiJFljOdSXrvCI0gxsm33IbVO+4HFk4A3jIKry2ryIRFd3FuppIBwy02PfNhpZiwB1sMksoBmDC2nRoX1aitXtVUoRTyr9M1eEMOe4DBi1HSeOoWQ1UVvZhm+vH4VXKJZvEkWplyY2rTyQp4Uc5J2ZUoSx1eYGMtInvlFCvLxL3bshwRNI5EoQYIUWB2lGB+cw2zmxcx0zuPMNuAZXVRWD0k9OMS7y31+SRGbdFm28OFLx31SkdwS0eF0pNGMKYSDZQ6fDyMEMeRMtpkPc0JkdsONT+ffuATH/v88u13b9e4uYczqjfd7QjU4LXbkdrHdr2LF/GNz/7lfU6efjwbREHT9+TBTTSNXjTe2EQ5RdqbBIErrSqr4CUQqJFOE0RE9UnJooo1hPTFKKM9ip76SGXlO3/kFtxy5n60jt+Bwg0xZP2AdF82k4oZZw7fZ79XgTiNBEx9J0CWqdW0md+2AyJDjZYsDOtmla8k/k37GNsbZpcDDl4uhWmFvq5aOXgvGHLRRIQ/npInXcPNvWsiryoRgsBAlQwGW3KNlUWdUsUoaAGkZMnk7rQKuFaCMI3QGHXR6pxHc3ABzeEagmITDpdTViIN8kw+2kYhYyxovfc7QgFxWesz6U4TGwruei46wz4aDd7rGdJhgtXFJXFWH+U5Rr5fdAeDL7//tz799fnjt+z9JOo99j0CNXjte+h2t2MaRXj60S8eXn/p3O9aaTrLJIfvORgNhmjOtNBPhxNqS/oZnzh4NS1YLajLwndsMGl2maT0km1F8Bp7FcliWa1cXdhw0hyO52NATUbXw8Lx47jtzL1YOHoCglxUQ6DrSppKutDzyQtLkdDcnayyIlDgpT/e1LiqX8C44Uq9ZMr/y83KfXc3ojfYVgcdvHIm/1RUPAYvnUqshhCsyZoaUVWnUKUPTfSlal7qpf6P4FA9DoMaiVo0wc8VkkcGL+kgSNbRjC7Kv0a0Bj/twskps6TqxMrtWKU3ackj979EjPu7J6rgZYDL1JDNPUuRAf4/I0R+duj46He6cC0XueeN+i4e/tA//xdPNReXK67l+zufeq+9jUANXnsbr31tTSLH9//+0aWzzz73uy3HXfLIUCqAUTqC5VF5wzT+loffytBTD+s4wtE1o60AVglr+GCLoV7ZO2YcXYU0Agdu5iDJUuSujcy3EZGO3Gzg1tvvwu133wOHxpOthhKgTYGoGMEOLOR2ijTL4Vk0XNRRXiWFND1QamIs61yc5sZkjn2N6g2y04EGLy10KzeWUnwXNZipFK/q0Zq29FHjP9EDOFH31Hcwj6f4HgJYcifqPzlZirCI4Y+68KNLCKPX0Rieh08QK3rwbNZZmSbkPsoVwdwzBkApOL1f8OKpmLShIWgo+koJ5qzT8bOH8QjNRgu93gCLc4vYXN9Y9+fnvvDg7/3bn9aMwp/Ps1iD1xs07ox+XvjGY80fPfnkr3tFcWeoiRBpTiq8Ogl5bLZEUnodqwGiBC+uONWadvLhnaqICclCWaqUIKZXrTn/otJFYsznZIjTRP45QRNhYw533HkaiyvH0Fg5BARq25Q8aFKj2Z0jS/YSvCpz0xQRZfo89Xfe56r5DbpsV/6YAwxeRBG59lN5a3VfTTbqCn5oTU6JfHRdyLgm5BJhCQRM1Mw499PWxM5TqU/RdYGxu7R4JB3MRxcRDtfhR12JtPy0ByfvwrUTqdGK35aAlmkjKRlCJdnkypdppy2UWADvzXFFVm+qmIpFpjITqjpoIylsjNL07Km33v0Xd//Sh7q2qyTW6tcbPwI1eL3BY77xyjk8/rnPvs8axR9u0KdLJVdkOWoeIEZi0w3AiqVVrU2XFN/JgvXUpGPcnvWTbtIf4n7CWphFW3pWHUjioEkf69PK1ysVsewGGrOLOHzyFE7cfifs5TnpQo3yGAU9zcjmKJRu43YvQ8iYZh2auYLZnwPd63WAwYspPTZAaE6FXD7Vg6gn8rHDtrqyJqUm07jeRBFxFGDxPqimCWVNxGgrS+HkI/gFI60IThKhiAfwRmtoDl9Bc9SBn6YIkcNjeF8kSOnHRXkN9msJWNqwxDuL6UgbqVBhNdN2Ope+h2d6GrzMs2e+r0ScVM5IUuSOi0GWPP3uj3z0r1fvuCuvm4/3MNDXYdMavK7DoF7pkPFggC995j/f6xT4eBMILVqppIXQ5knLbbSasuJjBDRmaVVSf8ppeZtPmVgxT2+wvUKAWniqlbYq1StjTdYURD2eE4bbQEwtxqCBo7ffjrvvOwNrfl561OzAl/Sh8S4zFGFOinzPE6aWWshT3JuTnvkn6go1eF3pdrluf6c0kzhcaaseUX7X/U3mbpGIY8vCROBKwIpxEV8ih6bjk7GJI4+d5wzYBbT8eAN+/zy8wQX4ow34eRee1YXP1GHqSgqbzsQ8UsqoyyZLlp/ApmdFI6HCTGo5SMj0Y0N+kY6jwP0MlKuPE8W6oT9TjNrQD5CM2ObCHq4AvTgbxnn6lY/84b/7Rq0Kv5+Rvvb71OB17cd0V0dkHezxz/3lkY2Xzn1qLghXpTvfopwNTfgyZGmi1DEEpbZpthzPKOU0U0ZgFYKGSUOOm6DN+lqdZhn1qFUsJwrTnMrJyXIdJGmOwglk5RnDgROEOH7yNpy84w54rRbcZgMIqK2YIyaQMXBz1CpZvI5o+26zwqbMAykfRCcLCgrD1av2XY3aDbjRAY+8qOzOu4XqFoy42KelIiu9lBHK+2RPHqMp0/hgakZKdJfO4ooCTyq8Q8DJIrjZEP6oA2+kCBlhuoFG2oeDITKXgrY5/NSDm/mwciUEzYVTxhvFSuW8aFypPpVRl4URUwQUMGNaz0SK+7g90kQ13/uBJ8o0BCzel7xv2dJiOwFeXVu7sHT00Gff8cnfeDWcnd3Hp9S7XI8RqMHreozqbo+Z5zj3/e8Fz33lax9N4+TtM62GCHty2ghpYikz/GTbSFkfUytek04cS28rSCprFtvV0CpAVip7TJ20lqQSW5eUKRwHXhAizxxEcQ7fo1r9PFaOH8fK0aOYPXQYCCiTAxS+g8JzkEjfKVfnaq7j3zjlSNFeq3QYwdXdDtkNt92BBi/NViVNnbVRASD+VJY37MZidCZdgRPizGVTMtl+kmpkelADmJcOEWQ9aS4Oo0sCWl60Di/pwc9H0jPIezy1csSeEqcOE8CngIWwCG2h7KtYjlVZteBhPVjuRztDzLorQSe1JaW4nxePkOYKpOIoRn+zgzbNZW2mzAv57hv9/vOnH/rFv7j1He+KanHd/Yzy9dunBq/rN7a7OjJTFFFnA3/3p//1IduxH2oHDWcUDdDwXKSjCJ7rjKV0hCloekPZJDPV2DwZeRkQ2+Y0KsrwyhnZPPwqRWQK9qKaDW2hkheyInUKD54ToqASfZyjCELp5Vk6tIq77r0X7ZOk2EtzGeC7iMRlloU0dpWxbkH2I8kjCswOOl/jQJtRyn2g032MliTq0rUrsvjgSJQjLQ66NibBkCTvFAChcFRdCwTACH4yhDPaQBBdQiPZQMhUYdqBH/fgFolE3rz+lItie37ieZJW9vICngZQngKjL0VxZUMHoFoqCF4pMgEvphQJdlSo2T942YGHKIpgpQVmW7MSebGOSy+u1MFXH/jUp/5+9uhRJfBbv26oEajB6wa5HASxx//yz46sn7/wGzOt1krSZz2AS17VRDqWU9JdM6a58vKP7XaFsRLUhEEmDz8nKM1ANP0+Nn3IMsEdNjVbPA+ZLFSRyi08OK6HYZJLGnGUpYiSBAurq7j9nrtx6PgJausAQSAgRvBKslytaNloattCDKnBa38T7zW5bYUYpOpXptap7jMVeWWWg7TU4JBrFRQp3CIWIJI7yfKFSRimmwhGa2gMX5coy4034aV9eJalGpJFz5OLH/5TpAzqIuYWaRpMMauoKpE6qOqtYhpbiK1cB0kzvMpCcFGVOMonr7Q62fuI8Olgm0jAe5QcyJQiuwE2+r2NYK796IO/+elnm8vLez9wvccbMgI1eL0hw7y7D2Ed7OXnnvW+9eijH3Lz7D3NwIfLWphMJYbSW1LOM/ERqtKaDZ1Yf950pX0LHdj07/DYpeGk0RyUFI1IQqXyOb7ribAqac7MCXKSs31fhFcdx5PJJBolki6cW1rC8uEjWD56FI25OTTm54FGQ0CMYcp4oAAAIABJREFUX4XGFUk22YO2u1G6wbY6wGlDidyFRai8sdVL1VeZtpPoR7NVCSR+kSDIRgiKIbyMABZjOBrBSSMhYITxGsJ4Hc1sAL8YSd0rJ9HHcuR40qcliyB2Z2VwqYuYM8JzkdGDy86FqJEa8GKEp1Xoab0ydmfm+ela3dXS5VlX7vb74sEVi6eL96NbT5/+3KlfeGBQpwlvsGdt6nRq8LoBr0+0sYEn/uazJ6P1tV+302yBokyqrsDlqE7tMYXIHhgJy3SENdELoyaL7V96e0pFma3E2dmAnu79AhCnOfzQkyhJCQrH8F1HgEzey2OpiVmMxlwXZG/lGWsJIkiFwnMxv7witbGFw4fRXlyA1WrJ92AkRuFEE/XdgJfiyqd0oMGr7EYe3ymiHM+oRrU/8K5gVEazyCAbIIg7CJMBvLiHRtqB1T8PPxvAKlIRb1apQTavq/Rwnik9eVHckLonJdEIaFphXit8KOq9iqbE4FG7kPNdLqKY3jZKM0JvF80p5biwX21DPjqETlrapZ4VJbb31Xd94pOPzR89Lk7I9evGHoEavG7Q68M04vPfeKz1kyef+E07K26jOzOldMYAk4vlnuKfT7zcsYyPvC29N5NbGEUP9W5JCJEJbJrFqOWllFIHXZrVJMPoSwglDKT0RKSCQElGKkjkirvIJfUUM+UTBFhcXcbRU6dw5PgxuHPzgMVVt5rcqh8/jgMq6cydLtV+Uo9XZ6RZsj+ldqfXAkx5bebAX33pHCJnBTGC0vtKRLlkptXeh6bBfOezL9uXJkk71XGoLk+mk8SXU55Q6UExaNNnpaMwCuYKPZ1XjSnrDF6eQEgYcQ/esCM1LW/Uh5dsYh5deIh1HVNH8AXro9TPJHu2bNFQQlSKhGHOjZ8jSUp9HmPurACoJoqMv7BR2KBElN7SAJjZptLztQ1HV33XynBmecEzeKV9ePVz7/rUb19ww/AGnRHq05oegRq8bvB7YuPsWXzj0S8+kPSH7/cKq9FwHLDEnUWR+IGR2RenMTxtiMcoqBGEGAwGQrU3JA81cZSsMfNgS0NqlZE45StWDo9Z+VZ1uEsCyda5o9S049pbaAESpRSwXQft2Rk05haxcOwE5ldWMbO4qKXHWf1XBI+EVu6sx5HsIafPyFMzF7U2nrhtZMqKXcCVthvkoEgTdgGPkapmOspX1Vhhaojq66r9t3ttq5Rfad61RDldySQRvHoZ8LlHXkbkriIGad9mzM3x1QmoRmBFhtii4q5PZDtYGzcQa7jnxK/OXQGCuTqKb8p0rvr+FU1/ObotWoE0LFXsT0/+5QjIBswH8LMh3HwADDrwsj7cpAcn7ksdS6KrPIZjpUKy2FPko1FrbD+iuKjbvsZtHIy6zJgYyxZ9HLZmhI0W0jyRDIBamBWSBRBjSqMEEqvWE0d6F1VbSC/L4yRoPnbv+9731RNvu3+nAvENPkPcvKdXg9cBuPbxoIcff+Obs6/8+IefyvujU16Ro+37iKKBpN34JLIvJWDDcEx2oIPAd9FjLt812m+lZOrYzkJUocqamVFJkKmuMsnLZKffMBPqePK/grqBNFTrCUTSSHku58rzcoIAsRMKsaPZbmP18BEcOnYczaVF1h5UM5inVsKMBYTxRlAywq6UqqLivesogmNBEWHVZMrJWcDdgJLUXkqWIydD1gxtaVqi4KtGxbFMLd8vJB1a9tltnd84rfLd2IFYewwIXg+/jMReRmQFYB+V0gvUjeDif6WNDivCtbuJHo2YbfWWJZjx0Kq2pLJpopihDyiazGIboqjwhl0oYF8ATdeHQ9HlbAQr6cOl8oUmW1CuyUsJZAN4eSQiuVTKkF4uI00moHk1pJOyj3FbpRUjPaYjJnO7mSyB7Qfo9PoIdJ+WpB61dQ+tS7wwQBiGiGNlPTToR5iZmcGlS5deO37X6b+686EPvE5SRm0ceQAmwqlTrMHrgFwzTsj0CPvyf/vMA55tPTgTtlp5PIIoq+n6Aidj1pKGo4FQkRvNpqxG1auqCq4mGyNNVVWmN3YY08MyDV7m76Um3PYDaQBLRUXqc2WFLNJUNuLcgsMJ1PVkkieJI2g1cOLkKRw/dRKtxRXAdQDXU9lICd90wyo9oCgmnGbKgt2y4Hn0GdOaITri4mdWJ0bBYZMuE+q3VjnWiCwJPkGAovQsm9L/U4DOZlxunSGmG7DlYpATvF7U4BUK1dyAl0gP5UJ5GUstkYhjIieBFtYydZSsgN9IxarxnQYKiTIrnB0DXNJoLufMz8qFzq4a0BWzkEhPUGrH6wjSPgqKRCcjgBFWOoKbDhXpIlfEDC6YHJsNw1wY8Jik3EiMc1XgpYa8TPBdLvyZjr7kOrouoniEVqOB0XConBLomGA7cDxXyBiUd3ICH71ohKDdTjq97nff+4lPfmGZcmfjtOYBmQjq0xyPQA1eB+xm4KT/g6/83cxLP/jBr4W2c4c16KPp+4r15akobDCK0Gy1xLZcohBZcRO8Su8tnUQcRwRlfaSM0KpDczXgJSobjPIcZSsxGQ05SJJE6iBeQAFUG6MskVSc5dhC9piZncfiyjIWFpfRmGmrqIwFdbGYJ0PMGRfYRZ1E/KnUiwoh3IafKelLHZFw0uJk6FRqLWYKNZGdgN5lZlPZn4w6K0FM8orlT4FXQyIv/iOIyPE1MYYRk67+qBSijjAUyOrFhU7tyXkIyJVXRHapqL+LSbY0CuvjMjrKE/gEYCFS8PcRLBIo8hh2nqmIqvsKwqwnUa6I53JbGpVSdomfyvSgwCmBvGQklunoKYbrHp8nc0gBbP3LbgBMjQmj5xSO74n4L40iF9uzGPYHyOmkajtotmewMRiwKgenEfysvTT3hft+6aMX2jUFfo9X6sbbvAavG++aXPGMCEi9C6/hqS89+pZ47cLH3LxYokpAbzAQZ+b5hQVESYput4uGzx4WzgsELk2NH38Co59yRrxcgX+8y1T6cDeRl7Fhmf5ijDpcPWkbcCHQMFKxCXSuh5hmYrYjDDXP9UX3cWFhAcvLq2jOzaOxtAR4vvIeE8kgVf+RaM2xkZr9p1QihObP8dAlF5MGleHQ5onCZ9Az6XYpLe7PWpHQ/glerHkx8nrkHBJrZZw2VOClwXRcszHMARW/mJdyCC6TiDvV4qp+WbIwYD8UWX6G8ZeSzh7BF3km1qwGsJO+iOJKijBLYUtENYTDnistckuAYkQp94zWvFTnpmpqkrat5DhLiv0Vb9ttNzDCuIpYVMJW+Rk7k1WUjYti3FILNHB8eI6PQbeHRtCEZXuIaBhZoOe2Gl89/dCDTyzeepvQ4uvXwR+BGrwO8DVM4xidc2etp774hY9FSfROz3Ft33Mlkon6A5nkpQamwUuBmPnCfHcSvPiXKwLYHsFru+Ed18CY2qJdhtJOUBEZIyLXAVlgI63vKO0BuVJlIJjwK7gCVi6KoImg1cbS0hIOHT6MxZUVoNVUH0vOPusxAmSeRGrcm4LBJnJgf5phCypiByMklSPk/zvO1khUZxTlI6gJKDUvGwJe/Rz4/MMvI3ZWMYJXqXmpsec/Ao2MvlVopqUGNrtUa5fUYq7bIaTGZ1KNZkSpcsFSViKRlS0R9gg27WzSAdx4CIeaglkkICZEC0ZRTAkWsURoZPrpFc24z0tGSId4UhejsLIouyhiishGyTgS/I2Y82UA5grPFxuVS+TW1Hf9BsdH3aV6vKaPJeaUGYqMzfQ2HNvDsB/BDxsImy1sbPaZKvzJ7fe/7XN3P/j+nt9uH+CnvT71LZf//9+Yf1QPy8EegcHGBp56+POHL50//6vtRvPYcLOL5fkFxIP+2IOpmpJR6SaVptmJb3FFENvlkBkWoACnYRHofeVveTZOJxJUxPVZ+oCYtFIixfy9rE2oGhDrGkwxJjHZi67qKSLwWLZEZ7Pzi5iZm8XRW07CYf9Z4MP2PUVwUb4vKjIrKDqsrF3MZ8hkrcFyDOgVCaIqO1Am10IRNhJLRV6ff+RlZNYyRgiQ0idNOhaUUoro/2mJJU7NI4IrlUb4vtTiuB3TdfyZIOR3I5mbQCzv8ZoRRTI08j6aVGjPe9K6UNC4MYslqqL9tV2k8CiWK3R0fnYqfU3EHv7kNU7yREO1cik2kVSVZCOebZrqIePMc9Z9VjzmVUVfQmCRlYb8VwV1po1AkUzMYmG7e9J3bCXvxGtouxhKzbSFCxvrF1cWV7/yC7/2yWfaq4d3ebfWmx2kEagjr4N0tS5zrpz01376EzzzT1+7O+0OftktsFgkMTzbUWmgSj0h1001ahI2RI7Jg18r8DI1LgElDWDV91yXK/tMiAnVl1rdK8BTJAYTEZTMNqacaMfOPJaJ3EwPkRAbSJZgOi3wETRCBI0GGq02ms2mkFmc0IfdCmF5LvygITJBpFMrLUbNhNDKEObcJggTkuoq2YYEr2EGfOHh55HaC0gQiHJEIdYeSq3dIUFFSzIRABJStwU0lMYJAafI2PStIior488M0KDEmlWeUVopE9CayzakeViNrxpjsSchs1LqX2XUxjQbU50CTNJEzi7disu29HWpbzoNSNXvra6HahKWmuEVGKeXfcSq1328mLo8a73KhOVigE3GTsBuM6Cfph3H9/7xzAO/+K1Dd701r1Uy3iQT3DZfowavN9m1TaMIl1543nn6kUcfsvPi3aHrhnmaIAw8pCmJECkcz5bUIiMPgpcEOzZ/inSuREKkFpO5N04h7YbLvY+xnGyY3tsBFPByki73MxObmrbFrrB0qpacmPpdQNGC0KgJlLblKIUQ3xMA87xAWGqzs7MifUUyDN/3vVB+EvAkggtDpEzFNX2kTFslIb781e8gKVoYjAoUYpJFLb9YoiXxV5T8G5uBc4mUBNjEQYCkCTISMwEvkkGsTKX4RB9QiBTK30rVL7koKSnwZhRMolNtV+3DMtuqLVVfGMFr3Bo8wVCUxcOUo/LEAkPG07Ri7O3ama05xlRu4cKBY8A0N68D2SlsdOZYi6uB7g9Mk1zeY0sE71kKRDOajvIsjfPsO3e95z2PHD99OvbbszWTcH+X5MDsVYPXgblUez/R733p4bmXnv7OJ2ba7Tuifk8xzm2S9RyZEJI8g2v5MpGLl1GSCHAZ+ja3GafS3iDw2rYp+DJfXepIMhMbuaBqz1E1CaUOUpWikjQZ04a6yVf9XQGbbalUZBQnKiVZiRqlJ0xHhgl9q7gYQIzc8VFYs7i4kaDRXkWSku3IE2T0ZMBHm3EKpiSwhSbI1JsCFonOSEdnOk4zB9XvhGGVUlQ1zByZRWNG5X8lLx1ZlX0AiiZv/rZ9ZYpAUTL95DAToKiXAHp8q5dCKSLuv8/LxFfSTD3+CgXyVPWRcWFBiyBen9n5Obx+4RLmFubR6w3QbLQwZIe15VF/88XZ5YWH3/bxT77WZLN7/bopRqAGrzf5Ze689gp++E9fW33t3Msfm283bx10N2VyDD1fgIkpl5ikDtZdpLHXRjIaqYhEVr+XT+Fc6+GbzkBN/z6ZXSThRE2uZUm/Cl67aJ51dG+VaEWqWpeJSvi7RyajbmguWZOKxEBCBaOkZsNHd7ABNszGqQ/XnYXjzyGhdXwxEvCiEK3qs7Lhag8snndcKFUIBaTS0DABQsI9lPdLmnqVdENX4XJMjL5GhdJeWXRM9Lrp+pKK4Kau4jYecEqOafJeuBrgMleN7Niw0UASx1LfpI+d/I0tD/w9aMo9OIiGaLRmkOq6qIqonVep/n7Pe3/xhcXbbq8jrWv9MN7gx6vB6wa/QNfi9KhWv3HuLJ574vEjnQvnfyXwnJPZcKTBqlShoNhunmcqjeMxzZhKJPZGvMwEOj2RTsNPdfoU4olo4O0EXlvP3Ggamp9K3Lisrwl86N+l9zcte8OqhBNR6yDJIqPavo3+aEMkr0ZDnnGIOFXj6riMqthlpCxlJNWZqxqXEFLsrRJb1bMeU8l3uAiTYF4BOC1oW1LQlTyXALM+Fn81fW6Kh6n/PhFl72IBcBU3SIZM0tNMU/OaqPstF/8svscUYRSnSvWdzBjLIQv1tdBvfOXMBz/w3OItt8ANmzVwXcU1OKi71uB1UK/cfs6bK9iNNXzlf/+Pt6Vx9r4g8FZI6gh9BVSkHDN1SEKDa6u62NapazoSu7rJbadIa3xUPTtP91kp4NJMvi3gtXO0aCZpMz9zVU/NC76m2ZCSQiSxYSplOt6O9bOCFPIUadZHs0mnaRdZyvgpBMkoad7XwlZK6cQuKJzM/dQFJGtSqaOX4yhECv29C6WEXDEMNX9ivY/nrgR01av83gqcJ0G9rAfKmeh9dEO0/shx7Ka/87TiyqTxozKwvBrCBtPVXCxxTAlUBKwsS9Bo0HnAlt5Fv9nCMElJ7F/PkvSJf/axjz+2fOfd6hvUChn7mQneFPvU4PWmuIx7/xJkJn7rH750Ju73Hgwsa1U0EDNDl4ZI7agi+nRO6dqC1/SZb43AyjReddtxjKEKXjoJNnWuOv21w1+VuSZNPzSjkFGYST8aospO8kGqH4zJPPqYkfEyFIIBwQmFBwscuxyWQ0IGi188NhHXF/dhBWRarFF/sWoUVRLHJxcH5TdUsZtyPzad1pOEjO3uCgOSY/Zg5UONusfk2JZHMfXIKpZPEkL2fh9yjyxRxAwuJAjcjMRYa6Tskxs2KCF2yXbtJ+56+zu+feL+dyY1g3B/4/xm26sGrzfbFd3D9yEzce3sT60ff+OxW0b97ofX19aPrywti6zEsM9IoinR2OTr2oGXOVKVL7BTHDcdEfCcjH5flbBhzlUm4Irm45aKjQa2slWgGpOVEFGt+W3pUyNsFB5sh7p/kfJXK1y4Tgi2WjG8KhAJIUOUSChThZC6IgJ8Kv4x2pMMrsrknRmHSYWNabagMo00L0ONV+zF6RvBHNGQWEqGocRs2xByqpR01Z6sG60rEZ6qe+3hppvatKAhKY0ufR/94QBBGIrc0/pGB+FM+yIc97G7Hnj300un3pKHs/P7/6B6zzfdCNTg9aa7pHv/QmkcoXfhIp782785tbl+6QPNZuMWtsaSus20lom+DPl8rEcnk9akAsVekojbgZc5+630AEVtl4m2kvRyqSVVfVXIBhJx6T9vlVlSn24LVbyitzg+lrJY2VmeSdARthMgTWPk+UCzOHP4boB4pGo5JGvIGbM2J+ClIi8BLznXKRKEZgeaUTUO2nJale/Ga0DmJGWp2HAu10SknSazeNPpV0lZToANa4aXV8gwoGUMV4xx5LQ3184gtr1GhpBXXA/DSNW2YkpW+QE2up3XG83mY/d/5Feemj/OmlZY17T2/li/6feowetNf4n39gWpXP/th794dO3S2odtFCdCGoWlSn5IlMilJ6pAnqSwfFcV0akIT9oygFZDKdlHg4FEbhnpjJXXdrp4Yzq33m57RYWqpUs5QRvB4K2fMTkhVyFOzdXmvK4ucii9Y8oIdWyUOIZadXZqcteeJeaE99TgW44ldyNukyZfRkgakOX7lbWs6thMj1e+xcxU1de2jpcC6+rpClBqgKdSCWW9pA4pjgGW3Ad+QOIFvec8YRL2+320mk15z7Z8FE6AJLdROFaRW9ZrKIrH73vowe+yplVrEO7t2b3Ztq7B62a74rv4vkb494Wnv71w9sc/em8j8M4UadYQEnOaSq9YOorhaQYY3ZIJVMkoVs3NjiO/c6JyqSmoX5NiqypFJj28Gkim1/+TK/krg9ek7Yk6WqkYoU5iXFPTCoZX50W1i8G8jpsQqqpitpMfNQle0xFYORiKrTlJxNgJ/LbmB007hTAGUxVBkejDeinvhYJ6jbYt73fWN0ABaeo0UtIpoP5gLxm5QfiD5WNHvnL8ntMbtXDudbxh3mSHrsHrTXZBr+XXIYjFnQ5e+fFz4fe//o/vKorsPt9zVgLPBdOKbCb1qClHV9peTyYmk2Yjg8wU4avpPhWBlIk/Aa8p1JpOP1XTi9y/qi3I/auvnXiG44rPFT7rWo7fG3GsnQO3Kxei1L7KqLLKdqye9+W83nidbM9FmlMcNxcpsjgayeKFsZuQXXKSVmz0en2x6RFxZRRI0rSTFnjm9nf9wteO3XMmYj2rjrTeiDvmzfMZNXi9ea7ldf8m7BV7/At/fVev23lvu9k+5lJaMI6ANJOmZvaIUX0iy1JZeTPyEq1AI0U0VY9SkdBkiupKLdFTUnhjEsFWpt52cciVgfK6D+I1/ABR5JAGZvWaHLudwWtSUKNUbp8ELfWbAa+JHjFeR8qKWUBMFXsuZmj+mANpnKHhh2JFQyknLoCoKxk229js0yQ1Oz9K4qff+YEPfvPQ6Xtz1rPqVz0C+xmBGrz2M2o38z70Ert4AS889fTMy2eff4cbJWeaQbBMNYThoCe1jcBVBpOB7wuQmam1qgQhky2BThTKy4l2u1qLcQRWYDc9+OWUfXnW2ySxY5J0cjAvqDRJ52UdagLAp7Cr+jfTOrDdeJb+bGpcx1HzhOqGcsHmi4sURt300WLU3QyaGEWxCC1TESPJcmz2uptes/HsoWNHHz92+nSHqUE6AdSvegSuZgRq8Lqa0bvJ9406HQ1kTx15+cXnP9RuzZwMPM+LR0PtXaVUyoUPp0kSak5VaUO+ldqK7r1Tbaq0sleDvTXFOMXW2zHgeHOCl1HgMIoh5pacBnLTOkA0Ep8sHX6p/bfrhJsEL7MAMccfR2JpgUajgYiARQ3IvEB7Zg5nX30taTSbL8yvLH/99ne881z70JGiOT9fg9ZNPmdcy69fg9e1HM2b9FjSXBrHeOGpJ5vPPvH4O6Lh8K3t9uyqXeSuRzI6lSBEXNb0CmnwsoBU/KG2DpzR8psEqyslFcvjbI3C9kLiP1gXcnsi+jbfQaf7mAoURqT+feKnaZ4e716O2zQrVKjyaS5K/GlWIGy38NqlS2tpUTx3z7ve+fW3PPDeoUg31VHWwbqhDsjZ1uB1QC7UQTrN3tpFPP/EN2def/ncmXwUv90uihUnk3W5UoRgNKbTf5MMweq3nMwP7syq216d6GYAL8U23M2dUep1bLd1daQnDjc24FSiwZMvBWqF5SDKste9hv/MzPLSd0/d/84N6c3Stc7dnF29TT0C+xmBGrz2M2r1PrsaASp4UNX+tZdemFl78aV71l+/dJ/vOkue7QRsH8tGMVt2lZq6w+I/vcaUNYsbeEiyVKxahBTgO2wqwigejp2TRfiWja5CElFNwWRAyv6uckY2ChkHmRI/TgVqqS6j9CGQZBfC4BPbFrJDh5GwPjkefC8ejeR30tbzJFZeWQAGgwHm5+elF4vNwRw7ZYmjPdwIXHQagCO0di9sCPlm0KdiiJVZlnXRDtynj7zlju+t3npLn27F4ezsru6LeqN6BK7FCNTgdS1GsT7GZUfApBUJZq89/+PgB48/djpP87e5wHLLcpq0rae3GHvD4iSBpbpfZTIVgPJdJRxs5VJf6Q17ojrOv5Gyr6ICW5QuxESSaUptqFn6kZVq8eZkr6yg8fO/sFWFjy3CwaweFqmMGYkT4sWmm4N55hx3n4sESnzRvsUBPDdAlidoBE10+x3Zh8PH8ewO+miELaG+e0GIofTy0azTQZbl6fr62vn5hYVnbrnzru8eO33PQOjttfrFz/8muUnPoAavm/TC/7y/dhrHePnZ73o/e+Z7R/obnXtc2z2VJPFcXuSBOBrbDtJkhIBVM3HJYGPrUNTuqdZOsOJ2xt+JMkP8u+8HY+8rY645HblIuktEeImRb4zly9WO9xZdRR2F0ViU35MAJeLK2oON9jbiOWapvzOG4jgmcSY/i7SA5VqyX6PZxCAaYXZ+Hp1eD7ntIElzWK7bj9LkQiNsff/UW+9+5viZM6Pm/GKt5H61F7Pe/5qMQA1e12QY64PsewSY6tLpxfMv/bS5fv780qDbO72+sX7rfGtmJsvSppXm8D1HgCyPR0LBF3o2LeKLXCKFwG+gyBUtX0wj2UDtq8l8+qXe03WgGxy8pkFrGoizhNGm8sNiVDocquZwvhitiv6ibUuEZfzZGKUxbei4yiKTP/v9fhFnxabf8F/2G80frp44fnb+6PHu3JFjOd2Jd1LX3/d1r3esR+AqR6AGr6scwHr3azgCeQ5GZPGgpwDt/Kv+2Wd/sNy5tHbfaBSdnAlbC66FYNgfYHV5GZvdrtTIjG8VE2BS7/LIgstkwqYGowqxVF2I0kTmpdKGu2I8XMMvub9DbZc+FOdrSymciEaGbWOkNSb53VkLYzrQdhwMBpGotTOV2B8MsLq6iksbmz0AF/1m+MzJO2//4eptd/T8dhu0HKkNHvd3neq93rgRqMHrjRvr+pP2OQKccNlTdvbb32q98Oyzb4mH0amsKA7Nt9szWZ4Hnut4jDwMDLkW4DoORqMhQk9FIZzhTcQ1GY0dPAq9AmEjsV9gMBgq6SXai7iOqhtKutURXywvDDAaxSPLdQdpOloLw/CFwydu+f6tb3v7Rvvw0Tqq2ud9We/28x2BGrx+vuNff/o+RiBPYwzW1nDp1Ved7quvhN21tdnBZvdIkSYnA98/vHbx9ebCwnyYJil1zsfgpf5nSkTpAKUNDcFE0qL6n+8FGKUZ/CBANIzTUTqKZxbmh93e8KLX8F9qtmd+NrOwuD63ujqcO3RIUoB+s72PUa93qUfgxhqBGrxurOtRn80+RoCRGZmMca+DeBCh3+u43dfPN9ZefXWht7Z2LI5Hy0WaL9m23XY8u+m6bkjuIdNsrKexSVfZmGxtgjbKFVv7nPZxorvYZaxcUclm0vvLAFdOqkmWDNM0HSB31kdZeqndnr0ws7zw8sLySmfm0OFR2GoVZAESpPx2E66ro89dfH69ST0CB2UEavA6KFeqPs+9jYBYygtfHPJ/OST12Ltw3nr5pz9uv/rSy4eHw95SPhy2HYB88JZju7Oz87OtqN8L5heWvGg4dBydUnVzAAABGElEQVRLNQKX8lWa6HF5/8bxuZaEC1sxAXUkaGDSc1QKcBDFbBUoeoN+ante3B8Oh7DRHw6jvh8GgzRLu7NzsxeO3Xrr2eXjJwft5VUwiqI/jUgbU8FdKO8HLw26twtbb12PgEmmFMUf1YNRj8DNPAKKJDJAOhgg6mxg2O3amxcvNOP+sDUaDNtpHgdZlgVZlntWlnvIC7fIc7egC4gNJ4MlhtMK41TIpP8rVArLtjLASS1QXsRKYVupZVupa9txnMaj2dm5IRyv25ptd2dWVoZ+o1WE7Vm4TUZPNXniZr436+++8wjUkVd9d9QjsMsRyNNU2HrqZwqk+v+vsL8EQ7YtyiDC/hv/fxkx7fIU6s3qEahHQI/A/wNXZFMsYKyhoAAAAABJRU5ErkJggg==;" vertex="1" parent="2">
                    <mxGeometry x="302.49" y="153.5" width="185.02" height="173" as="geometry"/>
                </mxCell>
                <mxCell id="6" value="Create Spinner&amp;nbsp;" style="whiteSpace=wrap;html=1;" vertex="1" parent="2">
                    <mxGeometry x="332.5" y="350" width="125" height="40" as="geometry"/>
                </mxCell>
                <mxCell id="7" value="Spin" style="whiteSpace=wrap;html=1;" vertex="1" parent="2">
                    <mxGeometry x="360" y="410" width="70" height="40" as="geometry"/>
                </mxCell>
                <mxCell id="8" value="&lt;b&gt;&lt;font style=&quot;font-size: 18px;&quot;&gt;Ready to spin!&lt;/font&gt;&lt;/b&gt;" style="text;html=1;align=center;verticalAlign=middle;resizable=0;points=[];autosize=1;strokeColor=none;fillColor=none;" vertex="1" parent="1">
                    <mxGeometry x="355" y="523" width="150" height="40" as="geometry"/>
                </mxCell>
            </root>
        </mxGraphModel>
    </diagram>
</mxfile>